ISO-10303-21;
HEADER;
/*Generated by software containing ST-Developer
 * from STEP Tools, Inc. (www.steptools.com) 
 */
/*OPTION: using custom renumber hook */
/*description */
/*implementation_level */
FILE_DESCRIPTION(('STEP AP242 Edition 2','STEP AP242 Edition 2''CAx-IF Rec.Pracs.---Representation and Presentation of Product Manufa
cturing Information (PMI)---4.0---2014-10-13','STEP AP242 Edition 2''CAx-IF Rec.Pracs.---Representation and Presentation of Product Manufa
cturing Information (PMI)---4.0---2014-10-13''CAx-IF Rec.Pracs.---3D Tessellated Geometry---0.4---2014-09-14','STEP AP242 Edition 2''CAx-IF Rec.Pracs.---Representation and Presentation of Product Manufa
cturing Information (PMI)---4.0---2014-10-13''CAx-IF Rec.Pracs.---3D Tessellated Geometry---0.4---2014-09-14''2;1','STEP AP242 Edition 2''CAx-IF Rec.Pracs.---Representation and Presentation of Product Manufa
cturing Information (PMI)---4.0---2014-10-13''CAx-IF Rec.Pracs.---3D Tessellated Geometry---0.4---2014-09-14''2;1''CAx-IF Rec.Pracs.---User Defined Attributes---1.5---2016-08-15'),'2;1');
/*name */
/*time_stamp */
/*author */
/*organization */
/*preprocessor_version */
/*originating_system */
/*authorisation */
FILE_NAME('/vol/tmp/translate-6596636661662437601/Part Studio 2 - Part 4.step','2026-03-25T16:23:58',(''),(''),'ST-DEVELOPER v20','ONSHAPE BY PTC INC, 1.212','  ');
FILE_SCHEMA(('AP242_MANAGED_MODEL_BASED_3D_ENGINEERING_MIM_LF { 1 0 10303 442 3 1 4 }'));
ENDSEC;
DATA;
#10=SHAPE_REPRESENTATION_RELATIONSHIP('','',#224,#11);
#11=ADVANCED_BREP_SHAPE_REPRESENTATION('',(#222),#734);
#12=CONICAL_SURFACE('',#256,0.00731587257999498,1.08647165940629);
#13=CYLINDRICAL_SURFACE('',#233,0.0214292936342272);
#14=CYLINDRICAL_SURFACE('',#236,0.0015);
#15=CYLINDRICAL_SURFACE('',#239,0.0015);
#16=CYLINDRICAL_SURFACE('',#242,0.0015);
#17=CYLINDRICAL_SURFACE('',#245,0.009535);
#18=CYLINDRICAL_SURFACE('',#247,0.0015);
#19=CYLINDRICAL_SURFACE('',#253,0.012535);
#20=CYLINDRICAL_SURFACE('',#254,0.0148252863238402);
#21=PLANE('',#230);
#22=PLANE('',#250);
#23=PLANE('',#252);
#24=ORIENTED_EDGE('',*,*,#62,.T.);
#25=ORIENTED_EDGE('',*,*,#63,.F.);
#26=ORIENTED_EDGE('',*,*,#64,.F.);
#27=ORIENTED_EDGE('',*,*,#65,.T.);
#28=ORIENTED_EDGE('',*,*,#66,.F.);
#29=ORIENTED_EDGE('',*,*,#67,.F.);
#30=ORIENTED_EDGE('',*,*,#68,.F.);
#31=ORIENTED_EDGE('',*,*,#69,.T.);
#32=ORIENTED_EDGE('',*,*,#70,.F.);
#33=ORIENTED_EDGE('',*,*,#71,.T.);
#34=ORIENTED_EDGE('',*,*,#72,.T.);
#35=ORIENTED_EDGE('',*,*,#73,.F.);
#36=ORIENTED_EDGE('',*,*,#74,.T.);
#37=ORIENTED_EDGE('',*,*,#75,.F.);
#38=ORIENTED_EDGE('',*,*,#66,.T.);
#39=ORIENTED_EDGE('',*,*,#76,.F.);
#40=ORIENTED_EDGE('',*,*,#77,.F.);
#41=ORIENTED_EDGE('',*,*,#78,.T.);
#42=ORIENTED_EDGE('',*,*,#79,.T.);
#43=ORIENTED_EDGE('',*,*,#74,.F.);
#44=ORIENTED_EDGE('',*,*,#72,.F.);
#45=ORIENTED_EDGE('',*,*,#70,.T.);
#46=ORIENTED_EDGE('',*,*,#68,.T.);
#47=ORIENTED_EDGE('',*,*,#77,.T.);
#48=ORIENTED_EDGE('',*,*,#76,.T.);
#49=ORIENTED_EDGE('',*,*,#75,.T.);
#50=ORIENTED_EDGE('',*,*,#73,.T.);
#51=ORIENTED_EDGE('',*,*,#71,.F.);
#52=ORIENTED_EDGE('',*,*,#69,.F.);
#53=ORIENTED_EDGE('',*,*,#78,.F.);
#54=ORIENTED_EDGE('',*,*,#67,.T.);
#55=ORIENTED_EDGE('',*,*,#62,.F.);
#56=ORIENTED_EDGE('',*,*,#79,.F.);
#57=ORIENTED_EDGE('',*,*,#80,.T.);
#58=ORIENTED_EDGE('',*,*,#64,.T.);
#59=ORIENTED_EDGE('',*,*,#80,.F.);
#60=ORIENTED_EDGE('',*,*,#63,.T.);
#61=ORIENTED_EDGE('',*,*,#65,.F.);
#62=EDGE_CURVE('',#81,#81,#100,.T.);
#63=EDGE_CURVE('',#82,#82,#101,.F.);
#64=EDGE_CURVE('',#83,#83,#102,.T.);
#65=EDGE_CURVE('',#84,#84,#103,.F.);
#66=EDGE_CURVE('',#85,#85,#104,.T.);
#67=EDGE_CURVE('',#86,#86,#105,.F.);
#68=EDGE_CURVE('',#87,#87,#106,.T.);
#69=EDGE_CURVE('',#88,#88,#107,.T.);
#70=EDGE_CURVE('',#89,#89,#108,.T.);
#71=EDGE_CURVE('',#90,#90,#109,.T.);
#72=EDGE_CURVE('',#91,#91,#110,.T.);
#73=EDGE_CURVE('',#92,#92,#111,.T.);
#74=EDGE_CURVE('',#93,#93,#112,.T.);
#75=EDGE_CURVE('',#94,#94,#113,.T.);
#76=EDGE_CURVE('',#95,#95,#114,.T.);
#77=EDGE_CURVE('',#96,#96,#115,.T.);
#78=EDGE_CURVE('',#97,#97,#116,.T.);
#79=EDGE_CURVE('',#98,#98,#117,.F.);
#80=EDGE_CURVE('',#99,#99,#118,.T.);
#81=VERTEX_POINT('',#494);
#82=VERTEX_POINT('',#496);
#83=VERTEX_POINT('',#593);
#84=VERTEX_POINT('',#595);
#85=VERTEX_POINT('',#598);
#86=VERTEX_POINT('',#600);
#87=VERTEX_POINT('',#603);
#88=VERTEX_POINT('',#605);
#89=VERTEX_POINT('',#608);
#90=VERTEX_POINT('',#610);
#91=VERTEX_POINT('',#613);
#92=VERTEX_POINT('',#615);
#93=VERTEX_POINT('',#618);
#94=VERTEX_POINT('',#620);
#95=VERTEX_POINT('',#623);
#96=VERTEX_POINT('',#626);
#97=VERTEX_POINT('',#628);
#98=VERTEX_POINT('',#631);
#99=VERTEX_POINT('',#636);
#100=CIRCLE('',#226,0.012535);
#101=CIRCLE('',#227,0.00528039651596903);
#102=CIRCLE('',#228,0.0125349999910549);
#103=CIRCLE('',#229,0.00731587257999498);
#104=CIRCLE('',#231,0.009535);
#105=CIRCLE('',#232,0.012535);
#106=CIRCLE('',#234,0.0214292936342272);
#107=CIRCLE('',#235,0.0214292936342272);
#108=CIRCLE('',#237,0.0015);
#109=CIRCLE('',#238,0.0015);
#110=CIRCLE('',#240,0.0015);
#111=CIRCLE('',#241,0.0015);
#112=CIRCLE('',#243,0.0015);
#113=CIRCLE('',#244,0.0015);
#114=CIRCLE('',#246,0.009535);
#115=CIRCLE('',#248,0.0015);
#116=CIRCLE('',#249,0.0015);
#117=CIRCLE('',#251,0.0148252863238402);
#118=CIRCLE('',#255,0.0148252863238402);
#119=EDGE_LOOP('',(#24));
#120=EDGE_LOOP('',(#25));
#121=EDGE_LOOP('',(#26));
#122=EDGE_LOOP('',(#27));
#123=EDGE_LOOP('',(#28));
#124=EDGE_LOOP('',(#29));
#125=EDGE_LOOP('',(#30));
#126=EDGE_LOOP('',(#31));
#127=EDGE_LOOP('',(#32));
#128=EDGE_LOOP('',(#33));
#129=EDGE_LOOP('',(#34));
#130=EDGE_LOOP('',(#35));
#131=EDGE_LOOP('',(#36));
#132=EDGE_LOOP('',(#37));
#133=EDGE_LOOP('',(#38));
#134=EDGE_LOOP('',(#39));
#135=EDGE_LOOP('',(#40));
#136=EDGE_LOOP('',(#41));
#137=EDGE_LOOP('',(#42));
#138=EDGE_LOOP('',(#43));
#139=EDGE_LOOP('',(#44));
#140=EDGE_LOOP('',(#45));
#141=EDGE_LOOP('',(#46));
#142=EDGE_LOOP('',(#47));
#143=EDGE_LOOP('',(#48));
#144=EDGE_LOOP('',(#49));
#145=EDGE_LOOP('',(#50));
#146=EDGE_LOOP('',(#51));
#147=EDGE_LOOP('',(#52));
#148=EDGE_LOOP('',(#53));
#149=EDGE_LOOP('',(#54));
#150=EDGE_LOOP('',(#55));
#151=EDGE_LOOP('',(#56));
#152=EDGE_LOOP('',(#57));
#153=EDGE_LOOP('',(#58));
#154=EDGE_LOOP('',(#59));
#155=EDGE_LOOP('',(#60));
#156=EDGE_LOOP('',(#61));
#157=FACE_BOUND('',#119,.T.);
#158=FACE_BOUND('',#120,.T.);
#159=FACE_BOUND('',#121,.T.);
#160=FACE_BOUND('',#122,.T.);
#161=FACE_BOUND('',#123,.T.);
#162=FACE_BOUND('',#124,.T.);
#163=FACE_BOUND('',#125,.T.);
#164=FACE_BOUND('',#126,.T.);
#165=FACE_BOUND('',#127,.T.);
#166=FACE_BOUND('',#128,.T.);
#167=FACE_BOUND('',#129,.T.);
#168=FACE_BOUND('',#130,.T.);
#169=FACE_BOUND('',#131,.T.);
#170=FACE_BOUND('',#132,.T.);
#171=FACE_BOUND('',#133,.T.);
#172=FACE_BOUND('',#134,.T.);
#173=FACE_BOUND('',#135,.T.);
#174=FACE_BOUND('',#136,.T.);
#175=FACE_BOUND('',#137,.T.);
#176=FACE_BOUND('',#138,.T.);
#177=FACE_BOUND('',#139,.T.);
#178=FACE_BOUND('',#140,.T.);
#179=FACE_BOUND('',#141,.T.);
#180=FACE_BOUND('',#142,.T.);
#181=FACE_BOUND('',#143,.T.);
#182=FACE_BOUND('',#144,.T.);
#183=FACE_BOUND('',#145,.T.);
#184=FACE_BOUND('',#146,.T.);
#185=FACE_BOUND('',#147,.T.);
#186=FACE_BOUND('',#148,.T.);
#187=FACE_BOUND('',#149,.T.);
#188=FACE_BOUND('',#150,.T.);
#189=FACE_BOUND('',#151,.T.);
#190=FACE_BOUND('',#152,.T.);
#191=FACE_BOUND('',#153,.T.);
#192=FACE_BOUND('',#154,.T.);
#193=FACE_BOUND('',#155,.T.);
#194=FACE_BOUND('',#156,.T.);
#195=B_SPLINE_SURFACE_WITH_KNOTS('',3,3,((#322,#323,#324,#325,#326,#327,
#328,#329,#330,#331,#332,#333,#334,#335,#336,#337,#338,#339,#340),(#341,
#342,#343,#344,#345,#346,#347,#348,#349,#350,#351,#352,#353,#354,#355,#356,
#357,#358,#359),(#360,#361,#362,#363,#364,#365,#366,#367,#368,#369,#370,
#371,#372,#373,#374,#375,#376,#377,#378),(#379,#380,#381,#382,#383,#384,
#385,#386,#387,#388,#389,#390,#391,#392,#393,#394,#395,#396,#397),(#398,
#399,#400,#401,#402,#403,#404,#405,#406,#407,#408,#409,#410,#411,#412,#413,
#414,#415,#416),(#417,#418,#419,#420,#421,#422,#423,#424,#425,#426,#427,
#428,#429,#430,#431,#432,#433,#434,#435),(#436,#437,#438,#439,#440,#441,
#442,#443,#444,#445,#446,#447,#448,#449,#450,#451,#452,#453,#454),(#455,
#456,#457,#458,#459,#460,#461,#462,#463,#464,#465,#466,#467,#468,#469,#470,
#471,#472,#473),(#474,#475,#476,#477,#478,#479,#480,#481,#482,#483,#484,
#485,#486,#487,#488,#489,#490,#491,#492)),.UNSPECIFIED.,.F.,.T.,.F.,(4,1,1,1,1,1,4),(1,1,1,1,1,1,1,1,1,1,1,1,1,1,1,1,1,1,1,1,1,1,1),(0.,0.232713420426029,0.349070130639044,0.465426840852058,0.581783551065073,0.698140261278088,0.930853681704117),(-1.17809724509617,-0.785398163397448,-0.392699081698725,0.,0.392699081698724,0.785398163397448,1.17809724509617,1.5707963267949,1.96349540849362,2.35619449019234,2.74889357189107,3.14159265358979,3.53429173528852,3.92699081698724,4.31968989868597,4.71238898038469,5.10508806208341,5.49778714378214,5.89048622548086,6.28318530717959,6.67588438887831,7.06858347057703,7.46128255227576),.UNSPECIFIED.);
#196=B_SPLINE_SURFACE_WITH_KNOTS('',3,3,((#497,#498,#499,#500,#501,#502,
#503,#504,#505,#506,#507,#508,#509,#510,#511,#512,#513,#514,#515),(#516,
#517,#518,#519,#520,#521,#522,#523,#524,#525,#526,#527,#528,#529,#530,#531,
#532,#533,#534),(#535,#536,#537,#538,#539,#540,#541,#542,#543,#544,#545,
#546,#547,#548,#549,#550,#551,#552,#553),(#554,#555,#556,#557,#558,#559,
#560,#561,#562,#563,#564,#565,#566,#567,#568,#569,#570,#571,#572),(#573,
#574,#575,#576,#577,#578,#579,#580,#581,#582,#583,#584,#585,#586,#587,#588,
#589,#590,#591)),.UNSPECIFIED.,.F.,.T.,.F.,(4,1,4),(1,1,1,1,1,1,1,1,1,1,1,1,1,1,1,1,1,1,1,1,1,1,1),(0.482596475453001,0.706900766190518,0.931205056928035),(-1.17809724509617,-0.785398163397448,-0.392699081698725,0.,0.392699081698724,0.785398163397448,1.17809724509617,1.5707963267949,1.96349540849362,2.35619449019234,2.74889357189107,3.14159265358979,3.53429173528852,3.92699081698724,4.31968989868597,4.71238898038469,5.10508806208341,5.49778714378214,5.89048622548086,6.28318530717959,6.67588438887831,7.06858347057703,7.46128255227576),.UNSPECIFIED.);
#197=B_SPLINE_SURFACE_WITH_KNOTS('',3,3,((#637,#638,#639,#640,#641,#642,
#643,#644,#645,#646,#647,#648,#649,#650,#651,#652,#653,#654,#655),(#656,
#657,#658,#659,#660,#661,#662,#663,#664,#665,#666,#667,#668,#669,#670,#671,
#672,#673,#674),(#675,#676,#677,#678,#679,#680,#681,#682,#683,#684,#685,
#686,#687,#688,#689,#690,#691,#692,#693),(#694,#695,#696,#697,#698,#699,
#700,#701,#702,#703,#704,#705,#706,#707,#708,#709,#710,#711,#712),(#713,
#714,#715,#716,#717,#718,#719,#720,#721,#722,#723,#724,#725,#726,#727,#728,
#729,#730,#731)),.UNSPECIFIED.,.F.,.T.,.F.,(4,1,4),(1,1,1,1,1,1,1,1,1,1,1,1,1,1,1,1,1,1,1,1,1,1,1),(0.,0.241298237726501,0.482596475453001),(-1.17809724509617,-0.785398163397448,-0.392699081698725,0.,0.392699081698724,0.785398163397448,1.17809724509617,1.5707963267949,1.96349540849362,2.35619449019234,2.74889357189107,3.14159265358979,3.53429173528852,3.92699081698724,4.31968989868597,4.71238898038469,5.10508806208341,5.49778714378214,5.89048622548086,6.28318530717959,6.67588438887831,7.06858347057703,7.46128255227576),.UNSPECIFIED.);
#198=ADVANCED_FACE('',(#157,#158),#195,.F.);
#199=ADVANCED_FACE('',(#159,#160),#196,.T.);
#200=ADVANCED_FACE('',(#161,#162),#21,.T.);
#201=ADVANCED_FACE('',(#163,#164),#13,.T.);
#202=ADVANCED_FACE('',(#165,#166),#14,.F.);
#203=ADVANCED_FACE('',(#167,#168),#15,.F.);
#204=ADVANCED_FACE('',(#169,#170),#16,.F.);
#205=ADVANCED_FACE('',(#171,#172),#17,.F.);
#206=ADVANCED_FACE('',(#173,#174),#18,.F.);
#207=ADVANCED_FACE('',(#175,#176,#177,#178,#179,#180),#22,.T.);
#208=ADVANCED_FACE('',(#181,#182,#183,#184,#185,#186),#23,.F.);
#209=ADVANCED_FACE('',(#187,#188),#19,.F.);
#210=ADVANCED_FACE('',(#189,#190),#20,.T.);
#211=ADVANCED_FACE('',(#191,#192),#197,.T.);
#212=ADVANCED_FACE('',(#193,#194),#12,.F.);
#213=CLOSED_SHELL('',(#198,#199,#200,#201,#202,#203,#204,#205,#206,#207,#208,#209,#210,#211,#212));
#214=STYLED_ITEM('',(#215),#222);
#215=PRESENTATION_STYLE_ASSIGNMENT((#216));
#216=SURFACE_STYLE_USAGE(.BOTH.,#217);
#217=SURFACE_SIDE_STYLE('',(#218));
#218=SURFACE_STYLE_FILL_AREA(#219);
#219=FILL_AREA_STYLE('',(#220));
#220=FILL_AREA_STYLE_COLOUR('',#221);
#221=COLOUR_RGB('',0.647058823529412,0.647058823529412,0.647058823529412);
#222=MANIFOLD_SOLID_BREP('Part 4',#213);
#223=SHAPE_DEFINITION_REPRESENTATION(#739,#224);
#224=SHAPE_REPRESENTATION('Part 4',(#225),#734);
#225=AXIS2_PLACEMENT_3D('',#321,#257,#258);
#226=AXIS2_PLACEMENT_3D('',#493,#259,#260);
#227=AXIS2_PLACEMENT_3D('',#495,#261,#262);
#228=AXIS2_PLACEMENT_3D('',#592,#263,#264);
#229=AXIS2_PLACEMENT_3D('',#594,#265,#266);
#230=AXIS2_PLACEMENT_3D('',#596,#267,#268);
#231=AXIS2_PLACEMENT_3D('',#597,#269,#270);
#232=AXIS2_PLACEMENT_3D('',#599,#271,#272);
#233=AXIS2_PLACEMENT_3D('',#601,#273,#274);
#234=AXIS2_PLACEMENT_3D('',#602,#275,#276);
#235=AXIS2_PLACEMENT_3D('',#604,#277,#278);
#236=AXIS2_PLACEMENT_3D('',#606,#279,#280);
#237=AXIS2_PLACEMENT_3D('',#607,#281,#282);
#238=AXIS2_PLACEMENT_3D('',#609,#283,#284);
#239=AXIS2_PLACEMENT_3D('',#611,#285,#286);
#240=AXIS2_PLACEMENT_3D('',#612,#287,#288);
#241=AXIS2_PLACEMENT_3D('',#614,#289,#290);
#242=AXIS2_PLACEMENT_3D('',#616,#291,#292);
#243=AXIS2_PLACEMENT_3D('',#617,#293,#294);
#244=AXIS2_PLACEMENT_3D('',#619,#295,#296);
#245=AXIS2_PLACEMENT_3D('',#621,#297,#298);
#246=AXIS2_PLACEMENT_3D('',#622,#299,#300);
#247=AXIS2_PLACEMENT_3D('',#624,#301,#302);
#248=AXIS2_PLACEMENT_3D('',#625,#303,#304);
#249=AXIS2_PLACEMENT_3D('',#627,#305,#306);
#250=AXIS2_PLACEMENT_3D('',#629,#307,#308);
#251=AXIS2_PLACEMENT_3D('',#630,#309,#310);
#252=AXIS2_PLACEMENT_3D('',#632,#311,#312);
#253=AXIS2_PLACEMENT_3D('',#633,#313,#314);
#254=AXIS2_PLACEMENT_3D('',#634,#315,#316);
#255=AXIS2_PLACEMENT_3D('',#635,#317,#318);
#256=AXIS2_PLACEMENT_3D('',#732,#319,#320);
#257=DIRECTION('',(0.,0.,1.));
#258=DIRECTION('',(1.,0.,0.));
#259=DIRECTION('',(0.,1.,0.));
#260=DIRECTION('',(0.,0.,1.));
#261=DIRECTION('',(0.,-1.,0.));
#262=DIRECTION('',(0.,0.,-1.));
#263=DIRECTION('',(0.,1.,0.));
#264=DIRECTION('',(0.,0.,1.));
#265=DIRECTION('',(0.,-1.,0.));
#266=DIRECTION('',(0.,0.,-1.));
#267=DIRECTION('',(0.,-1.,0.));
#268=DIRECTION('',(1.,0.,0.));
#269=DIRECTION('',(0.,-1.,0.));
#270=DIRECTION('',(0.,0.,-1.));
#271=DIRECTION('',(0.,-1.,0.));
#272=DIRECTION('',(0.,0.,-1.));
#273=DIRECTION('',(0.,1.,0.));
#274=DIRECTION('',(0.,0.,1.));
#275=DIRECTION('',(0.,-1.,0.));
#276=DIRECTION('',(0.,0.,-1.));
#277=DIRECTION('',(0.,-1.,0.));
#278=DIRECTION('',(0.,0.,-1.));
#279=DIRECTION('',(0.,1.,0.));
#280=DIRECTION('',(0.,0.,1.));
#281=DIRECTION('',(0.,1.,0.));
#282=DIRECTION('',(0.,0.,-1.));
#283=DIRECTION('',(0.,1.,0.));
#284=DIRECTION('',(0.,0.,-1.));
#285=DIRECTION('',(0.,1.,0.));
#286=DIRECTION('',(0.,0.,1.));
#287=DIRECTION('',(0.,-1.,0.));
#288=DIRECTION('',(0.,0.,-1.));
#289=DIRECTION('',(0.,-1.,0.));
#290=DIRECTION('',(0.,0.,-1.));
#291=DIRECTION('',(0.,1.,0.));
#292=DIRECTION('',(0.,0.,1.));
#293=DIRECTION('',(0.,-1.,0.));
#294=DIRECTION('',(0.,0.,-1.));
#295=DIRECTION('',(0.,-1.,0.));
#296=DIRECTION('',(0.,0.,-1.));
#297=DIRECTION('',(0.,1.,0.));
#298=DIRECTION('',(0.,0.,1.));
#299=DIRECTION('',(0.,-1.,0.));
#300=DIRECTION('',(0.,0.,-1.));
#301=DIRECTION('',(0.,1.,0.));
#302=DIRECTION('',(0.,0.,1.));
#303=DIRECTION('',(0.,1.,0.));
#304=DIRECTION('',(0.,0.,-1.));
#305=DIRECTION('',(0.,1.,0.));
#306=DIRECTION('',(0.,0.,-1.));
#307=DIRECTION('',(0.,-1.,0.));
#308=DIRECTION('',(1.,0.,0.));
#309=DIRECTION('',(0.,-1.,0.));
#310=DIRECTION('',(0.,0.,-1.));
#311=DIRECTION('',(0.,-1.,0.));
#312=DIRECTION('',(1.,0.,0.));
#313=DIRECTION('',(0.,1.,0.));
#314=DIRECTION('',(0.,0.,1.));
#315=DIRECTION('',(0.,1.,0.));
#316=DIRECTION('',(0.,0.,1.));
#317=DIRECTION('',(0.,1.,0.));
#318=DIRECTION('',(0.,0.,1.));
#319=DIRECTION('',(0.,-1.,0.));
#320=DIRECTION('',(0.,0.,-1.));
#321=CARTESIAN_POINT('',(0.,0.,0.));
#322=CARTESIAN_POINT('',(-0.058421820585997,-0.0666664093732834,0.011882326010281));
#323=CARTESIAN_POINT('',(-0.0535,-0.0666664093732834,0.0128613369948595));
#324=CARTESIAN_POINT('',(-0.048578179414003,-0.0666664093732834,0.0118823260102809));
#325=CARTESIAN_POINT('',(-0.0444056613958094,-0.0666664093732834,0.00909433860419059));
#326=CARTESIAN_POINT('',(-0.0416176739897191,-0.0666664093732834,0.00492182058599695));
#327=CARTESIAN_POINT('',(-0.0406386630051405,-0.0666664093732834,2.06337225951148E-18));
#328=CARTESIAN_POINT('',(-0.0416176739897191,-0.0666664093732834,-0.00492182058599695));
#329=CARTESIAN_POINT('',(-0.0444056613958094,-0.0666664093732834,-0.00909433860419059));
#330=CARTESIAN_POINT('',(-0.048578179414003,-0.0666664093732834,-0.0118823260102809));
#331=CARTESIAN_POINT('',(-0.0535,-0.0666664093732834,-0.0128613369948595));
#332=CARTESIAN_POINT('',(-0.058421820585997,-0.0666664093732834,-0.0118823260102809));
#333=CARTESIAN_POINT('',(-0.0625943386041906,-0.0666664093732834,-0.00909433860419059));
#334=CARTESIAN_POINT('',(-0.065382326010281,-0.0666664093732834,-0.00492182058599695));
#335=CARTESIAN_POINT('',(-0.0663613369948595,-0.0666664093732834,-5.61752250619052E-18));
#336=CARTESIAN_POINT('',(-0.065382326010281,-0.0666664093732834,0.00492182058599696));
#337=CARTESIAN_POINT('',(-0.0625943386041906,-0.0666664093732834,0.00909433860419059));
#338=CARTESIAN_POINT('',(-0.058421820585997,-0.0666664093732834,0.011882326010281));
#339=CARTESIAN_POINT('',(-0.0535,-0.0666664093732834,0.0128613369948595));
#340=CARTESIAN_POINT('',(-0.048578179414003,-0.0666664093732834,0.0118823260102809));
#341=CARTESIAN_POINT('',(-0.0583279397525319,-0.0692591867811921,0.0116556776288827));
#342=CARTESIAN_POINT('',(-0.0535,-0.069259186781192,0.0126160145546252));
#343=CARTESIAN_POINT('',(-0.0486720602474681,-0.0692591867811921,0.0116556776288827));
#344=CARTESIAN_POINT('',(-0.0445791305568763,-0.0692591867811921,0.00892086944312364));
#345=CARTESIAN_POINT('',(-0.0418443223711173,-0.0692591867811921,0.00482793975253189));
#346=CARTESIAN_POINT('',(-0.0408839854453748,-0.0692591867811921,-1.7326905969034E-17));
#347=CARTESIAN_POINT('',(-0.0418443223711173,-0.0692591867811921,-0.00482793975253191));
#348=CARTESIAN_POINT('',(-0.0445791305568764,-0.0692591867811921,-0.00892086944312366));
#349=CARTESIAN_POINT('',(-0.0486720602474681,-0.0692591867811921,-0.0116556776288827));
#350=CARTESIAN_POINT('',(-0.0535,-0.0692591867811921,-0.0126160145546252));
#351=CARTESIAN_POINT('',(-0.0583279397525319,-0.0692591867811921,-0.0116556776288827));
#352=CARTESIAN_POINT('',(-0.0624208694431237,-0.0692591867811921,-0.00892086944312363));
#353=CARTESIAN_POINT('',(-0.0651556776288827,-0.0692591867811921,-0.0048279397525319));
#354=CARTESIAN_POINT('',(-0.0661160145546252,-0.0692591867811921,1.65882932390282E-17));
#355=CARTESIAN_POINT('',(-0.0651556776288827,-0.0692591867811921,0.00482793975253191));
#356=CARTESIAN_POINT('',(-0.0624208694431236,-0.0692591867811921,0.00892086944312368));
#357=CARTESIAN_POINT('',(-0.0583279397525319,-0.0692591867811921,0.0116556776288827));
#358=CARTESIAN_POINT('',(-0.0535,-0.069259186781192,0.0126160145546252));
#359=CARTESIAN_POINT('',(-0.0486720602474681,-0.0692591867811921,0.0116556776288827));
#360=CARTESIAN_POINT('',(-0.0581872309780773,-0.0731485690322714,0.0113159765972498));
#361=CARTESIAN_POINT('',(-0.0535,-0.0731485690322714,0.0122483248075544));
#362=CARTESIAN_POINT('',(-0.0488127690219226,-0.0731485690322714,0.0113159765972498));
#363=CARTESIAN_POINT('',(-0.0448391264704029,-0.0731485690322714,0.00866087352959714));
#364=CARTESIAN_POINT('',(-0.0421840234027502,-0.0731485690322714,0.0046872309780774));
#365=CARTESIAN_POINT('',(-0.0412516751924456,-0.0731485690322714,1.58090229275543E-17));
#366=CARTESIAN_POINT('',(-0.0421840234027502,-0.0731485690322714,-0.00468723097807738));
#367=CARTESIAN_POINT('',(-0.0448391264704028,-0.0731485690322714,-0.00866087352959712));
#368=CARTESIAN_POINT('',(-0.0488127690219226,-0.0731485690322714,-0.0113159765972497));
#369=CARTESIAN_POINT('',(-0.0534999999999999,-0.0731485690322714,-0.0122483248075544));
#370=CARTESIAN_POINT('',(-0.0581872309780774,-0.0731485690322714,-0.0113159765972498));
#371=CARTESIAN_POINT('',(-0.0621608735295971,-0.0731485690322714,-0.00866087352959715));
#372=CARTESIAN_POINT('',(-0.0648159765972498,-0.0731485690322714,-0.0046872309780774));
#373=CARTESIAN_POINT('',(-0.0657483248075544,-0.0731485690322714,-2.2056737946502E-17));
#374=CARTESIAN_POINT('',(-0.0648159765972498,-0.0731485690322714,0.00468723097807738));
#375=CARTESIAN_POINT('',(-0.0621608735295971,-0.0731485690322714,0.00866087352959712));
#376=CARTESIAN_POINT('',(-0.0581872309780773,-0.0731485690322714,0.0113159765972498));
#377=CARTESIAN_POINT('',(-0.0535,-0.0731485690322714,0.0122483248075544));
#378=CARTESIAN_POINT('',(-0.0488127690219226,-0.0731485690322714,0.0113159765972498));
#379=CARTESIAN_POINT('',(-0.0579014354492421,-0.078145736898988,0.01062600515547));
#380=CARTESIAN_POINT('',(-0.0535,-0.078145736898988,0.0115015051005475));
#381=CARTESIAN_POINT('',(-0.0490985645507579,-0.078145736898988,0.01062600515547));
#382=CARTESIAN_POINT('',(-0.0453672077495512,-0.078145736898988,0.00813279225044881));
#383=CARTESIAN_POINT('',(-0.04287399484453,-0.078145736898988,0.0044014354492421));
#384=CARTESIAN_POINT('',(-0.0419984948994525,-0.078145736898988,-1.1827968075459E-17));
#385=CARTESIAN_POINT('',(-0.04287399484453,-0.078145736898988,-0.00440143544924213));
#386=CARTESIAN_POINT('',(-0.0453672077495512,-0.078145736898988,-0.00813279225044883));
#387=CARTESIAN_POINT('',(-0.0490985645507579,-0.078145736898988,-0.01062600515547));
#388=CARTESIAN_POINT('',(-0.0535,-0.078145736898988,-0.0115015051005475));
#389=CARTESIAN_POINT('',(-0.0579014354492422,-0.078145736898988,-0.01062600515547));
#390=CARTESIAN_POINT('',(-0.0616327922504488,-0.078145736898988,-0.00813279225044881));
#391=CARTESIAN_POINT('',(-0.0641260051554701,-0.078145736898988,-0.00440143544924211));
#392=CARTESIAN_POINT('',(-0.0650015051005475,-0.078145736898988,1.36338423190052E-17));
#393=CARTESIAN_POINT('',(-0.0641260051554701,-0.078145736898988,0.00440143544924213));
#394=CARTESIAN_POINT('',(-0.0616327922504488,-0.078145736898988,0.00813279225044884));
#395=CARTESIAN_POINT('',(-0.0579014354492421,-0.078145736898988,0.01062600515547));
#396=CARTESIAN_POINT('',(-0.0535,-0.078145736898988,0.0115015051005475));
#397=CARTESIAN_POINT('',(-0.0490985645507579,-0.078145736898988,0.01062600515547));
#398=CARTESIAN_POINT('',(-0.057614744401489,-0.0817545920489714,0.00993387173977368));
#399=CARTESIAN_POINT('',(-0.0535,-0.0817545920489713,0.0107523452898361));
#400=CARTESIAN_POINT('',(-0.0493852555985109,-0.0817545920489714,0.00993387173977368));
#401=CARTESIAN_POINT('',(-0.0458969437318977,-0.0817545920489713,0.00760305626810232));
#402=CARTESIAN_POINT('',(-0.0435661282602263,-0.0817545920489713,0.00411474440148908));
#403=CARTESIAN_POINT('',(-0.0427476547101639,-0.0817545920489713,9.6900569165892E-18));
#404=CARTESIAN_POINT('',(-0.0435661282602263,-0.0817545920489713,-0.00411474440148906));
#405=CARTESIAN_POINT('',(-0.0458969437318977,-0.0817545920489714,-0.0076030562681023));
#406=CARTESIAN_POINT('',(-0.0493852555985109,-0.0817545920489713,-0.00993387173977367));
#407=CARTESIAN_POINT('',(-0.0535,-0.0817545920489713,-0.0107523452898361));
#408=CARTESIAN_POINT('',(-0.057614744401489,-0.0817545920489713,-0.00993387173977369));
#409=CARTESIAN_POINT('',(-0.0611030562681023,-0.0817545920489714,-0.00760305626810232));
#410=CARTESIAN_POINT('',(-0.0634338717397737,-0.0817545920489713,-0.00411474440148908));
#411=CARTESIAN_POINT('',(-0.0642523452898361,-0.0817545920489714,-9.33769121053141E-18));
#412=CARTESIAN_POINT('',(-0.0634338717397737,-0.0817545920489714,0.00411474440148906));
#413=CARTESIAN_POINT('',(-0.0611030562681023,-0.0817545920489714,0.00760305626810231));
#414=CARTESIAN_POINT('',(-0.057614744401489,-0.0817545920489714,0.00993387173977368));
#415=CARTESIAN_POINT('',(-0.0535,-0.0817545920489713,0.0107523452898361));
#416=CARTESIAN_POINT('',(-0.0493852555985109,-0.0817545920489714,0.00993387173977368));
#417=CARTESIAN_POINT('',(-0.0572261578246519,-0.0851676394700933,0.00899574075581728));
#418=CARTESIAN_POINT('',(-0.0535,-0.0851676394700932,0.009736919629949));
#419=CARTESIAN_POINT('',(-0.0497738421753481,-0.0851676394700933,0.00899574075581725));
#420=CARTESIAN_POINT('',(-0.0466149581017947,-0.0851676394700932,0.00688504189820534));
#421=CARTESIAN_POINT('',(-0.0445042592441828,-0.0851676394700932,0.00372615782465189));
#422=CARTESIAN_POINT('',(-0.043763080370051,-0.0851676394700932,-1.33356867215717E-17));
#423=CARTESIAN_POINT('',(-0.0445042592441827,-0.0851676394700932,-0.00372615782465192));
#424=CARTESIAN_POINT('',(-0.0466149581017947,-0.0851676394700932,-0.00688504189820536));
#425=CARTESIAN_POINT('',(-0.0497738421753481,-0.0851676394700932,-0.00899574075581727));
#426=CARTESIAN_POINT('',(-0.0535,-0.0851676394700933,-0.00973691962994901));
#427=CARTESIAN_POINT('',(-0.0572261578246519,-0.0851676394700932,-0.00899574075581725));
#428=CARTESIAN_POINT('',(-0.0603850418982054,-0.0851676394700933,-0.00688504189820534));
#429=CARTESIAN_POINT('',(-0.0624957407558173,-0.0851676394700933,-0.00372615782465189));
#430=CARTESIAN_POINT('',(-0.063236919629949,-0.0851676394700932,1.27190467359706E-17));
#431=CARTESIAN_POINT('',(-0.0624957407558173,-0.0851676394700933,0.00372615782465192));
#432=CARTESIAN_POINT('',(-0.0603850418982053,-0.0851676394700932,0.00688504189820536));
#433=CARTESIAN_POINT('',(-0.0572261578246519,-0.0851676394700933,0.00899574075581728));
#434=CARTESIAN_POINT('',(-0.0535,-0.0851676394700932,0.009736919629949));
#435=CARTESIAN_POINT('',(-0.0497738421753481,-0.0851676394700933,0.00899574075581725));
#436=CARTESIAN_POINT('',(-0.0565732186458247,-0.0894592850737921,0.00741940613488782));
#437=CARTESIAN_POINT('',(-0.0535,-0.089459285073792,0.0080307073312041));
#438=CARTESIAN_POINT('',(-0.0504267813541753,-0.089459285073792,0.00741940613488782));
#439=CARTESIAN_POINT('',(-0.047821432388381,-0.089459285073792,0.00567856761161896));
#440=CARTESIAN_POINT('',(-0.0460805938651122,-0.089459285073792,0.00307321864582469));
#441=CARTESIAN_POINT('',(-0.0454692926687959,-0.089459285073792,2.02610280983229E-17));
#442=CARTESIAN_POINT('',(-0.0460805938651122,-0.089459285073792,-0.00307321864582466));
#443=CARTESIAN_POINT('',(-0.047821432388381,-0.089459285073792,-0.00567856761161893));
#444=CARTESIAN_POINT('',(-0.0504267813541753,-0.089459285073792,-0.0074194061348878));
#445=CARTESIAN_POINT('',(-0.0535,-0.089459285073792,-0.00803070733120411));
#446=CARTESIAN_POINT('',(-0.0565732186458247,-0.089459285073792,-0.00741940613488782));
#447=CARTESIAN_POINT('',(-0.0591785676116189,-0.089459285073792,-0.00567856761161897));
#448=CARTESIAN_POINT('',(-0.0609194061348878,-0.089459285073792,-0.0030732186458247));
#449=CARTESIAN_POINT('',(-0.0615307073312041,-0.089459285073792,-1.95867898723084E-17));
#450=CARTESIAN_POINT('',(-0.0609194061348878,-0.0894592850737921,0.00307321864582466));
#451=CARTESIAN_POINT('',(-0.059178567611619,-0.089459285073792,0.00567856761161894));
#452=CARTESIAN_POINT('',(-0.0565732186458247,-0.0894592850737921,0.00741940613488782));
#453=CARTESIAN_POINT('',(-0.0535,-0.089459285073792,0.0080307073312041));
#454=CARTESIAN_POINT('',(-0.0504267813541753,-0.089459285073792,0.00741940613488782));
#455=CARTESIAN_POINT('',(-0.0559792617479023,-0.0924776822437331,0.00598546733645849));
#456=CARTESIAN_POINT('',(-0.0535,-0.0924776822437331,0.00647862316008754));
#457=CARTESIAN_POINT('',(-0.0510207382520977,-0.0924776822437331,0.00598546733645848));
#458=CARTESIAN_POINT('',(-0.0489189216307499,-0.0924776822437331,0.00458107836925012));
#459=CARTESIAN_POINT('',(-0.0475145326635415,-0.0924776822437331,0.00247926174790227));
#460=CARTESIAN_POINT('',(-0.0470213768399125,-0.0924776822437331,-8.9616085819505E-19));
#461=CARTESIAN_POINT('',(-0.0475145326635415,-0.0924776822437331,-0.00247926174790227));
#462=CARTESIAN_POINT('',(-0.0489189216307499,-0.0924776822437331,-0.00458107836925012));
#463=CARTESIAN_POINT('',(-0.0510207382520977,-0.0924776822437331,-0.00598546733645848));
#464=CARTESIAN_POINT('',(-0.0535,-0.0924776822437331,-0.00647862316008754));
#465=CARTESIAN_POINT('',(-0.0559792617479023,-0.0924776822437331,-0.00598546733645848));
#466=CARTESIAN_POINT('',(-0.0580810783692501,-0.0924776822437331,-0.00458107836925012));
#467=CARTESIAN_POINT('',(-0.0594854673364585,-0.0924776822437331,-0.00247926174790226));
#468=CARTESIAN_POINT('',(-0.0599786231600875,-0.0924776822437331,-2.83247817561838E-18));
#469=CARTESIAN_POINT('',(-0.0594854673364585,-0.0924776822437331,0.00247926174790227));
#470=CARTESIAN_POINT('',(-0.0580810783692501,-0.0924776822437331,0.00458107836925013));
#471=CARTESIAN_POINT('',(-0.0559792617479023,-0.0924776822437331,0.00598546733645849));
#472=CARTESIAN_POINT('',(-0.0535,-0.0924776822437331,0.00647862316008754));
#473=CARTESIAN_POINT('',(-0.0510207382520977,-0.0924776822437331,0.00598546733645848));
#474=CARTESIAN_POINT('',(-0.05557229026547,-0.0944688084363916,0.00500295126407146));
#475=CARTESIAN_POINT('',(-0.0535,-0.0944688084363916,0.00541515542667392));
#476=CARTESIAN_POINT('',(-0.05142770973453,-0.0944688084363916,0.00500295126407145));
#477=CARTESIAN_POINT('',(-0.0496709068766197,-0.0944688084363916,0.00382909312338025));
#478=CARTESIAN_POINT('',(-0.0484970487359286,-0.0944688084363916,0.00207229026547001));
#479=CARTESIAN_POINT('',(-0.0480848445733261,-0.0944688084363916,-6.03256865034513E-18));
#480=CARTESIAN_POINT('',(-0.0484970487359285,-0.0944688084363916,-0.00207229026547002));
#481=CARTESIAN_POINT('',(-0.0496709068766198,-0.0944688084363916,-0.00382909312338026));
#482=CARTESIAN_POINT('',(-0.05142770973453,-0.0944688084363916,-0.00500295126407146));
#483=CARTESIAN_POINT('',(-0.0535,-0.0944688084363916,-0.00541515542667392));
#484=CARTESIAN_POINT('',(-0.05557229026547,-0.0944688084363916,-0.00500295126407145));
#485=CARTESIAN_POINT('',(-0.0573290931233803,-0.0944688084363916,-0.00382909312338025));
#486=CARTESIAN_POINT('',(-0.0585029512640715,-0.0944688084363916,-0.00207229026547001));
#487=CARTESIAN_POINT('',(-0.0589151554266739,-0.0944688084363916,6.32564205009511E-18));
#488=CARTESIAN_POINT('',(-0.0585029512640715,-0.0944688084363917,0.00207229026547002));
#489=CARTESIAN_POINT('',(-0.0573290931233802,-0.0944688084363916,0.00382909312338027));
#490=CARTESIAN_POINT('',(-0.05557229026547,-0.0944688084363916,0.00500295126407146));
#491=CARTESIAN_POINT('',(-0.0535,-0.0944688084363916,0.00541515542667392));
#492=CARTESIAN_POINT('',(-0.05142770973453,-0.0944688084363916,0.00500295126407145));
#493=CARTESIAN_POINT('',(-0.0535,-0.0666664093732834,0.));
#494=CARTESIAN_POINT('',(-0.0535,-0.0666664093732834,0.012535));
#495=CARTESIAN_POINT('',(-0.0535,-0.0944701836633167,0.));
#496=CARTESIAN_POINT('',(-0.0535,-0.0944701836633167,-0.00528039651596903));
#497=CARTESIAN_POINT('',(-0.0584218205824847,-0.0828100421529303,0.0118823260018016));
#498=CARTESIAN_POINT('',(-0.0535,-0.0828100421529303,0.0128613369856815));
#499=CARTESIAN_POINT('',(-0.0485781794175153,-0.0828100421529303,0.0118823260018016));
#500=CARTESIAN_POINT('',(-0.0444056614022992,-0.0828100421529303,0.00909433859770076));
#501=CARTESIAN_POINT('',(-0.0416176739981984,-0.0828100421529303,0.00492182058248469));
#502=CARTESIAN_POINT('',(-0.0406386630143185,-0.0828100421529303,2.59869708217619E-18));
#503=CARTESIAN_POINT('',(-0.0416176739981984,-0.0828100421529303,-0.00492182058248469));
#504=CARTESIAN_POINT('',(-0.0444056614022992,-0.0828100421529303,-0.00909433859770076));
#505=CARTESIAN_POINT('',(-0.0485781794175153,-0.0828100421529303,-0.0118823260018016));
#506=CARTESIAN_POINT('',(-0.0535,-0.0828100421529303,-0.0128613369856815));
#507=CARTESIAN_POINT('',(-0.0584218205824847,-0.0828100421529303,-0.0118823260018016));
#508=CARTESIAN_POINT('',(-0.0625943385977007,-0.0828100421529303,-0.00909433859770076));
#509=CARTESIAN_POINT('',(-0.0653823260018016,-0.0828100421529303,-0.00492182058248469));
#510=CARTESIAN_POINT('',(-0.0663613369856815,-0.0828100421529303,-4.13352078260099E-18));
#511=CARTESIAN_POINT('',(-0.0653823260018016,-0.0828100421529303,0.00492182058248469));
#512=CARTESIAN_POINT('',(-0.0625943385977007,-0.0828100421529303,0.00909433859770077));
#513=CARTESIAN_POINT('',(-0.0584218205824847,-0.0828100421529303,0.0118823260018016));
#514=CARTESIAN_POINT('',(-0.0535,-0.0828100421529303,0.0128613369856815));
#515=CARTESIAN_POINT('',(-0.0485781794175153,-0.0828100421529303,0.0118823260018016));
#516=CARTESIAN_POINT('',(-0.0581846205228181,-0.0851831487268774,0.0113096744007587));
#517=CARTESIAN_POINT('',(-0.0535,-0.0851831487268773,0.0122415033592277));
#518=CARTESIAN_POINT('',(-0.048815379477182,-0.0851831487268774,0.0113096744007587));
#519=CARTESIAN_POINT('',(-0.0448439499627721,-0.0851831487268774,0.00865605003722784));
#520=CARTESIAN_POINT('',(-0.0421903255992413,-0.0851831487268774,0.00468462052281805));
#521=CARTESIAN_POINT('',(-0.0412584966407722,-0.0851831487268774,6.44422666271072E-18));
#522=CARTESIAN_POINT('',(-0.0421903255992413,-0.0851831487268774,-0.00468462052281804));
#523=CARTESIAN_POINT('',(-0.0448439499627721,-0.0851831487268774,-0.00865605003722784));
#524=CARTESIAN_POINT('',(-0.0488153794771819,-0.0851831487268774,-0.0113096744007587));
#525=CARTESIAN_POINT('',(-0.0535,-0.0851831487268774,-0.0122415033592277));
#526=CARTESIAN_POINT('',(-0.0581846205228181,-0.0851831487268774,-0.0113096744007587));
#527=CARTESIAN_POINT('',(-0.0621560500372278,-0.0851831487268774,-0.00865605003722784));
#528=CARTESIAN_POINT('',(-0.0648096744007587,-0.0851831487268774,-0.00468462052281805));
#529=CARTESIAN_POINT('',(-0.0657415033592277,-0.0851831487268774,-1.07200489804504E-17));
#530=CARTESIAN_POINT('',(-0.0648096744007587,-0.0851831487268774,0.00468462052281805));
#531=CARTESIAN_POINT('',(-0.0621560500372278,-0.0851831487268774,0.00865605003722784));
#532=CARTESIAN_POINT('',(-0.0581846205228181,-0.0851831487268774,0.0113096744007587));
#533=CARTESIAN_POINT('',(-0.0535,-0.0851831487268773,0.0122415033592277));
#534=CARTESIAN_POINT('',(-0.048815379477182,-0.0851831487268774,0.0113096744007587));
#535=CARTESIAN_POINT('',(-0.0575540310546536,-0.089623589325814,0.00978729675442641));
#536=CARTESIAN_POINT('',(-0.0535,-0.089623589325814,0.0105936936689382));
#537=CARTESIAN_POINT('',(-0.0494459689453464,-0.089623589325814,0.00978729675442638));
#538=CARTESIAN_POINT('',(-0.0460091273688808,-0.089623589325814,0.00749087263111917));
#539=CARTESIAN_POINT('',(-0.0437127032455736,-0.089623589325814,0.00405403105465357));
#540=CARTESIAN_POINT('',(-0.0429063063310618,-0.089623589325814,-1.73912804730253E-17));
#541=CARTESIAN_POINT('',(-0.0437127032455736,-0.089623589325814,-0.0040540310546536));
#542=CARTESIAN_POINT('',(-0.0460091273688809,-0.089623589325814,-0.0074908726311192));
#543=CARTESIAN_POINT('',(-0.0494459689453464,-0.089623589325814,-0.00978729675442639));
#544=CARTESIAN_POINT('',(-0.0535,-0.089623589325814,-0.0105936936689382));
#545=CARTESIAN_POINT('',(-0.0575540310546536,-0.089623589325814,-0.00978729675442638));
#546=CARTESIAN_POINT('',(-0.0609908726311192,-0.089623589325814,-0.00749087263111918));
#547=CARTESIAN_POINT('',(-0.0632872967544264,-0.089623589325814,-0.00405403105465358));
#548=CARTESIAN_POINT('',(-0.0640936936689382,-0.089623589325814,1.95969542676755E-17));
#549=CARTESIAN_POINT('',(-0.0632872967544264,-0.089623589325814,0.0040540310546536));
#550=CARTESIAN_POINT('',(-0.0609908726311191,-0.089623589325814,0.0074908726311192));
#551=CARTESIAN_POINT('',(-0.0575540310546536,-0.089623589325814,0.00978729675442641));
#552=CARTESIAN_POINT('',(-0.0535,-0.089623589325814,0.0105936936689382));
#553=CARTESIAN_POINT('',(-0.0494459689453464,-0.089623589325814,0.00978729675442638));
#554=CARTESIAN_POINT('',(-0.0567676385531813,-0.0936003832323599,0.00788877731202338));
#555=CARTESIAN_POINT('',(-0.0535,-0.0936003832323599,0.0085387510323777));
#556=CARTESIAN_POINT('',(-0.0502323614468188,-0.0936003832323599,0.00788877731202338));
#557=CARTESIAN_POINT('',(-0.0474621912421421,-0.0936003832323599,0.00603780875785791));
#558=CARTESIAN_POINT('',(-0.0456112226879766,-0.0936003832323599,0.00326763855318125));
#559=CARTESIAN_POINT('',(-0.0449612489676223,-0.0936003832323599,7.50132378088408E-18));
#560=CARTESIAN_POINT('',(-0.0456112226879766,-0.0936003832323599,-0.00326763855318125));
#561=CARTESIAN_POINT('',(-0.0474621912421421,-0.0936003832323599,-0.00603780875785791));
#562=CARTESIAN_POINT('',(-0.0502323614468187,-0.0936003832323599,-0.00788877731202338));
#563=CARTESIAN_POINT('',(-0.0535,-0.0936003832323599,-0.0085387510323777));
#564=CARTESIAN_POINT('',(-0.0567676385531813,-0.0936003832323599,-0.00788877731202339));
#565=CARTESIAN_POINT('',(-0.0595378087578579,-0.0936003832323599,-0.00603780875785791));
#566=CARTESIAN_POINT('',(-0.0613887773120234,-0.0936003832323599,-0.00326763855318126));
#567=CARTESIAN_POINT('',(-0.0620387510323777,-0.0936003832323599,-6.85757874097082E-18));
#568=CARTESIAN_POINT('',(-0.0613887773120234,-0.0936003832323599,0.00326763855318125));
#569=CARTESIAN_POINT('',(-0.0595378087578579,-0.0936003832323599,0.00603780875785791));
#570=CARTESIAN_POINT('',(-0.0567676385531813,-0.0936003832323599,0.00788877731202338));
#571=CARTESIAN_POINT('',(-0.0535,-0.0936003832323599,0.0085387510323777));
#572=CARTESIAN_POINT('',(-0.0502323614468188,-0.0936003832323599,0.00788877731202338));
#573=CARTESIAN_POINT('',(-0.056371525933547,-0.0955397312356116,0.00693247685347517));
#574=CARTESIAN_POINT('',(-0.0535,-0.0955397312356115,0.00750365887490907));
#575=CARTESIAN_POINT('',(-0.050628474066453,-0.0955397312356115,0.00693247685347517));
#576=CARTESIAN_POINT('',(-0.0481941119258412,-0.0955397312356115,0.00530588807415883));
#577=CARTESIAN_POINT('',(-0.0465675231465248,-0.0955397312356115,0.00287152593354697));
#578=CARTESIAN_POINT('',(-0.0459963411250909,-0.0955397312356115,6.81014489592457E-19));
#579=CARTESIAN_POINT('',(-0.0465675231465248,-0.0955397312356115,-0.00287152593354697));
#580=CARTESIAN_POINT('',(-0.0481941119258412,-0.0955397312356115,-0.00530588807415883));
#581=CARTESIAN_POINT('',(-0.050628474066453,-0.0955397312356115,-0.00693247685347516));
#582=CARTESIAN_POINT('',(-0.0535,-0.0955397312356115,-0.00750365887490908));
#583=CARTESIAN_POINT('',(-0.056371525933547,-0.0955397312356115,-0.00693247685347517));
#584=CARTESIAN_POINT('',(-0.0588058880741588,-0.0955397312356115,-0.00530588807415883));
#585=CARTESIAN_POINT('',(-0.0604324768534752,-0.0955397312356115,-0.00287152593354698));
#586=CARTESIAN_POINT('',(-0.0610036588749091,-0.0955397312356115,-2.37508038410106E-18));
#587=CARTESIAN_POINT('',(-0.0604324768534752,-0.0955397312356116,0.00287152593354697));
#588=CARTESIAN_POINT('',(-0.0588058880741588,-0.0955397312356115,0.00530588807415883));
#589=CARTESIAN_POINT('',(-0.056371525933547,-0.0955397312356116,0.00693247685347517));
#590=CARTESIAN_POINT('',(-0.0535,-0.0955397312356115,0.00750365887490907));
#591=CARTESIAN_POINT('',(-0.050628474066453,-0.0955397312356115,0.00693247685347517));
#592=CARTESIAN_POINT('',(-0.0535,-0.0828100421529303,0.));
#593=CARTESIAN_POINT('',(-0.0535,-0.0828100421529303,0.0125349999910549));
#594=CARTESIAN_POINT('',(-0.0535,-0.0955410885109934,0.));
#595=CARTESIAN_POINT('',(-0.0535,-0.0955397312356115,-0.00731326486776444));
#596=CARTESIAN_POINT('',(-0.0535,-0.0666,0.));
#597=CARTESIAN_POINT('',(-0.0535,-0.0666,5.83850361493501E-19));
#598=CARTESIAN_POINT('',(-0.0535,-0.0666,-0.009535));
#599=CARTESIAN_POINT('',(-0.0535,-0.0666,0.));
#600=CARTESIAN_POINT('',(-0.0535,-0.0666,-0.012535));
#601=CARTESIAN_POINT('',(-0.0535,-0.0666,1.89601615435076E-18));
#602=CARTESIAN_POINT('',(-0.0535,-0.0666,1.89601615435076E-18));
#603=CARTESIAN_POINT('',(-0.0535,-0.0666,-0.0214292936342272));
#604=CARTESIAN_POINT('',(-0.0535,-0.063,1.89601615435076E-18));
#605=CARTESIAN_POINT('',(-0.0535,-0.063,-0.0214292936342272));
#606=CARTESIAN_POINT('',(-0.0715,-0.0666,9.18485099360515E-20));
#607=CARTESIAN_POINT('',(-0.0715,-0.0666,9.18485099360515E-20));
#608=CARTESIAN_POINT('',(-0.0715,-0.0666,-0.0015));
#609=CARTESIAN_POINT('',(-0.0715,-0.063,9.18485099360515E-20));
#610=CARTESIAN_POINT('',(-0.0715,-0.063,-0.0015));
#611=CARTESIAN_POINT('',(-0.0355,-0.0666,9.18485099360515E-20));
#612=CARTESIAN_POINT('',(-0.0355,-0.0666,9.18485099360515E-20));
#613=CARTESIAN_POINT('',(-0.0355,-0.0666,-0.0015));
#614=CARTESIAN_POINT('',(-0.0355,-0.063,9.18485099360515E-20));
#615=CARTESIAN_POINT('',(-0.0355,-0.063,-0.0015));
#616=CARTESIAN_POINT('',(-0.0535,-0.0666,0.018));
#617=CARTESIAN_POINT('',(-0.0535,-0.0666,0.018));
#618=CARTESIAN_POINT('',(-0.0535,-0.0666,0.0165));
#619=CARTESIAN_POINT('',(-0.0535,-0.063,0.018));
#620=CARTESIAN_POINT('',(-0.0535,-0.063,0.0165));
#621=CARTESIAN_POINT('',(-0.0535,-0.0666,5.83850361493501E-19));
#622=CARTESIAN_POINT('',(-0.0535,-0.063,5.83850361493501E-19));
#623=CARTESIAN_POINT('',(-0.0535,-0.063,-0.009535));
#624=CARTESIAN_POINT('',(-0.0535,-0.0666,-0.018));
#625=CARTESIAN_POINT('',(-0.0535,-0.0666,-0.018));
#626=CARTESIAN_POINT('',(-0.0535,-0.0666,-0.0195));
#627=CARTESIAN_POINT('',(-0.0535,-0.063,-0.018));
#628=CARTESIAN_POINT('',(-0.0535,-0.063,-0.0195));
#629=CARTESIAN_POINT('',(-0.0535,-0.0666,0.));
#630=CARTESIAN_POINT('',(-0.0535,-0.0666,0.));
#631=CARTESIAN_POINT('',(-0.0535,-0.0666,-0.0148252863238402));
#632=CARTESIAN_POINT('',(-0.0535,-0.063,0.));
#633=CARTESIAN_POINT('',(-0.0535,-0.0841706953942776,0.));
#634=CARTESIAN_POINT('',(-0.0535,-0.0841706953942776,0.));
#635=CARTESIAN_POINT('',(-0.0535,-0.0668775693951402,0.));
#636=CARTESIAN_POINT('',(-0.0535,-0.0668775693951402,0.0148252863238402));
#637=CARTESIAN_POINT('',(-0.0593210928936558,-0.0668775693951402,0.0140533614116976));
#638=CARTESIAN_POINT('',(-0.0535,-0.0668775693951402,0.0152112487799115));
#639=CARTESIAN_POINT('',(-0.0476789071063442,-0.0668775693951402,0.0140533614116975));
#640=CARTESIAN_POINT('',(-0.042744022837409,-0.0668775693951402,0.010755977162591));
#641=CARTESIAN_POINT('',(-0.0394466385883025,-0.0668775693951402,0.00582109289365583));
#642=CARTESIAN_POINT('',(-0.0382887512200885,-0.0668775693951402,8.53809210832335E-19));
#643=CARTESIAN_POINT('',(-0.0394466385883025,-0.0668775693951402,-0.00582109289365582));
#644=CARTESIAN_POINT('',(-0.042744022837409,-0.0668775693951402,-0.010755977162591));
#645=CARTESIAN_POINT('',(-0.0476789071063442,-0.0668775693951402,-0.0140533614116975));
#646=CARTESIAN_POINT('',(-0.0535,-0.0668775693951402,-0.0152112487799115));
#647=CARTESIAN_POINT('',(-0.0593210928936558,-0.0668775693951402,-0.0140533614116975));
#648=CARTESIAN_POINT('',(-0.064255977162591,-0.0668775693951402,-0.010755977162591));
#649=CARTESIAN_POINT('',(-0.0675533614116975,-0.0668775693951402,-0.00582109289365583));
#650=CARTESIAN_POINT('',(-0.0687112487799115,-0.0668775693951402,-4.65529307810963E-18));
#651=CARTESIAN_POINT('',(-0.0675533614116976,-0.0668775693951402,0.00582109289365583));
#652=CARTESIAN_POINT('',(-0.064255977162591,-0.0668775693951402,0.010755977162591));
#653=CARTESIAN_POINT('',(-0.0593210928936558,-0.0668775693951402,0.0140533614116976));
#654=CARTESIAN_POINT('',(-0.0535,-0.0668775693951402,0.0152112487799115));
#655=CARTESIAN_POINT('',(-0.0476789071063442,-0.0668775693951402,0.0140533614116975));
#656=CARTESIAN_POINT('',(-0.0592236946901705,-0.0695662246942962,0.0138182213478927));
#657=CARTESIAN_POINT('',(-0.0535,-0.0695662246942962,0.0149567350088728));
#658=CARTESIAN_POINT('',(-0.0477763053098294,-0.0695662246942962,0.0138182213478926));
#659=CARTESIAN_POINT('',(-0.0429239912508158,-0.0695662246942962,0.0105760087491842));
#660=CARTESIAN_POINT('',(-0.0396817786521073,-0.0695662246942962,0.00572369469017055));
#661=CARTESIAN_POINT('',(-0.0385432649911272,-0.0695662246942962,-7.23704950134074E-18));
#662=CARTESIAN_POINT('',(-0.0396817786521073,-0.0695662246942962,-0.00572369469017056));
#663=CARTESIAN_POINT('',(-0.0429239912508158,-0.0695662246942962,-0.0105760087491842));
#664=CARTESIAN_POINT('',(-0.0477763053098294,-0.0695662246942962,-0.0138182213478926));
#665=CARTESIAN_POINT('',(-0.0535,-0.0695662246942962,-0.0149567350088728));
#666=CARTESIAN_POINT('',(-0.0592236946901705,-0.0695662246942962,-0.0138182213478926));
#667=CARTESIAN_POINT('',(-0.0640760087491842,-0.0695662246942962,-0.0105760087491842));
#668=CARTESIAN_POINT('',(-0.0673182213478926,-0.0695662246942962,-0.00572369469017055));
#669=CARTESIAN_POINT('',(-0.0684567350088728,-0.0695662246942962,5.77337656848531E-18));
#670=CARTESIAN_POINT('',(-0.0673182213478927,-0.0695662246942962,0.00572369469017056));
#671=CARTESIAN_POINT('',(-0.0640760087491841,-0.0695662246942962,0.0105760087491842));
#672=CARTESIAN_POINT('',(-0.0592236946901705,-0.0695662246942962,0.0138182213478927));
#673=CARTESIAN_POINT('',(-0.0535,-0.0695662246942962,0.0149567350088728));
#674=CARTESIAN_POINT('',(-0.0477763053098294,-0.0695662246942962,0.0138182213478926));
#675=CARTESIAN_POINT('',(-0.0590276452865041,-0.0749973078096555,0.0133449162186659));
#676=CARTESIAN_POINT('',(-0.0535,-0.0749973078096554,0.0144444332286394));
#677=CARTESIAN_POINT('',(-0.0479723547134959,-0.0749973078096554,0.0133449162186659));
#678=CARTESIAN_POINT('',(-0.0432862433136328,-0.0749973078096554,0.0102137566863672));
#679=CARTESIAN_POINT('',(-0.0401550837813341,-0.0749973078096554,0.00552764528650408));
#680=CARTESIAN_POINT('',(-0.0390555667713606,-0.0749973078096554,-1.65781288436612E-17));
#681=CARTESIAN_POINT('',(-0.0401550837813341,-0.0749973078096554,-0.00552764528650411));
#682=CARTESIAN_POINT('',(-0.0432862433136328,-0.0749973078096554,-0.0102137566863672));
#683=CARTESIAN_POINT('',(-0.0479723547134959,-0.0749973078096554,-0.0133449162186659));
#684=CARTESIAN_POINT('',(-0.0535,-0.0749973078096554,-0.0144444332286394));
#685=CARTESIAN_POINT('',(-0.0590276452865041,-0.0749973078096554,-0.0133449162186659));
#686=CARTESIAN_POINT('',(-0.0637137566863673,-0.0749973078096554,-0.0102137566863672));
#687=CARTESIAN_POINT('',(-0.0668449162186659,-0.0749973078096554,-0.00552764528650408));
#688=CARTESIAN_POINT('',(-0.0679444332286395,-0.0749973078096554,1.27393755267047E-17));
#689=CARTESIAN_POINT('',(-0.0668449162186659,-0.0749973078096554,0.00552764528650411));
#690=CARTESIAN_POINT('',(-0.0637137566863673,-0.0749973078096554,0.0102137566863673));
#691=CARTESIAN_POINT('',(-0.0590276452865041,-0.0749973078096555,0.0133449162186659));
#692=CARTESIAN_POINT('',(-0.0535,-0.0749973078096554,0.0144444332286394));
#693=CARTESIAN_POINT('',(-0.0479723547134959,-0.0749973078096554,0.0133449162186659));
#694=CARTESIAN_POINT('',(-0.0586771657504801,-0.0802730373569474,0.0124987837694626));
#695=CARTESIAN_POINT('',(-0.0535,-0.0802730373569474,0.0135285860652075));
#696=CARTESIAN_POINT('',(-0.0483228342495199,-0.0802730373569474,0.0124987837694626));
#697=CARTESIAN_POINT('',(-0.043933845053426,-0.0802730373569474,0.00956615494657406));
#698=CARTESIAN_POINT('',(-0.0410012162305374,-0.0802730373569474,0.00517716575048014));
#699=CARTESIAN_POINT('',(-0.0399714139347925,-0.0802730373569474,1.97629727253373E-17));
#700=CARTESIAN_POINT('',(-0.0410012162305374,-0.0802730373569474,-0.00517716575048011));
#701=CARTESIAN_POINT('',(-0.0439338450534259,-0.0802730373569474,-0.00956615494657403));
#702=CARTESIAN_POINT('',(-0.0483228342495199,-0.0802730373569474,-0.0124987837694626));
#703=CARTESIAN_POINT('',(-0.0535,-0.0802730373569474,-0.0135285860652075));
#704=CARTESIAN_POINT('',(-0.0586771657504801,-0.0802730373569474,-0.0124987837694626));
#705=CARTESIAN_POINT('',(-0.063066154946574,-0.0802730373569474,-0.00956615494657406));
#706=CARTESIAN_POINT('',(-0.0659987837694627,-0.0802730373569474,-0.00517716575048014));
#707=CARTESIAN_POINT('',(-0.0670285860652075,-0.0802730373569474,-2.11825999449355E-17));
#708=CARTESIAN_POINT('',(-0.0659987837694627,-0.0802730373569474,0.00517716575048011));
#709=CARTESIAN_POINT('',(-0.063066154946574,-0.0802730373569474,0.00956615494657404));
#710=CARTESIAN_POINT('',(-0.0586771657504801,-0.0802730373569474,0.0124987837694626));
#711=CARTESIAN_POINT('',(-0.0535,-0.0802730373569474,0.0135285860652075));
#712=CARTESIAN_POINT('',(-0.0483228342495199,-0.0802730373569474,0.0124987837694626));
#713=CARTESIAN_POINT('',(-0.0584218205824847,-0.0828100421529303,0.0118823260018016));
#714=CARTESIAN_POINT('',(-0.0535,-0.0828100421529303,0.0128613369856815));
#715=CARTESIAN_POINT('',(-0.0485781794175153,-0.0828100421529303,0.0118823260018016));
#716=CARTESIAN_POINT('',(-0.0444056614022992,-0.0828100421529303,0.00909433859770076));
#717=CARTESIAN_POINT('',(-0.0416176739981984,-0.0828100421529303,0.00492182058248469));
#718=CARTESIAN_POINT('',(-0.0406386630143185,-0.0828100421529303,2.59869708217619E-18));
#719=CARTESIAN_POINT('',(-0.0416176739981984,-0.0828100421529303,-0.00492182058248469));
#720=CARTESIAN_POINT('',(-0.0444056614022992,-0.0828100421529303,-0.00909433859770076));
#721=CARTESIAN_POINT('',(-0.0485781794175153,-0.0828100421529303,-0.0118823260018016));
#722=CARTESIAN_POINT('',(-0.0535,-0.0828100421529303,-0.0128613369856815));
#723=CARTESIAN_POINT('',(-0.0584218205824847,-0.0828100421529303,-0.0118823260018016));
#724=CARTESIAN_POINT('',(-0.0625943385977007,-0.0828100421529303,-0.00909433859770076));
#725=CARTESIAN_POINT('',(-0.0653823260018016,-0.0828100421529303,-0.00492182058248469));
#726=CARTESIAN_POINT('',(-0.0663613369856815,-0.0828100421529303,-4.13352078260099E-18));
#727=CARTESIAN_POINT('',(-0.0653823260018016,-0.0828100421529303,0.00492182058248469));
#728=CARTESIAN_POINT('',(-0.0625943385977007,-0.0828100421529303,0.00909433859770077));
#729=CARTESIAN_POINT('',(-0.0584218205824847,-0.0828100421529303,0.0118823260018016));
#730=CARTESIAN_POINT('',(-0.0535,-0.0828100421529303,0.0128613369856815));
#731=CARTESIAN_POINT('',(-0.0485781794175153,-0.0828100421529303,0.0118823260018016));
#732=CARTESIAN_POINT('',(-0.0535,-0.0955410885109934,0.));
#733=MECHANICAL_DESIGN_GEOMETRIC_PRESENTATION_REPRESENTATION('',(#214),#734);
#734=(
GEOMETRIC_REPRESENTATION_CONTEXT(3)
GLOBAL_UNCERTAINTY_ASSIGNED_CONTEXT((#735))
GLOBAL_UNIT_ASSIGNED_CONTEXT((#738,#737,#736))
REPRESENTATION_CONTEXT('Part 4','TOP_LEVEL_ASSEMBLY_PART')
);
#735=UNCERTAINTY_MEASURE_WITH_UNIT(LENGTH_MEASURE(2.E-05),#738,'DISTANCE_ACCURACY_VALUE','Maximum Tolerance applied to model');
#736=(
NAMED_UNIT(*)
SI_UNIT($,.STERADIAN.)
SOLID_ANGLE_UNIT()
);
#737=(
NAMED_UNIT(*)
PLANE_ANGLE_UNIT()
SI_UNIT($,.RADIAN.)
);
#738=(
LENGTH_UNIT()
NAMED_UNIT(*)
SI_UNIT($,.METRE.)
);
#739=PRODUCT_DEFINITION_SHAPE('','',#740);
#740=PRODUCT_DEFINITION('','',#742,#741);
#741=PRODUCT_DEFINITION_CONTEXT('',#748,'design');
#742=PRODUCT_DEFINITION_FORMATION_WITH_SPECIFIED_SOURCE('','',#744,.NOT_KNOWN.);
#743=PRODUCT_RELATED_PRODUCT_CATEGORY('','',(#744));
#744=PRODUCT('Part 4','Part 4','Part 4',(#746));
#745=PRODUCT_CATEGORY('','');
#746=PRODUCT_CONTEXT('',#748,'mechanical');
#747=APPLICATION_PROTOCOL_DEFINITION('international standard','ap242_managed_model_based_3d_engineering',2020,#748);
#748=APPLICATION_CONTEXT('managed model based 3d engineering');
ENDSEC;
END-ISO-10303-21;
