ISO-10303-21;
HEADER;
/*Generated by software containing ST-Developer
 * from STEP Tools, Inc. (www.steptools.com) 
 */
/*OPTION: using custom renumber hook */
/*description */
/*implementation_level */
FILE_DESCRIPTION(('STEP AP242 Edition 2','STEP AP242 Edition 2''CAx-IF Rec.Pracs.---Representation and Presentation of Product Manufa
cturing Information (PMI)---4.0---2014-10-13','STEP AP242 Edition 2''CAx-IF Rec.Pracs.---Representation and Presentation of Product Manufa
cturing Information (PMI)---4.0---2014-10-13''CAx-IF Rec.Pracs.---3D Tessellated Geometry---0.4---2014-09-14','STEP AP242 Edition 2''CAx-IF Rec.Pracs.---Representation and Presentation of Product Manufa
cturing Information (PMI)---4.0---2014-10-13''CAx-IF Rec.Pracs.---3D Tessellated Geometry---0.4---2014-09-14''2;1','STEP AP242 Edition 2''CAx-IF Rec.Pracs.---Representation and Presentation of Product Manufa
cturing Information (PMI)---4.0---2014-10-13''CAx-IF Rec.Pracs.---3D Tessellated Geometry---0.4---2014-09-14''2;1''CAx-IF Rec.Pracs.---User Defined Attributes---1.5---2016-08-15'),'2;1');
/*name */
/*time_stamp */
/*author */
/*organization */
/*preprocessor_version */
/*originating_system */
/*authorisation */
FILE_NAME('/vol/tmp/translate-6596636661662437601/Part Studio 2 - Part 2.step','2026-03-25T16:23:58',(''),(''),'ST-DEVELOPER v20','ONSHAPE BY PTC INC, 1.212','  ');
FILE_SCHEMA(('AP242_MANAGED_MODEL_BASED_3D_ENGINEERING_MIM_LF { 1 0 10303 442 3 1 4 }'));
ENDSEC;
DATA;
#10=SHAPE_REPRESENTATION_RELATIONSHIP('','',#224,#11);
#11=ADVANCED_BREP_SHAPE_REPRESENTATION('',(#222),#734);
#12=CONICAL_SURFACE('',#256,0.0063846509733196,1.08647165940629);
#13=B_SPLINE_SURFACE_WITH_KNOTS('',3,3,((#359,#360,#361,#362,#363,#364,
#365,#366,#367,#368,#369,#370,#371,#372,#373,#374,#375,#376,#377),(#378,
#379,#380,#381,#382,#383,#384,#385,#386,#387,#388,#389,#390,#391,#392,#393,
#394,#395,#396),(#397,#398,#399,#400,#401,#402,#403,#404,#405,#406,#407,
#408,#409,#410,#411,#412,#413,#414,#415),(#416,#417,#418,#419,#420,#421,
#422,#423,#424,#425,#426,#427,#428,#429,#430,#431,#432,#433,#434),(#435,
#436,#437,#438,#439,#440,#441,#442,#443,#444,#445,#446,#447,#448,#449,#450,
#451,#452,#453),(#454,#455,#456,#457,#458,#459,#460,#461,#462,#463,#464,
#465,#466,#467,#468,#469,#470,#471,#472),(#473,#474,#475,#476,#477,#478,
#479,#480,#481,#482,#483,#484,#485,#486,#487,#488,#489,#490,#491),(#492,
#493,#494,#495,#496,#497,#498,#499,#500,#501,#502,#503,#504,#505,#506,#507,
#508,#509,#510),(#511,#512,#513,#514,#515,#516,#517,#518,#519,#520,#521,
#522,#523,#524,#525,#526,#527,#528,#529)),.UNSPECIFIED.,.F.,.T.,.F.,(4,1,1,1,1,1,4),(1,1,1,1,1,1,1,1,1,1,1,1,1,1,1,1,1,1,1,1,1,1,1),(0.,0.25,0.375,0.5,0.625,0.75,1.),(-1.17809724509617,-0.785398163397448,-0.392699081698725,0.,0.392699081698724,0.785398163397448,1.17809724509617,1.5707963267949,1.96349540849362,2.35619449019234,2.74889357189107,3.14159265358979,3.53429173528852,3.92699081698724,4.31968989868597,4.71238898038469,5.10508806208341,5.49778714378214,5.89048622548086,6.28318530717959,6.67588438887831,7.06858347057703,7.46128255227576),.UNSPECIFIED.);
#14=B_SPLINE_SURFACE_WITH_KNOTS('',3,3,((#538,#539,#540,#541,#542,#543,
#544,#545,#546,#547,#548,#549,#550,#551,#552,#553,#554,#555,#556),(#557,
#558,#559,#560,#561,#562,#563,#564,#565,#566,#567,#568,#569,#570,#571,#572,
#573,#574,#575),(#576,#577,#578,#579,#580,#581,#582,#583,#584,#585,#586,
#587,#588,#589,#590,#591,#592,#593,#594),(#595,#596,#597,#598,#599,#600,
#601,#602,#603,#604,#605,#606,#607,#608,#609,#610,#611,#612,#613),(#614,
#615,#616,#617,#618,#619,#620,#621,#622,#623,#624,#625,#626,#627,#628,#629,
#630,#631,#632)),.UNSPECIFIED.,.F.,.T.,.F.,(4,1,4),(1,1,1,1,1,1,1,1,1,1,1,1,1,1,1,1,1,1,1,1,1,1,1),(0.,0.241298237726501,0.482596475453001),(-1.17809724509617,-0.785398163397448,-0.392699081698725,0.,0.392699081698724,0.785398163397448,1.17809724509617,1.5707963267949,1.96349540849362,2.35619449019234,2.74889357189107,3.14159265358979,3.53429173528852,3.92699081698724,4.31968989868597,4.71238898038469,5.10508806208341,5.49778714378214,5.89048622548086,6.28318530717959,6.67588438887831,7.06858347057703,7.46128255227576),.UNSPECIFIED.);
#15=B_SPLINE_SURFACE_WITH_KNOTS('',3,3,((#635,#636,#637,#638,#639,#640,
#641,#642,#643,#644,#645,#646,#647,#648,#649,#650,#651,#652,#653),(#654,
#655,#656,#657,#658,#659,#660,#661,#662,#663,#664,#665,#666,#667,#668,#669,
#670,#671,#672),(#673,#674,#675,#676,#677,#678,#679,#680,#681,#682,#683,
#684,#685,#686,#687,#688,#689,#690,#691),(#692,#693,#694,#695,#696,#697,
#698,#699,#700,#701,#702,#703,#704,#705,#706,#707,#708,#709,#710),(#711,
#712,#713,#714,#715,#716,#717,#718,#719,#720,#721,#722,#723,#724,#725,#726,
#727,#728,#729)),.UNSPECIFIED.,.F.,.T.,.F.,(4,1,4),(1,1,1,1,1,1,1,1,1,1,1,1,1,1,1,1,1,1,1,1,1,1,1),(0.482596475453001,0.7412982377265,1.),(-1.17809724509617,-0.785398163397448,-0.392699081698725,0.,0.392699081698724,0.785398163397448,1.17809724509617,1.5707963267949,1.96349540849362,2.35619449019234,2.74889357189107,3.14159265358979,3.53429173528852,3.92699081698724,4.31968989868597,4.71238898038469,5.10508806208341,5.49778714378214,5.89048622548086,6.28318530717959,6.67588438887831,7.06858347057703,7.46128255227576),.UNSPECIFIED.);
#16=CYLINDRICAL_SURFACE('',#229,0.0214292936342272);
#17=CYLINDRICAL_SURFACE('',#232,0.0015);
#18=CYLINDRICAL_SURFACE('',#235,0.0015);
#19=CYLINDRICAL_SURFACE('',#238,0.0015);
#20=CYLINDRICAL_SURFACE('',#241,0.009535);
#21=CYLINDRICAL_SURFACE('',#243,0.0015);
#22=CYLINDRICAL_SURFACE('',#251,0.012535);
#23=CYLINDRICAL_SURFACE('',#252,0.0148252863238402);
#24=ORIENTED_EDGE('',*,*,#62,.F.);
#25=ORIENTED_EDGE('',*,*,#63,.F.);
#26=ORIENTED_EDGE('',*,*,#64,.F.);
#27=ORIENTED_EDGE('',*,*,#65,.T.);
#28=ORIENTED_EDGE('',*,*,#66,.F.);
#29=ORIENTED_EDGE('',*,*,#67,.T.);
#30=ORIENTED_EDGE('',*,*,#68,.T.);
#31=ORIENTED_EDGE('',*,*,#69,.F.);
#32=ORIENTED_EDGE('',*,*,#70,.T.);
#33=ORIENTED_EDGE('',*,*,#71,.F.);
#34=ORIENTED_EDGE('',*,*,#62,.T.);
#35=ORIENTED_EDGE('',*,*,#72,.F.);
#36=ORIENTED_EDGE('',*,*,#73,.F.);
#37=ORIENTED_EDGE('',*,*,#74,.T.);
#38=ORIENTED_EDGE('',*,*,#75,.T.);
#39=ORIENTED_EDGE('',*,*,#70,.F.);
#40=ORIENTED_EDGE('',*,*,#68,.F.);
#41=ORIENTED_EDGE('',*,*,#66,.T.);
#42=ORIENTED_EDGE('',*,*,#64,.T.);
#43=ORIENTED_EDGE('',*,*,#73,.T.);
#44=ORIENTED_EDGE('',*,*,#72,.T.);
#45=ORIENTED_EDGE('',*,*,#71,.T.);
#46=ORIENTED_EDGE('',*,*,#69,.T.);
#47=ORIENTED_EDGE('',*,*,#67,.F.);
#48=ORIENTED_EDGE('',*,*,#65,.F.);
#49=ORIENTED_EDGE('',*,*,#74,.F.);
#50=ORIENTED_EDGE('',*,*,#76,.F.);
#51=ORIENTED_EDGE('',*,*,#77,.T.);
#52=ORIENTED_EDGE('',*,*,#63,.T.);
#53=ORIENTED_EDGE('',*,*,#77,.F.);
#54=ORIENTED_EDGE('',*,*,#75,.F.);
#55=ORIENTED_EDGE('',*,*,#78,.T.);
#56=ORIENTED_EDGE('',*,*,#79,.T.);
#57=ORIENTED_EDGE('',*,*,#78,.F.);
#58=ORIENTED_EDGE('',*,*,#80,.T.);
#59=ORIENTED_EDGE('',*,*,#79,.F.);
#60=ORIENTED_EDGE('',*,*,#76,.T.);
#61=ORIENTED_EDGE('',*,*,#80,.F.);
#62=EDGE_CURVE('',#81,#81,#100,.T.);
#63=EDGE_CURVE('',#82,#82,#101,.F.);
#64=EDGE_CURVE('',#83,#83,#102,.T.);
#65=EDGE_CURVE('',#84,#84,#103,.T.);
#66=EDGE_CURVE('',#85,#85,#104,.T.);
#67=EDGE_CURVE('',#86,#86,#105,.T.);
#68=EDGE_CURVE('',#87,#87,#106,.T.);
#69=EDGE_CURVE('',#88,#88,#107,.T.);
#70=EDGE_CURVE('',#89,#89,#108,.T.);
#71=EDGE_CURVE('',#90,#90,#109,.T.);
#72=EDGE_CURVE('',#91,#91,#110,.T.);
#73=EDGE_CURVE('',#92,#92,#111,.T.);
#74=EDGE_CURVE('',#93,#93,#112,.T.);
#75=EDGE_CURVE('',#94,#94,#113,.F.);
#76=EDGE_CURVE('',#95,#95,#114,.T.);
#77=EDGE_CURVE('',#96,#96,#115,.T.);
#78=EDGE_CURVE('',#97,#97,#116,.T.);
#79=EDGE_CURVE('',#98,#98,#117,.T.);
#80=EDGE_CURVE('',#99,#99,#118,.T.);
#81=VERTEX_POINT('',#324);
#82=VERTEX_POINT('',#326);
#83=VERTEX_POINT('',#329);
#84=VERTEX_POINT('',#331);
#85=VERTEX_POINT('',#334);
#86=VERTEX_POINT('',#336);
#87=VERTEX_POINT('',#339);
#88=VERTEX_POINT('',#341);
#89=VERTEX_POINT('',#344);
#90=VERTEX_POINT('',#346);
#91=VERTEX_POINT('',#349);
#92=VERTEX_POINT('',#352);
#93=VERTEX_POINT('',#354);
#94=VERTEX_POINT('',#357);
#95=VERTEX_POINT('',#531);
#96=VERTEX_POINT('',#533);
#97=VERTEX_POINT('',#537);
#98=VERTEX_POINT('',#634);
#99=VERTEX_POINT('',#731);
#100=CIRCLE('',#227,0.009535);
#101=CIRCLE('',#228,0.012535);
#102=CIRCLE('',#230,0.0214292936342272);
#103=CIRCLE('',#231,0.0214292936342272);
#104=CIRCLE('',#233,0.0015);
#105=CIRCLE('',#234,0.0015);
#106=CIRCLE('',#236,0.0015);
#107=CIRCLE('',#237,0.0015);
#108=CIRCLE('',#239,0.0015);
#109=CIRCLE('',#240,0.0015);
#110=CIRCLE('',#242,0.009535);
#111=CIRCLE('',#244,0.0015);
#112=CIRCLE('',#245,0.0015);
#113=CIRCLE('',#247,0.0148252863238402);
#114=CIRCLE('',#249,0.00434917490929365);
#115=CIRCLE('',#250,0.012535);
#116=CIRCLE('',#253,0.0148252863238402);
#117=CIRCLE('',#254,0.0125349999910549);
#118=CIRCLE('',#255,0.0063846509733196);
#119=EDGE_LOOP('',(#24));
#120=EDGE_LOOP('',(#25));
#121=EDGE_LOOP('',(#26));
#122=EDGE_LOOP('',(#27));
#123=EDGE_LOOP('',(#28));
#124=EDGE_LOOP('',(#29));
#125=EDGE_LOOP('',(#30));
#126=EDGE_LOOP('',(#31));
#127=EDGE_LOOP('',(#32));
#128=EDGE_LOOP('',(#33));
#129=EDGE_LOOP('',(#34));
#130=EDGE_LOOP('',(#35));
#131=EDGE_LOOP('',(#36));
#132=EDGE_LOOP('',(#37));
#133=EDGE_LOOP('',(#38));
#134=EDGE_LOOP('',(#39));
#135=EDGE_LOOP('',(#40));
#136=EDGE_LOOP('',(#41));
#137=EDGE_LOOP('',(#42));
#138=EDGE_LOOP('',(#43));
#139=EDGE_LOOP('',(#44));
#140=EDGE_LOOP('',(#45));
#141=EDGE_LOOP('',(#46));
#142=EDGE_LOOP('',(#47));
#143=EDGE_LOOP('',(#48));
#144=EDGE_LOOP('',(#49));
#145=EDGE_LOOP('',(#50));
#146=EDGE_LOOP('',(#51));
#147=EDGE_LOOP('',(#52));
#148=EDGE_LOOP('',(#53));
#149=EDGE_LOOP('',(#54));
#150=EDGE_LOOP('',(#55));
#151=EDGE_LOOP('',(#56));
#152=EDGE_LOOP('',(#57));
#153=EDGE_LOOP('',(#58));
#154=EDGE_LOOP('',(#59));
#155=EDGE_LOOP('',(#60));
#156=EDGE_LOOP('',(#61));
#157=FACE_BOUND('',#119,.T.);
#158=FACE_BOUND('',#120,.T.);
#159=FACE_BOUND('',#121,.T.);
#160=FACE_BOUND('',#122,.T.);
#161=FACE_BOUND('',#123,.T.);
#162=FACE_BOUND('',#124,.T.);
#163=FACE_BOUND('',#125,.T.);
#164=FACE_BOUND('',#126,.T.);
#165=FACE_BOUND('',#127,.T.);
#166=FACE_BOUND('',#128,.T.);
#167=FACE_BOUND('',#129,.T.);
#168=FACE_BOUND('',#130,.T.);
#169=FACE_BOUND('',#131,.T.);
#170=FACE_BOUND('',#132,.T.);
#171=FACE_BOUND('',#133,.T.);
#172=FACE_BOUND('',#134,.T.);
#173=FACE_BOUND('',#135,.T.);
#174=FACE_BOUND('',#136,.T.);
#175=FACE_BOUND('',#137,.T.);
#176=FACE_BOUND('',#138,.T.);
#177=FACE_BOUND('',#139,.T.);
#178=FACE_BOUND('',#140,.T.);
#179=FACE_BOUND('',#141,.T.);
#180=FACE_BOUND('',#142,.T.);
#181=FACE_BOUND('',#143,.T.);
#182=FACE_BOUND('',#144,.T.);
#183=FACE_BOUND('',#145,.T.);
#184=FACE_BOUND('',#146,.T.);
#185=FACE_BOUND('',#147,.T.);
#186=FACE_BOUND('',#148,.T.);
#187=FACE_BOUND('',#149,.T.);
#188=FACE_BOUND('',#150,.T.);
#189=FACE_BOUND('',#151,.T.);
#190=FACE_BOUND('',#152,.T.);
#191=FACE_BOUND('',#153,.T.);
#192=FACE_BOUND('',#154,.T.);
#193=FACE_BOUND('',#155,.T.);
#194=FACE_BOUND('',#156,.T.);
#195=PLANE('',#226);
#196=PLANE('',#246);
#197=PLANE('',#248);
#198=ADVANCED_FACE('',(#157,#158),#195,.T.);
#199=ADVANCED_FACE('',(#159,#160),#16,.T.);
#200=ADVANCED_FACE('',(#161,#162),#17,.F.);
#201=ADVANCED_FACE('',(#163,#164),#18,.F.);
#202=ADVANCED_FACE('',(#165,#166),#19,.F.);
#203=ADVANCED_FACE('',(#167,#168),#20,.F.);
#204=ADVANCED_FACE('',(#169,#170),#21,.F.);
#205=ADVANCED_FACE('',(#171,#172,#173,#174,#175,#176),#196,.T.);
#206=ADVANCED_FACE('',(#177,#178,#179,#180,#181,#182),#197,.F.);
#207=ADVANCED_FACE('',(#183,#184),#13,.F.);
#208=ADVANCED_FACE('',(#185,#186),#22,.F.);
#209=ADVANCED_FACE('',(#187,#188),#23,.T.);
#210=ADVANCED_FACE('',(#189,#190),#14,.T.);
#211=ADVANCED_FACE('',(#191,#192),#15,.T.);
#212=ADVANCED_FACE('',(#193,#194),#12,.F.);
#213=CLOSED_SHELL('',(#198,#199,#200,#201,#202,#203,#204,#205,#206,#207,#208,#209,#210,#211,#212));
#214=STYLED_ITEM('',(#215),#222);
#215=PRESENTATION_STYLE_ASSIGNMENT((#216));
#216=SURFACE_STYLE_USAGE(.BOTH.,#217);
#217=SURFACE_SIDE_STYLE('',(#218));
#218=SURFACE_STYLE_FILL_AREA(#219);
#219=FILL_AREA_STYLE('',(#220));
#220=FILL_AREA_STYLE_COLOUR('',#221);
#221=COLOUR_RGB('',0.647058823529412,0.647058823529412,0.647058823529412);
#222=MANIFOLD_SOLID_BREP('Part 2',#213);
#223=SHAPE_DEFINITION_REPRESENTATION(#739,#224);
#224=SHAPE_REPRESENTATION('Part 2',(#225),#734);
#225=AXIS2_PLACEMENT_3D('',#321,#257,#258);
#226=AXIS2_PLACEMENT_3D('',#322,#259,#260);
#227=AXIS2_PLACEMENT_3D('',#323,#261,#262);
#228=AXIS2_PLACEMENT_3D('',#325,#263,#264);
#229=AXIS2_PLACEMENT_3D('',#327,#265,#266);
#230=AXIS2_PLACEMENT_3D('',#328,#267,#268);
#231=AXIS2_PLACEMENT_3D('',#330,#269,#270);
#232=AXIS2_PLACEMENT_3D('',#332,#271,#272);
#233=AXIS2_PLACEMENT_3D('',#333,#273,#274);
#234=AXIS2_PLACEMENT_3D('',#335,#275,#276);
#235=AXIS2_PLACEMENT_3D('',#337,#277,#278);
#236=AXIS2_PLACEMENT_3D('',#338,#279,#280);
#237=AXIS2_PLACEMENT_3D('',#340,#281,#282);
#238=AXIS2_PLACEMENT_3D('',#342,#283,#284);
#239=AXIS2_PLACEMENT_3D('',#343,#285,#286);
#240=AXIS2_PLACEMENT_3D('',#345,#287,#288);
#241=AXIS2_PLACEMENT_3D('',#347,#289,#290);
#242=AXIS2_PLACEMENT_3D('',#348,#291,#292);
#243=AXIS2_PLACEMENT_3D('',#350,#293,#294);
#244=AXIS2_PLACEMENT_3D('',#351,#295,#296);
#245=AXIS2_PLACEMENT_3D('',#353,#297,#298);
#246=AXIS2_PLACEMENT_3D('',#355,#299,#300);
#247=AXIS2_PLACEMENT_3D('',#356,#301,#302);
#248=AXIS2_PLACEMENT_3D('',#358,#303,#304);
#249=AXIS2_PLACEMENT_3D('',#530,#305,#306);
#250=AXIS2_PLACEMENT_3D('',#532,#307,#308);
#251=AXIS2_PLACEMENT_3D('',#534,#309,#310);
#252=AXIS2_PLACEMENT_3D('',#535,#311,#312);
#253=AXIS2_PLACEMENT_3D('',#536,#313,#314);
#254=AXIS2_PLACEMENT_3D('',#633,#315,#316);
#255=AXIS2_PLACEMENT_3D('',#730,#317,#318);
#256=AXIS2_PLACEMENT_3D('',#732,#319,#320);
#257=DIRECTION('',(0.,0.,1.));
#258=DIRECTION('',(1.,0.,0.));
#259=DIRECTION('',(0.,-1.,0.));
#260=DIRECTION('',(1.,0.,0.));
#261=DIRECTION('',(0.,-1.,0.));
#262=DIRECTION('',(0.,0.,-1.));
#263=DIRECTION('',(0.,-1.,0.));
#264=DIRECTION('',(0.,0.,-1.));
#265=DIRECTION('',(0.,1.,0.));
#266=DIRECTION('',(0.,0.,1.));
#267=DIRECTION('',(0.,-1.,0.));
#268=DIRECTION('',(0.,0.,-1.));
#269=DIRECTION('',(0.,-1.,0.));
#270=DIRECTION('',(0.,0.,-1.));
#271=DIRECTION('',(0.,1.,0.));
#272=DIRECTION('',(0.,0.,1.));
#273=DIRECTION('',(0.,1.,0.));
#274=DIRECTION('',(0.,0.,-1.));
#275=DIRECTION('',(0.,1.,0.));
#276=DIRECTION('',(0.,0.,-1.));
#277=DIRECTION('',(0.,1.,0.));
#278=DIRECTION('',(0.,0.,1.));
#279=DIRECTION('',(0.,-1.,0.));
#280=DIRECTION('',(0.,0.,-1.));
#281=DIRECTION('',(0.,-1.,0.));
#282=DIRECTION('',(0.,0.,-1.));
#283=DIRECTION('',(0.,1.,0.));
#284=DIRECTION('',(0.,0.,1.));
#285=DIRECTION('',(0.,-1.,0.));
#286=DIRECTION('',(0.,0.,-1.));
#287=DIRECTION('',(0.,-1.,0.));
#288=DIRECTION('',(0.,0.,-1.));
#289=DIRECTION('',(0.,1.,0.));
#290=DIRECTION('',(0.,0.,1.));
#291=DIRECTION('',(0.,-1.,0.));
#292=DIRECTION('',(0.,0.,-1.));
#293=DIRECTION('',(0.,1.,0.));
#294=DIRECTION('',(0.,0.,1.));
#295=DIRECTION('',(0.,1.,0.));
#296=DIRECTION('',(0.,0.,-1.));
#297=DIRECTION('',(0.,1.,0.));
#298=DIRECTION('',(0.,0.,-1.));
#299=DIRECTION('',(0.,-1.,0.));
#300=DIRECTION('',(1.,0.,0.));
#301=DIRECTION('',(0.,-1.,0.));
#302=DIRECTION('',(0.,0.,-1.));
#303=DIRECTION('',(0.,-1.,0.));
#304=DIRECTION('',(1.,0.,0.));
#305=DIRECTION('',(0.,1.,0.));
#306=DIRECTION('',(0.,0.,1.));
#307=DIRECTION('',(0.,1.,0.));
#308=DIRECTION('',(0.,0.,1.));
#309=DIRECTION('',(0.,1.,0.));
#310=DIRECTION('',(0.,0.,1.));
#311=DIRECTION('',(0.,1.,0.));
#312=DIRECTION('',(0.,0.,1.));
#313=DIRECTION('',(0.,1.,0.));
#314=DIRECTION('',(0.,0.,1.));
#315=DIRECTION('',(0.,1.,0.));
#316=DIRECTION('',(0.,0.,1.));
#317=DIRECTION('',(0.,1.,0.));
#318=DIRECTION('',(0.,0.,1.));
#319=DIRECTION('',(0.,-1.,0.));
#320=DIRECTION('',(0.,0.,-1.));
#321=CARTESIAN_POINT('',(0.,0.,0.));
#322=CARTESIAN_POINT('',(0.,-0.0666,0.));
#323=CARTESIAN_POINT('',(0.,-0.0666,5.83850361493501E-19));
#324=CARTESIAN_POINT('',(0.,-0.0666,-0.009535));
#325=CARTESIAN_POINT('',(0.,-0.0666,0.));
#326=CARTESIAN_POINT('',(0.,-0.0666,-0.012535));
#327=CARTESIAN_POINT('',(0.,-0.0666,1.89601615435076E-18));
#328=CARTESIAN_POINT('',(0.,-0.0666,1.89601615435076E-18));
#329=CARTESIAN_POINT('',(0.,-0.0666,-0.0214292936342272));
#330=CARTESIAN_POINT('',(0.,-0.063,1.89601615435076E-18));
#331=CARTESIAN_POINT('',(0.,-0.063,-0.0214292936342272));
#332=CARTESIAN_POINT('',(-0.018,-0.0666,9.18485099360515E-20));
#333=CARTESIAN_POINT('',(-0.018,-0.0666,9.18485099360515E-20));
#334=CARTESIAN_POINT('',(-0.018,-0.0666,-0.0015));
#335=CARTESIAN_POINT('',(-0.018,-0.063,9.18485099360515E-20));
#336=CARTESIAN_POINT('',(-0.018,-0.063,-0.0015));
#337=CARTESIAN_POINT('',(0.018,-0.0666,9.18485099360515E-20));
#338=CARTESIAN_POINT('',(0.018,-0.0666,9.18485099360515E-20));
#339=CARTESIAN_POINT('',(0.018,-0.0666,-0.0015));
#340=CARTESIAN_POINT('',(0.018,-0.063,9.18485099360515E-20));
#341=CARTESIAN_POINT('',(0.018,-0.063,-0.0015));
#342=CARTESIAN_POINT('',(0.,-0.0666,0.018));
#343=CARTESIAN_POINT('',(0.,-0.0666,0.018));
#344=CARTESIAN_POINT('',(0.,-0.0666,0.0165));
#345=CARTESIAN_POINT('',(0.,-0.063,0.018));
#346=CARTESIAN_POINT('',(0.,-0.063,0.0165));
#347=CARTESIAN_POINT('',(0.,-0.0666,5.83850361493501E-19));
#348=CARTESIAN_POINT('',(0.,-0.063,5.83850361493501E-19));
#349=CARTESIAN_POINT('',(0.,-0.063,-0.009535));
#350=CARTESIAN_POINT('',(0.,-0.0666,-0.018));
#351=CARTESIAN_POINT('',(0.,-0.0666,-0.018));
#352=CARTESIAN_POINT('',(0.,-0.0666,-0.0195));
#353=CARTESIAN_POINT('',(0.,-0.063,-0.018));
#354=CARTESIAN_POINT('',(0.,-0.063,-0.0195));
#355=CARTESIAN_POINT('',(0.,-0.0666,0.));
#356=CARTESIAN_POINT('',(0.,-0.0666,0.));
#357=CARTESIAN_POINT('',(0.,-0.0666,-0.0148252863238402));
#358=CARTESIAN_POINT('',(0.,-0.063,0.));
#359=CARTESIAN_POINT('',(-0.00492182058599693,-0.0666664093732834,0.011882326010281));
#360=CARTESIAN_POINT('',(-1.01915004213637E-17,-0.0666664093732834,0.0128613369948595));
#361=CARTESIAN_POINT('',(0.00492182058599696,-0.0666664093732834,0.0118823260102809));
#362=CARTESIAN_POINT('',(0.00909433860419058,-0.0666664093732834,0.00909433860419059));
#363=CARTESIAN_POINT('',(0.0118823260102809,-0.0666664093732834,0.00492182058599695));
#364=CARTESIAN_POINT('',(0.0128613369948595,-0.0666664093732834,2.05659599593344E-18));
#365=CARTESIAN_POINT('',(0.0118823260102809,-0.0666664093732834,-0.00492182058599695));
#366=CARTESIAN_POINT('',(0.00909433860419059,-0.0666664093732834,-0.00909433860419059));
#367=CARTESIAN_POINT('',(0.00492182058599695,-0.0666664093732834,-0.0118823260102809));
#368=CARTESIAN_POINT('',(1.96749871779413E-18,-0.0666664093732834,-0.0128613369948595));
#369=CARTESIAN_POINT('',(-0.00492182058599695,-0.0666664093732834,-0.0118823260102809));
#370=CARTESIAN_POINT('',(-0.00909433860419059,-0.0666664093732834,-0.00909433860419059));
#371=CARTESIAN_POINT('',(-0.0118823260102809,-0.0666664093732834,-0.00492182058599695));
#372=CARTESIAN_POINT('',(-0.0128613369948595,-0.0666664093732834,-5.63107503334659E-18));
#373=CARTESIAN_POINT('',(-0.0118823260102809,-0.0666664093732834,0.00492182058599696));
#374=CARTESIAN_POINT('',(-0.00909433860419059,-0.0666664093732834,0.00909433860419059));
#375=CARTESIAN_POINT('',(-0.00492182058599693,-0.0666664093732834,0.011882326010281));
#376=CARTESIAN_POINT('',(-1.01915004213637E-17,-0.0666664093732834,0.0128613369948595));
#377=CARTESIAN_POINT('',(0.00492182058599696,-0.0666664093732834,0.0118823260102809));
#378=CARTESIAN_POINT('',(-0.00482096592449957,-0.069451785064063,0.0116388413186655));
#379=CARTESIAN_POINT('',(-9.10729824887824E-18,-0.0694517850640629,0.0125977910637643));
#380=CARTESIAN_POINT('',(0.0048209659244996,-0.0694517850640629,0.0116388413186655));
#381=CARTESIAN_POINT('',(0.00890798348915907,-0.0694517850640629,0.00890798348915906));
#382=CARTESIAN_POINT('',(0.0116388413186655,-0.0694517850640629,0.0048209659244996));
#383=CARTESIAN_POINT('',(0.0125977910637644,-0.0694517850640629,1.21633931225718E-18));
#384=CARTESIAN_POINT('',(0.0116388413186655,-0.0694517850640629,-0.00482096592449959));
#385=CARTESIAN_POINT('',(0.00890798348915907,-0.0694517850640629,-0.00890798348915906));
#386=CARTESIAN_POINT('',(0.0048209659244996,-0.0694517850640629,-0.0116388413186655));
#387=CARTESIAN_POINT('',(9.29565720052391E-19,-0.0694517850640629,-0.0125977910637644));
#388=CARTESIAN_POINT('',(-0.00482096592449959,-0.0694517850640629,-0.0116388413186655));
#389=CARTESIAN_POINT('',(-0.00890798348915906,-0.0694517850640629,-0.00890798348915905));
#390=CARTESIAN_POINT('',(-0.0116388413186655,-0.0694517850640629,-0.00482096592449961));
#391=CARTESIAN_POINT('',(-0.0125977910637644,-0.0694517850640629,-1.34170018845081E-18));
#392=CARTESIAN_POINT('',(-0.0116388413186655,-0.069451785064063,0.0048209659244996));
#393=CARTESIAN_POINT('',(-0.00890798348915906,-0.0694517850640629,0.00890798348915907));
#394=CARTESIAN_POINT('',(-0.00482096592449957,-0.069451785064063,0.0116388413186655));
#395=CARTESIAN_POINT('',(-9.10729824887824E-18,-0.0694517850640629,0.0125977910637643));
#396=CARTESIAN_POINT('',(0.0048209659244996,-0.0694517850640629,0.0116388413186655));
#397=CARTESIAN_POINT('',(-0.00466980543645772,-0.0736300820890073,0.0112739076183399));
#398=CARTESIAN_POINT('',(-8.99887803162969E-18,-0.0736300820890073,0.0122027896729081));
#399=CARTESIAN_POINT('',(0.00466980543645775,-0.0736300820890073,0.0112739076183399));
#400=CARTESIAN_POINT('',(0.00862867532710649,-0.0736300820890073,0.0086286753271065));
#401=CARTESIAN_POINT('',(0.0112739076183399,-0.0736300820890073,0.00466980543645774));
#402=CARTESIAN_POINT('',(0.0122027896729081,-0.0736300820890073,3.3881317890172E-18));
#403=CARTESIAN_POINT('',(0.0112739076183399,-0.0736300820890073,-0.00466980543645775));
#404=CARTESIAN_POINT('',(0.00862867532710649,-0.0736300820890073,-0.00862867532710649));
#405=CARTESIAN_POINT('',(0.00466980543645774,-0.0736300820890073,-0.0112739076183399));
#406=CARTESIAN_POINT('',(2.31404768978445E-18,-0.0736300820890073,-0.0122027896729081));
#407=CARTESIAN_POINT('',(-0.00466980543645774,-0.0736300820890073,-0.0112739076183399));
#408=CARTESIAN_POINT('',(-0.00862867532710649,-0.0736300820890073,-0.0086286753271065));
#409=CARTESIAN_POINT('',(-0.0112739076183399,-0.0736300820890073,-0.00466980543645774));
#410=CARTESIAN_POINT('',(-0.0122027896729081,-0.0736300820890073,-7.17606312913843E-18));
#411=CARTESIAN_POINT('',(-0.0112739076183399,-0.0736300820890073,0.00466980543645774));
#412=CARTESIAN_POINT('',(-0.00862867532710649,-0.0736300820890073,0.0086286753271065));
#413=CARTESIAN_POINT('',(-0.00466980543645772,-0.0736300820890073,0.0112739076183399));
#414=CARTESIAN_POINT('',(-8.99887803162969E-18,-0.0736300820890073,0.0122027896729081));
#415=CARTESIAN_POINT('',(0.00466980543645775,-0.0736300820890073,0.0112739076183399));
#416=CARTESIAN_POINT('',(-0.00434658505355053,-0.0789673315211986,0.0104935845862899));
#417=CARTESIAN_POINT('',(-8.78203759713259E-18,-0.0789673315211986,0.0113581741093087));
#418=CARTESIAN_POINT('',(0.00434658505355055,-0.0789673315211986,0.0104935845862899));
#419=CARTESIAN_POINT('',(0.00803144193458965,-0.0789673315211986,0.00803144193458965));
#420=CARTESIAN_POINT('',(0.0104935845862899,-0.0789673315211986,0.00434658505355055));
#421=CARTESIAN_POINT('',(0.0113581741093087,-0.0789673315211986,2.18195687212708E-18));
#422=CARTESIAN_POINT('',(0.0104935845862899,-0.0789673315211986,-0.00434658505355055));
#423=CARTESIAN_POINT('',(0.00803144193458966,-0.0789673315211986,-0.00803144193458965));
#424=CARTESIAN_POINT('',(0.00434658505355055,-0.0789673315211986,-0.0104935845862899));
#425=CARTESIAN_POINT('',(1.8219877218787E-18,-0.0789673315211986,-0.0113581741093087));
#426=CARTESIAN_POINT('',(-0.00434658505355055,-0.0789673315211986,-0.0104935845862899));
#427=CARTESIAN_POINT('',(-0.00803144193458965,-0.0789673315211986,-0.00803144193458966));
#428=CARTESIAN_POINT('',(-0.0104935845862899,-0.0789673315211986,-0.00434658505355055));
#429=CARTESIAN_POINT('',(-0.0113581741093087,-0.0789673315211986,-7.79270311473956E-19));
#430=CARTESIAN_POINT('',(-0.0104935845862899,-0.0789673315211986,0.00434658505355055));
#431=CARTESIAN_POINT('',(-0.00803144193458965,-0.0789673315211986,0.00803144193458966));
#432=CARTESIAN_POINT('',(-0.00434658505355053,-0.0789673315211986,0.0104935845862899));
#433=CARTESIAN_POINT('',(-8.78203759713259E-18,-0.0789673315211986,0.0113581741093087));
#434=CARTESIAN_POINT('',(0.00434658505355055,-0.0789673315211986,0.0104935845862899));
#435=CARTESIAN_POINT('',(-0.00401431226557962,-0.082797593765454,0.00969140711516305));
#436=CARTESIAN_POINT('',(-8.02309607639273E-18,-0.082797593765454,0.0104899034713107));
#437=CARTESIAN_POINT('',(0.00401431226557965,-0.082797593765454,0.00969140711516304));
#438=CARTESIAN_POINT('',(0.00741748187855609,-0.082797593765454,0.00741748187855609));
#439=CARTESIAN_POINT('',(0.00969140711516304,-0.082797593765454,0.00401431226557964));
#440=CARTESIAN_POINT('',(0.0104899034713107,-0.082797593765454,1.28749007982654E-18));
#441=CARTESIAN_POINT('',(0.00969140711516304,-0.082797593765454,-0.00401431226557964));
#442=CARTESIAN_POINT('',(0.00741748187855609,-0.082797593765454,-0.0074174818785561));
#443=CARTESIAN_POINT('',(0.00401431226557964,-0.082797593765454,-0.00969140711516304));
#444=CARTESIAN_POINT('',(1.93260493083419E-18,-0.082797593765454,-0.0104899034713107));
#445=CARTESIAN_POINT('',(-0.00401431226557964,-0.082797593765454,-0.00969140711516305));
#446=CARTESIAN_POINT('',(-0.00741748187855609,-0.082797593765454,-0.00741748187855609));
#447=CARTESIAN_POINT('',(-0.00969140711516304,-0.082797593765454,-0.00401431226557965));
#448=CARTESIAN_POINT('',(-0.0104899034713107,-0.082797593765454,-1.64663204946236E-18));
#449=CARTESIAN_POINT('',(-0.00969140711516304,-0.082797593765454,0.00401431226557964));
#450=CARTESIAN_POINT('',(-0.00741748187855609,-0.082797593765454,0.0074174818785561));
#451=CARTESIAN_POINT('',(-0.00401431226557962,-0.082797593765454,0.00969140711516305));
#452=CARTESIAN_POINT('',(-8.02309607639273E-18,-0.082797593765454,0.0104899034713107));
#453=CARTESIAN_POINT('',(0.00401431226557965,-0.082797593765454,0.00969140711516304));
#454=CARTESIAN_POINT('',(-0.00355635677335282,-0.0863863376123988,0.00858580475486586));
#455=CARTESIAN_POINT('',(-7.10152422978005E-18,-0.0863863376123988,0.00929320809990013));
#456=CARTESIAN_POINT('',(0.00355635677335284,-0.0863863376123988,0.00858580475486584));
#457=CARTESIAN_POINT('',(0.00657129046641713,-0.0863863376123988,0.00657129046641714));
#458=CARTESIAN_POINT('',(0.00858580475486584,-0.0863863376123988,0.00355635677335284));
#459=CARTESIAN_POINT('',(0.00929320809990014,-0.0863863376123988,3.08319992800565E-18));
#460=CARTESIAN_POINT('',(0.00858580475486584,-0.0863863376123988,-0.00355635677335284));
#461=CARTESIAN_POINT('',(0.00657129046641714,-0.0863863376123988,-0.00657129046641714));
#462=CARTESIAN_POINT('',(0.00355635677335284,-0.0863863376123988,-0.00858580475486584));
#463=CARTESIAN_POINT('',(1.26703555763933E-18,-0.0863863376123988,-0.00929320809990013));
#464=CARTESIAN_POINT('',(-0.00355635677335284,-0.0863863376123988,-0.00858580475486584));
#465=CARTESIAN_POINT('',(-0.00657129046641713,-0.0863863376123988,-0.00657129046641714));
#466=CARTESIAN_POINT('',(-0.00858580475486584,-0.0863863376123988,-0.00355635677335284));
#467=CARTESIAN_POINT('',(-0.00929320809990014,-0.0863863376123988,-2.63596653185538E-18));
#468=CARTESIAN_POINT('',(-0.00858580475486585,-0.0863863376123988,0.00355635677335284));
#469=CARTESIAN_POINT('',(-0.00657129046641713,-0.0863863376123988,0.00657129046641714));
#470=CARTESIAN_POINT('',(-0.00355635677335282,-0.0863863376123988,0.00858580475486586));
#471=CARTESIAN_POINT('',(-7.10152422978005E-18,-0.0863863376123988,0.00929320809990013));
#472=CARTESIAN_POINT('',(0.00355635677335284,-0.0863863376123988,0.00858580475486584));
#473=CARTESIAN_POINT('',(-0.00280893045902181,-0.0909084109446351,0.00678135800993337));
#474=CARTESIAN_POINT('',(-5.20417042793042E-18,-0.090908410944635,0.00734008901734223));
#475=CARTESIAN_POINT('',(0.00280893045902182,-0.090908410944635,0.00678135800993337));
#476=CARTESIAN_POINT('',(0.00519022671867559,-0.090908410944635,0.00519022671867559));
#477=CARTESIAN_POINT('',(0.00678135800993337,-0.090908410944635,0.00280893045902182));
#478=CARTESIAN_POINT('',(0.00734008901734223,-0.0909084109446351,-5.8106460181645E-19));
#479=CARTESIAN_POINT('',(0.00678135800993337,-0.090908410944635,-0.00280893045902182));
#480=CARTESIAN_POINT('',(0.00519022671867559,-0.090908410944635,-0.00519022671867559));
#481=CARTESIAN_POINT('',(0.00280893045902182,-0.090908410944635,-0.00678135800993336));
#482=CARTESIAN_POINT('',(8.25430298376865E-19,-0.090908410944635,-0.00734008901734223));
#483=CARTESIAN_POINT('',(-0.00280893045902182,-0.090908410944635,-0.00678135800993337));
#484=CARTESIAN_POINT('',(-0.00519022671867559,-0.090908410944635,-0.00519022671867559));
#485=CARTESIAN_POINT('',(-0.00678135800993336,-0.0909084109446351,-0.00280893045902183));
#486=CARTESIAN_POINT('',(-0.00734008901734223,-0.090908410944635,-2.92056960213283E-18));
#487=CARTESIAN_POINT('',(-0.00678135800993337,-0.0909084109446351,0.00280893045902182));
#488=CARTESIAN_POINT('',(-0.00519022671867559,-0.090908410944635,0.0051902267186756));
#489=CARTESIAN_POINT('',(-0.00280893045902181,-0.0909084109446351,0.00678135800993337));
#490=CARTESIAN_POINT('',(-5.20417042793042E-18,-0.090908410944635,0.00734008901734223));
#491=CARTESIAN_POINT('',(0.00280893045902182,-0.090908410944635,0.00678135800993337));
#492=CARTESIAN_POINT('',(-0.00214827233794207,-0.0941076309160311,0.00518638821393073));
#493=CARTESIAN_POINT('',(-4.93311988480905E-18,-0.0941076309160311,0.00561370615044702));
#494=CARTESIAN_POINT('',(0.00214827233794208,-0.0941076309160311,0.00518638821393072));
#495=CARTESIAN_POINT('',(0.00396948968656971,-0.0941076309160311,0.00396948968656972));
#496=CARTESIAN_POINT('',(0.00518638821393072,-0.0941076309160311,0.00214827233794208));
#497=CARTESIAN_POINT('',(0.00561370615044702,-0.0941076309160311,1.34847645202885E-18));
#498=CARTESIAN_POINT('',(0.00518638821393072,-0.0941076309160311,-0.00214827233794208));
#499=CARTESIAN_POINT('',(0.00396948968656972,-0.0941076309160311,-0.00396948968656972));
#500=CARTESIAN_POINT('',(0.00214827233794208,-0.0941076309160311,-0.00518638821393072));
#501=CARTESIAN_POINT('',(5.87443818700459E-19,-0.0941076309160311,-0.00561370615044702));
#502=CARTESIAN_POINT('',(-0.00214827233794208,-0.0941076309160311,-0.00518638821393073));
#503=CARTESIAN_POINT('',(-0.00396948968656971,-0.0941076309160311,-0.00396948968656972));
#504=CARTESIAN_POINT('',(-0.00518638821393073,-0.0941076309160311,-0.00214827233794208));
#505=CARTESIAN_POINT('',(-0.00561370615044702,-0.0941076309160311,4.2351647362715E-19));
#506=CARTESIAN_POINT('',(-0.00518638821393073,-0.0941076309160311,0.00214827233794208));
#507=CARTESIAN_POINT('',(-0.00396948968656972,-0.0941076309160311,0.00396948968656972));
#508=CARTESIAN_POINT('',(-0.00214827233794207,-0.0941076309160311,0.00518638821393073));
#509=CARTESIAN_POINT('',(-4.93311988480905E-18,-0.0941076309160311,0.00561370615044702));
#510=CARTESIAN_POINT('',(0.00214827233794208,-0.0941076309160311,0.00518638821393072));
#511=CARTESIAN_POINT('',(-0.00170768716399384,-0.0962401628494264,0.00412272151160441));
#512=CARTESIAN_POINT('',(-3.27971157176865E-18,-0.0962401628494263,0.00446240160813827));
#513=CARTESIAN_POINT('',(0.00170768716399385,-0.0962401628494263,0.0041227215116044));
#514=CARTESIAN_POINT('',(0.00315539443749233,-0.0962401628494263,0.00315539443749233));
#515=CARTESIAN_POINT('',(0.0041227215116044,-0.0962401628494263,0.00170768716399385));
#516=CARTESIAN_POINT('',(0.00446240160813827,-0.0962401628494263,1.02660393207221E-18));
#517=CARTESIAN_POINT('',(0.0041227215116044,-0.0962401628494263,-0.00170768716399385));
#518=CARTESIAN_POINT('',(0.00315539443749233,-0.0962401628494263,-0.00315539443749233));
#519=CARTESIAN_POINT('',(0.00170768716399385,-0.0962401628494263,-0.0041227215116044));
#520=CARTESIAN_POINT('',(7.57409582245405E-19,-0.0962401628494263,-0.00446240160813827));
#521=CARTESIAN_POINT('',(-0.00170768716399385,-0.0962401628494263,-0.0041227215116044));
#522=CARTESIAN_POINT('',(-0.00315539443749233,-0.0962401628494263,-0.00315539443749233));
#523=CARTESIAN_POINT('',(-0.0041227215116044,-0.0962401628494263,-0.00170768716399385));
#524=CARTESIAN_POINT('',(-0.00446240160813827,-0.0962401628494263,-1.12485975395371E-18));
#525=CARTESIAN_POINT('',(-0.0041227215116044,-0.0962401628494264,0.00170768716399385));
#526=CARTESIAN_POINT('',(-0.00315539443749233,-0.0962401628494263,0.00315539443749233));
#527=CARTESIAN_POINT('',(-0.00170768716399384,-0.0962401628494264,0.00412272151160441));
#528=CARTESIAN_POINT('',(-3.27971157176865E-18,-0.0962401628494263,0.00446240160813827));
#529=CARTESIAN_POINT('',(0.00170768716399385,-0.0962401628494263,0.0041227215116044));
#530=CARTESIAN_POINT('',(0.,-0.0962401628494263,0.));
#531=CARTESIAN_POINT('',(0.,-0.0962401628494263,0.00434917490929365));
#532=CARTESIAN_POINT('',(0.,-0.0666664093732834,0.));
#533=CARTESIAN_POINT('',(0.,-0.0666664093732834,0.012535));
#534=CARTESIAN_POINT('',(0.,-0.0841706953942776,0.));
#535=CARTESIAN_POINT('',(0.,-0.0841706953942776,0.));
#536=CARTESIAN_POINT('',(0.,-0.0668775693951402,0.));
#537=CARTESIAN_POINT('',(0.,-0.0668775693951402,0.0148252863238402));
#538=CARTESIAN_POINT('',(-0.0058210928936558,-0.0668775693951402,0.0140533614116976));
#539=CARTESIAN_POINT('',(-1.09504419421036E-17,-0.0668775693951402,0.0152112487799115));
#540=CARTESIAN_POINT('',(0.00582109289365583,-0.0668775693951402,0.0140533614116975));
#541=CARTESIAN_POINT('',(0.010755977162591,-0.0668775693951402,0.010755977162591));
#542=CARTESIAN_POINT('',(0.0140533614116975,-0.0668775693951402,0.00582109289365583));
#543=CARTESIAN_POINT('',(0.0152112487799115,-0.0668775693951402,8.53809210832335E-19));
#544=CARTESIAN_POINT('',(0.0140533614116975,-0.0668775693951402,-0.00582109289365582));
#545=CARTESIAN_POINT('',(0.010755977162591,-0.0668775693951402,-0.010755977162591));
#546=CARTESIAN_POINT('',(0.00582109289365583,-0.0668775693951402,-0.0140533614116975));
#547=CARTESIAN_POINT('',(2.69808448713566E-18,-0.0668775693951402,-0.0152112487799115));
#548=CARTESIAN_POINT('',(-0.00582109289365583,-0.0668775693951402,-0.0140533614116975));
#549=CARTESIAN_POINT('',(-0.010755977162591,-0.0668775693951402,-0.010755977162591));
#550=CARTESIAN_POINT('',(-0.0140533614116975,-0.0668775693951402,-0.00582109289365583));
#551=CARTESIAN_POINT('',(-0.0152112487799115,-0.0668775693951402,-4.65529307810963E-18));
#552=CARTESIAN_POINT('',(-0.0140533614116975,-0.0668775693951402,0.00582109289365583));
#553=CARTESIAN_POINT('',(-0.010755977162591,-0.0668775693951402,0.010755977162591));
#554=CARTESIAN_POINT('',(-0.0058210928936558,-0.0668775693951402,0.0140533614116976));
#555=CARTESIAN_POINT('',(-1.09504419421036E-17,-0.0668775693951402,0.0152112487799115));
#556=CARTESIAN_POINT('',(0.00582109289365583,-0.0668775693951402,0.0140533614116975));
#557=CARTESIAN_POINT('',(-0.00572369469017052,-0.0695662246942962,0.0138182213478926));
#558=CARTESIAN_POINT('',(-1.22514845490862E-17,-0.0695662246942962,0.0149567350088728));
#559=CARTESIAN_POINT('',(0.00572369469017056,-0.0695662246942962,0.0138182213478926));
#560=CARTESIAN_POINT('',(0.0105760087491842,-0.0695662246942962,0.0105760087491842));
#561=CARTESIAN_POINT('',(0.0138182213478926,-0.0695662246942962,0.00572369469017055));
#562=CARTESIAN_POINT('',(0.0149567350088728,-0.0695662246942962,1.66018457661843E-18));
#563=CARTESIAN_POINT('',(0.0138182213478926,-0.0695662246942962,-0.00572369469017055));
#564=CARTESIAN_POINT('',(0.0105760087491842,-0.0695662246942962,-0.0105760087491842));
#565=CARTESIAN_POINT('',(0.00572369469017056,-0.0695662246942962,-0.0138182213478926));
#566=CARTESIAN_POINT('',(2.6627870360368E-18,-0.0695662246942962,-0.0149567350088728));
#567=CARTESIAN_POINT('',(-0.00572369469017056,-0.0695662246942962,-0.0138182213478926));
#568=CARTESIAN_POINT('',(-0.0105760087491842,-0.0695662246942962,-0.0105760087491842));
#569=CARTESIAN_POINT('',(-0.0138182213478926,-0.0695662246942962,-0.00572369469017056));
#570=CARTESIAN_POINT('',(-0.0149567350088728,-0.0695662246942962,-3.09675245516172E-18));
#571=CARTESIAN_POINT('',(-0.0138182213478926,-0.0695662246942962,0.00572369469017055));
#572=CARTESIAN_POINT('',(-0.0105760087491842,-0.0695662246942962,0.0105760087491842));
#573=CARTESIAN_POINT('',(-0.00572369469017052,-0.0695662246942962,0.0138182213478926));
#574=CARTESIAN_POINT('',(-1.22514845490862E-17,-0.0695662246942962,0.0149567350088728));
#575=CARTESIAN_POINT('',(0.00572369469017056,-0.0695662246942962,0.0138182213478926));
#576=CARTESIAN_POINT('',(-0.00552764528650406,-0.0749973078096555,0.0133449162186659));
#577=CARTESIAN_POINT('',(-1.02999206386123E-17,-0.0749973078096554,0.0144444332286394));
#578=CARTESIAN_POINT('',(0.00552764528650409,-0.0749973078096554,0.0133449162186659));
#579=CARTESIAN_POINT('',(0.0102137566863672,-0.0749973078096554,0.0102137566863672));
#580=CARTESIAN_POINT('',(0.0133449162186659,-0.0749973078096554,0.0055276452865041));
#581=CARTESIAN_POINT('',(0.0144444332286394,-0.0749973078096554,3.30004036250275E-18));
#582=CARTESIAN_POINT('',(0.0133449162186659,-0.0749973078096554,-0.0055276452865041));
#583=CARTESIAN_POINT('',(0.0102137566863672,-0.0749973078096554,-0.0102137566863672));
#584=CARTESIAN_POINT('',(0.00552764528650409,-0.0749973078096554,-0.0133449162186659));
#585=CARTESIAN_POINT('',(2.3803875749112E-18,-0.0749973078096554,-0.0144444332286394));
#586=CARTESIAN_POINT('',(-0.00552764528650409,-0.0749973078096554,-0.0133449162186659));
#587=CARTESIAN_POINT('',(-0.0102137566863672,-0.0749973078096554,-0.0102137566863672));
#588=CARTESIAN_POINT('',(-0.0133449162186659,-0.0749973078096554,-0.00552764528650409));
#589=CARTESIAN_POINT('',(-0.0144444332286394,-0.0749973078096554,-7.29803587354305E-18));
#590=CARTESIAN_POINT('',(-0.0133449162186659,-0.0749973078096554,0.0055276452865041));
#591=CARTESIAN_POINT('',(-0.0102137566863672,-0.0749973078096554,0.0102137566863672));
#592=CARTESIAN_POINT('',(-0.00552764528650406,-0.0749973078096555,0.0133449162186659));
#593=CARTESIAN_POINT('',(-1.02999206386123E-17,-0.0749973078096554,0.0144444332286394));
#594=CARTESIAN_POINT('',(0.00552764528650409,-0.0749973078096554,0.0133449162186659));
#595=CARTESIAN_POINT('',(-0.0051771657504801,-0.0802730373569474,0.0124987837694626));
#596=CARTESIAN_POINT('',(-1.09504419421036E-17,-0.0802730373569474,0.0135285860652075));
#597=CARTESIAN_POINT('',(0.00517716575048013,-0.0802730373569474,0.0124987837694626));
#598=CARTESIAN_POINT('',(0.00956615494657404,-0.0802730373569474,0.00956615494657405));
#599=CARTESIAN_POINT('',(0.0124987837694626,-0.0802730373569474,0.00517716575048013));
#600=CARTESIAN_POINT('',(0.0135285860652075,-0.0802730373569474,9.24959978401696E-19));
#601=CARTESIAN_POINT('',(0.0124987837694626,-0.0802730373569474,-0.00517716575048012));
#602=CARTESIAN_POINT('',(0.00956615494657405,-0.0802730373569474,-0.00956615494657406));
#603=CARTESIAN_POINT('',(0.00517716575048013,-0.0802730373569474,-0.0124987837694626));
#604=CARTESIAN_POINT('',(1.87442435526966E-18,-0.0802730373569474,-0.0135285860652075));
#605=CARTESIAN_POINT('',(-0.00517716575048012,-0.0802730373569474,-0.0124987837694626));
#606=CARTESIAN_POINT('',(-0.00956615494657404,-0.0802730373569474,-0.00956615494657405));
#607=CARTESIAN_POINT('',(-0.0124987837694626,-0.0802730373569474,-0.00517716575048013));
#608=CARTESIAN_POINT('',(-0.0135285860652075,-0.0802730373569474,-3.06964740084958E-18));
#609=CARTESIAN_POINT('',(-0.0124987837694626,-0.0802730373569474,0.00517716575048012));
#610=CARTESIAN_POINT('',(-0.00956615494657404,-0.0802730373569474,0.00956615494657405));
#611=CARTESIAN_POINT('',(-0.0051771657504801,-0.0802730373569474,0.0124987837694626));
#612=CARTESIAN_POINT('',(-1.09504419421036E-17,-0.0802730373569474,0.0135285860652075));
#613=CARTESIAN_POINT('',(0.00517716575048013,-0.0802730373569474,0.0124987837694626));
#614=CARTESIAN_POINT('',(-0.00492182058248466,-0.0828100421529303,0.0118823260018016));
#615=CARTESIAN_POINT('',(-9.97465998686664E-18,-0.0828100421529303,0.0128613369856815));
#616=CARTESIAN_POINT('',(0.00492182058248469,-0.0828100421529303,0.0118823260018016));
#617=CARTESIAN_POINT('',(0.00909433859770076,-0.0828100421529303,0.00909433859770076));
#618=CARTESIAN_POINT('',(0.0118823260018016,-0.0828100421529303,0.00492182058248469));
#619=CARTESIAN_POINT('',(0.0128613369856815,-0.0828100421529303,2.59869708217619E-18));
#620=CARTESIAN_POINT('',(0.0118823260018016,-0.0828100421529303,-0.00492182058248469));
#621=CARTESIAN_POINT('',(0.00909433859770076,-0.0828100421529303,-0.00909433859770076));
#622=CARTESIAN_POINT('',(0.00492182058248469,-0.0828100421529303,-0.0118823260018016));
#623=CARTESIAN_POINT('',(1.67161290396146E-18,-0.0828100421529303,-0.0128613369856815));
#624=CARTESIAN_POINT('',(-0.00492182058248468,-0.0828100421529303,-0.0118823260018016));
#625=CARTESIAN_POINT('',(-0.00909433859770076,-0.0828100421529303,-0.00909433859770076));
#626=CARTESIAN_POINT('',(-0.0118823260018016,-0.0828100421529303,-0.00492182058248469));
#627=CARTESIAN_POINT('',(-0.0128613369856815,-0.0828100421529303,-4.13352078260099E-18));
#628=CARTESIAN_POINT('',(-0.0118823260018016,-0.0828100421529303,0.00492182058248469));
#629=CARTESIAN_POINT('',(-0.00909433859770076,-0.0828100421529303,0.00909433859770077));
#630=CARTESIAN_POINT('',(-0.00492182058248466,-0.0828100421529303,0.0118823260018016));
#631=CARTESIAN_POINT('',(-9.97465998686664E-18,-0.0828100421529303,0.0128613369856815));
#632=CARTESIAN_POINT('',(0.00492182058248469,-0.0828100421529303,0.0118823260018016));
#633=CARTESIAN_POINT('',(0.,-0.0828100421529303,0.));
#634=CARTESIAN_POINT('',(0.,-0.0828100421529303,0.0125349999910549));
#635=CARTESIAN_POINT('',(-0.00492182058248466,-0.0828100421529303,0.0118823260018016));
#636=CARTESIAN_POINT('',(-9.97465998686664E-18,-0.0828100421529303,0.0128613369856815));
#637=CARTESIAN_POINT('',(0.00492182058248469,-0.0828100421529303,0.0118823260018016));
#638=CARTESIAN_POINT('',(0.00909433859770076,-0.0828100421529303,0.00909433859770076));
#639=CARTESIAN_POINT('',(0.0118823260018016,-0.0828100421529303,0.00492182058248469));
#640=CARTESIAN_POINT('',(0.0128613369856815,-0.0828100421529303,2.59869708217619E-18));
#641=CARTESIAN_POINT('',(0.0118823260018016,-0.0828100421529303,-0.00492182058248469));
#642=CARTESIAN_POINT('',(0.00909433859770076,-0.0828100421529303,-0.00909433859770076));
#643=CARTESIAN_POINT('',(0.00492182058248469,-0.0828100421529303,-0.0118823260018016));
#644=CARTESIAN_POINT('',(1.67161290396146E-18,-0.0828100421529303,-0.0128613369856815));
#645=CARTESIAN_POINT('',(-0.00492182058248468,-0.0828100421529303,-0.0118823260018016));
#646=CARTESIAN_POINT('',(-0.00909433859770076,-0.0828100421529303,-0.00909433859770076));
#647=CARTESIAN_POINT('',(-0.0118823260018016,-0.0828100421529303,-0.00492182058248469));
#648=CARTESIAN_POINT('',(-0.0128613369856815,-0.0828100421529303,-4.13352078260099E-18));
#649=CARTESIAN_POINT('',(-0.0118823260018016,-0.0828100421529303,0.00492182058248469));
#650=CARTESIAN_POINT('',(-0.00909433859770076,-0.0828100421529303,0.00909433859770077));
#651=CARTESIAN_POINT('',(-0.00492182058248466,-0.0828100421529303,0.0118823260018016));
#652=CARTESIAN_POINT('',(-9.97465998686664E-18,-0.0828100421529303,0.0128613369856815));
#653=CARTESIAN_POINT('',(0.00492182058248469,-0.0828100421529303,0.0118823260018016));
#654=CARTESIAN_POINT('',(-0.00464820007052467,-0.0855496243242204,0.0112217476508843));
#655=CARTESIAN_POINT('',(-1.01915004213637E-17,-0.0855496243242203,0.0121463321309666));
#656=CARTESIAN_POINT('',(0.0046482000705247,-0.0855496243242203,0.0112217476508843));
#657=CARTESIAN_POINT('',(0.00858875381635056,-0.0855496243242203,0.00858875381635057));
#658=CARTESIAN_POINT('',(0.0112217476508843,-0.0855496243242203,0.00464820007052469));
#659=CARTESIAN_POINT('',(0.0121463321309666,-0.0855496243242203,3.37796739365015E-18));
#660=CARTESIAN_POINT('',(0.0112217476508843,-0.0855496243242204,-0.0046482000705247));
#661=CARTESIAN_POINT('',(0.00858875381635057,-0.0855496243242204,-0.00858875381635057));
#662=CARTESIAN_POINT('',(0.0046482000705247,-0.0855496243242203,-0.0112217476508843));
#663=CARTESIAN_POINT('',(1.87259132303225E-18,-0.0855496243242204,-0.0121463321309666));
#664=CARTESIAN_POINT('',(-0.00464820007052469,-0.0855496243242204,-0.0112217476508843));
#665=CARTESIAN_POINT('',(-0.00858875381635056,-0.0855496243242204,-0.00858875381635056));
#666=CARTESIAN_POINT('',(-0.0112217476508843,-0.0855496243242203,-0.0046482000705247));
#667=CARTESIAN_POINT('',(-0.0121463321309666,-0.0855496243242204,-4.91279109407494E-18));
#668=CARTESIAN_POINT('',(-0.0112217476508843,-0.0855496243242204,0.00464820007052469));
#669=CARTESIAN_POINT('',(-0.00858875381635057,-0.0855496243242203,0.00858875381635057));
#670=CARTESIAN_POINT('',(-0.00464820007052467,-0.0855496243242204,0.0112217476508843));
#671=CARTESIAN_POINT('',(-1.01915004213637E-17,-0.0855496243242203,0.0121463321309666));
#672=CARTESIAN_POINT('',(0.0046482000705247,-0.0855496243242203,0.0112217476508843));
#673=CARTESIAN_POINT('',(-0.00389355902160279,-0.0906083471229293,0.00939988299585363));
#674=CARTESIAN_POINT('',(-7.37257477290143E-18,-0.0906083471229292,0.0101743600383731));
#675=CARTESIAN_POINT('',(0.00389355902160281,-0.0906083471229292,0.00939988299585361));
#676=CARTESIAN_POINT('',(0.00719435897736701,-0.0906083471229292,0.00719435897736702));
#677=CARTESIAN_POINT('',(0.00939988299585361,-0.0906083471229292,0.00389355902160281));
#678=CARTESIAN_POINT('',(0.0101743600383731,-0.0906083471229292,2.78165619878312E-18));
#679=CARTESIAN_POINT('',(0.00939988299585361,-0.0906083471229292,-0.00389355902160281));
#680=CARTESIAN_POINT('',(0.00719435897736702,-0.0906083471229292,-0.00719435897736701));
#681=CARTESIAN_POINT('',(0.00389355902160281,-0.0906083471229292,-0.00939988299585363));
#682=CARTESIAN_POINT('',(2.38208164080571E-18,-0.0906083471229292,-0.0101743600383731));
#683=CARTESIAN_POINT('',(-0.00389355902160281,-0.0906083471229292,-0.00939988299585362));
#684=CARTESIAN_POINT('',(-0.00719435897736701,-0.0906083471229292,-0.00719435897736702));
#685=CARTESIAN_POINT('',(-0.00939988299585362,-0.0906083471229292,-0.00389355902160281));
#686=CARTESIAN_POINT('',(-0.0101743600383731,-0.0906083471229292,-5.62429876976855E-19));
#687=CARTESIAN_POINT('',(-0.00939988299585363,-0.0906083471229293,0.00389355902160281));
#688=CARTESIAN_POINT('',(-0.00719435897736701,-0.0906083471229292,0.00719435897736702));
#689=CARTESIAN_POINT('',(-0.00389355902160279,-0.0906083471229293,0.00939988299585363));
#690=CARTESIAN_POINT('',(-7.37257477290143E-18,-0.0906083471229292,0.0101743600383731));
#691=CARTESIAN_POINT('',(0.00389355902160281,-0.0906083471229292,0.00939988299585361));
#692=CARTESIAN_POINT('',(-0.00296259181012192,-0.095103737441996,0.00715232932777184));
#693=CARTESIAN_POINT('',(-6.17995238316738E-18,-0.095103737441996,0.00774162547830276));
#694=CARTESIAN_POINT('',(0.00296259181012194,-0.095103737441996,0.00715232932777183));
#695=CARTESIAN_POINT('',(0.00547415587311444,-0.095103737441996,0.00547415587311444));
#696=CARTESIAN_POINT('',(0.00715232932777183,-0.095103737441996,0.00296259181012193));
#697=CARTESIAN_POINT('',(0.00774162547830277,-0.095103737441996,2.40557357020221E-19));
#698=CARTESIAN_POINT('',(0.00715232932777183,-0.095103737441996,-0.00296259181012193));
#699=CARTESIAN_POINT('',(0.00547415587311444,-0.095103737441996,-0.00547415587311443));
#700=CARTESIAN_POINT('',(0.00296259181012193,-0.095103737441996,-0.00715232932777183));
#701=CARTESIAN_POINT('',(1.03775101800698E-18,-0.095103737441996,-0.00774162547830276));
#702=CARTESIAN_POINT('',(-0.00296259181012193,-0.095103737441996,-0.00715232932777184));
#703=CARTESIAN_POINT('',(-0.00547415587311444,-0.095103737441996,-0.00547415587311443));
#704=CARTESIAN_POINT('',(-0.00715232932777183,-0.095103737441996,-0.00296259181012193));
#705=CARTESIAN_POINT('',(-0.00774162547830277,-0.095103737441996,-3.2695471764016E-18));
#706=CARTESIAN_POINT('',(-0.00715232932777183,-0.095103737441996,0.00296259181012193));
#707=CARTESIAN_POINT('',(-0.00547415587311444,-0.095103737441996,0.00547415587311444));
#708=CARTESIAN_POINT('',(-0.00296259181012192,-0.095103737441996,0.00715232932777184));
#709=CARTESIAN_POINT('',(-6.17995238316738E-18,-0.095103737441996,0.00774162547830276));
#710=CARTESIAN_POINT('',(0.00296259181012194,-0.095103737441996,0.00715232932777183));
#711=CARTESIAN_POINT('',(-0.00250690918188191,-0.0973110676971031,0.00605221414653698));
#712=CARTESIAN_POINT('',(-4.82469966756049E-18,-0.097311067697103,0.00655086938671091));
#713=CARTESIAN_POINT('',(0.00250690918188192,-0.097311067697103,0.00605221414653698));
#714=CARTESIAN_POINT('',(0.00463216416601064,-0.097311067697103,0.00463216416601065));
#715=CARTESIAN_POINT('',(0.00605221414653698,-0.097311067697103,0.00250690918188192));
#716=CARTESIAN_POINT('',(0.00655086938671091,-0.097311067697103,8.41950749570775E-19));
#717=CARTESIAN_POINT('',(0.00605221414653698,-0.097311067697103,-0.00250690918188192));
#718=CARTESIAN_POINT('',(0.00463216416601065,-0.097311067697103,-0.00463216416601065));
#719=CARTESIAN_POINT('',(0.00250690918188192,-0.097311067697103,-0.00605221414653698));
#720=CARTESIAN_POINT('',(1.1099142546461E-18,-0.097311067697103,-0.00655086938671091));
#721=CARTESIAN_POINT('',(-0.00250690918188192,-0.097311067697103,-0.00605221414653698));
#722=CARTESIAN_POINT('',(-0.00463216416601064,-0.097311067697103,-0.00463216416601065));
#723=CARTESIAN_POINT('',(-0.00605221414653698,-0.097311067697103,-0.00250690918188192));
#724=CARTESIAN_POINT('',(-0.00655086938671091,-0.097311067697103,-2.07014852308951E-18));
#725=CARTESIAN_POINT('',(-0.00605221414653698,-0.097311067697103,0.00250690918188192));
#726=CARTESIAN_POINT('',(-0.00463216416601064,-0.097311067697103,0.00463216416601065));
#727=CARTESIAN_POINT('',(-0.00250690918188191,-0.0973110676971031,0.00605221414653698));
#728=CARTESIAN_POINT('',(-4.82469966756049E-18,-0.097311067697103,0.00655086938671091));
#729=CARTESIAN_POINT('',(0.00250690918188192,-0.097311067697103,0.00605221414653698));
#730=CARTESIAN_POINT('',(0.,-0.097311067697103,0.));
#731=CARTESIAN_POINT('',(0.,-0.097311067697103,0.0063846509733196));
#732=CARTESIAN_POINT('',(0.,-0.097311067697103,0.));
#733=MECHANICAL_DESIGN_GEOMETRIC_PRESENTATION_REPRESENTATION('',(#214),#734);
#734=(
GEOMETRIC_REPRESENTATION_CONTEXT(3)
GLOBAL_UNCERTAINTY_ASSIGNED_CONTEXT((#735))
GLOBAL_UNIT_ASSIGNED_CONTEXT((#738,#737,#736))
REPRESENTATION_CONTEXT('Part 2','TOP_LEVEL_ASSEMBLY_PART')
);
#735=UNCERTAINTY_MEASURE_WITH_UNIT(LENGTH_MEASURE(2.E-05),#738,'DISTANCE_ACCURACY_VALUE','Maximum Tolerance applied to model');
#736=(
NAMED_UNIT(*)
SI_UNIT($,.STERADIAN.)
SOLID_ANGLE_UNIT()
);
#737=(
NAMED_UNIT(*)
PLANE_ANGLE_UNIT()
SI_UNIT($,.RADIAN.)
);
#738=(
LENGTH_UNIT()
NAMED_UNIT(*)
SI_UNIT($,.METRE.)
);
#739=PRODUCT_DEFINITION_SHAPE('','',#740);
#740=PRODUCT_DEFINITION('','',#742,#741);
#741=PRODUCT_DEFINITION_CONTEXT('',#748,'design');
#742=PRODUCT_DEFINITION_FORMATION_WITH_SPECIFIED_SOURCE('','',#744,.NOT_KNOWN.);
#743=PRODUCT_RELATED_PRODUCT_CATEGORY('','',(#744));
#744=PRODUCT('Part 2','Part 2','Part 2',(#746));
#745=PRODUCT_CATEGORY('','');
#746=PRODUCT_CONTEXT('',#748,'mechanical');
#747=APPLICATION_PROTOCOL_DEFINITION('international standard','ap242_managed_model_based_3d_engineering',2020,#748);
#748=APPLICATION_CONTEXT('managed model based 3d engineering');
ENDSEC;
END-ISO-10303-21;
