ISO-10303-21;
HEADER;
/*Generated by software containing ST-Developer
 * from STEP Tools, Inc. (www.steptools.com) 
 */
/*OPTION: using custom renumber hook */
/*description */
/*implementation_level */
FILE_DESCRIPTION(('STEP AP242 Edition 2','STEP AP242 Edition 2''CAx-IF Rec.Pracs.---Representation and Presentation of Product Manufa
cturing Information (PMI)---4.0---2014-10-13','STEP AP242 Edition 2''CAx-IF Rec.Pracs.---Representation and Presentation of Product Manufa
cturing Information (PMI)---4.0---2014-10-13''CAx-IF Rec.Pracs.---3D Tessellated Geometry---0.4---2014-09-14','STEP AP242 Edition 2''CAx-IF Rec.Pracs.---Representation and Presentation of Product Manufa
cturing Information (PMI)---4.0---2014-10-13''CAx-IF Rec.Pracs.---3D Tessellated Geometry---0.4---2014-09-14''2;1','STEP AP242 Edition 2''CAx-IF Rec.Pracs.---Representation and Presentation of Product Manufa
cturing Information (PMI)---4.0---2014-10-13''CAx-IF Rec.Pracs.---3D Tessellated Geometry---0.4---2014-09-14''2;1''CAx-IF Rec.Pracs.---User Defined Attributes---1.5---2016-08-15'),'2;1');
/*name */
/*time_stamp */
/*author */
/*organization */
/*preprocessor_version */
/*originating_system */
/*authorisation */
FILE_NAME('/vol/tmp/translate-6596636661662437601/Part Studio 2 - Part 1.step','2026-03-25T16:23:57',(''),(''),'ST-DEVELOPER v20','ONSHAPE BY PTC INC, 1.212','  ');
FILE_SCHEMA(('AP242_MANAGED_MODEL_BASED_3D_ENGINEERING_MIM_LF { 1 0 10303 442 3 1 4 }'));
ENDSEC;
DATA;
#10=SHAPE_REPRESENTATION_RELATIONSHIP('','',#255,#11);
#11=ADVANCED_BREP_SHAPE_REPRESENTATION('',(#253),#453);
#12=PLANE('',#263);
#13=PLANE('',#265);
#14=PLANE('',#271);
#15=PLANE('',#276);
#16=PLANE('',#292);
#17=PLANE('',#293);
#18=B_SPLINE_CURVE_WITH_KNOTS('',3,(#374,#375,#376,#377,#378,#379,#380,#381,#382,#383,#384),.UNSPECIFIED.,.T.,.F.,(1,1,1,1,1,1,1,1,1,1,1,1,1,1,1),(-0.00748036022250723,-0.00498690681500482,-0.00249345340750241,6.31648980166887E-19,0.00249345340750241,0.00498690681500482,0.00748036022250723,0.00997381363000965,0.0124672670375121,0.0149607204450145,0.0174541738525169,0.0199476272600193,0.0224410806675217,0.0249345340750241,0.0274279874825265),.UNSPECIFIED.);
#19=B_SPLINE_CURVE_WITH_KNOTS('',3,(#389,#390,#391,#392,#393,#394,#395,#396,#397,#398,#399),.UNSPECIFIED.,.T.,.F.,(1,1,1,1,1,1,1,1,1,1,1,1,1,1,1),(-0.00541633105867922,-0.00361088737245281,-0.0018054436862264,1.63030210302235E-18,0.00180544368622641,0.00361088737245281,0.00541633105867922,0.00722177474490563,0.00902721843113203,0.0108326621173584,0.0126381058035848,0.0144435494898113,0.0162489931760377,0.0180544368622641,0.0198598805484905),.UNSPECIFIED.);
#20=ORIENTED_EDGE('',*,*,#64,.T.);
#21=ORIENTED_EDGE('',*,*,#65,.T.);
#22=ORIENTED_EDGE('',*,*,#66,.F.);
#23=ORIENTED_EDGE('',*,*,#67,.F.);
#24=ORIENTED_EDGE('',*,*,#68,.F.);
#25=ORIENTED_EDGE('',*,*,#69,.T.);
#26=ORIENTED_EDGE('',*,*,#70,.F.);
#27=ORIENTED_EDGE('',*,*,#64,.F.);
#28=ORIENTED_EDGE('',*,*,#71,.F.);
#29=ORIENTED_EDGE('',*,*,#68,.T.);
#30=ORIENTED_EDGE('',*,*,#72,.T.);
#31=ORIENTED_EDGE('',*,*,#71,.T.);
#32=ORIENTED_EDGE('',*,*,#73,.F.);
#33=ORIENTED_EDGE('',*,*,#70,.T.);
#34=ORIENTED_EDGE('',*,*,#72,.F.);
#35=ORIENTED_EDGE('',*,*,#73,.T.);
#36=ORIENTED_EDGE('',*,*,#74,.F.);
#37=ORIENTED_EDGE('',*,*,#65,.F.);
#38=ORIENTED_EDGE('',*,*,#75,.T.);
#39=ORIENTED_EDGE('',*,*,#67,.T.);
#40=ORIENTED_EDGE('',*,*,#74,.T.);
#41=ORIENTED_EDGE('',*,*,#75,.F.);
#42=ORIENTED_EDGE('',*,*,#76,.T.);
#43=ORIENTED_EDGE('',*,*,#77,.F.);
#44=ORIENTED_EDGE('',*,*,#78,.T.);
#45=ORIENTED_EDGE('',*,*,#79,.F.);
#46=ORIENTED_EDGE('',*,*,#80,.F.);
#47=ORIENTED_EDGE('',*,*,#81,.T.);
#48=ORIENTED_EDGE('',*,*,#82,.F.);
#49=ORIENTED_EDGE('',*,*,#83,.T.);
#50=ORIENTED_EDGE('',*,*,#84,.T.);
#51=ORIENTED_EDGE('',*,*,#85,.F.);
#52=ORIENTED_EDGE('',*,*,#82,.T.);
#53=ORIENTED_EDGE('',*,*,#80,.T.);
#54=ORIENTED_EDGE('',*,*,#78,.F.);
#55=ORIENTED_EDGE('',*,*,#66,.T.);
#56=ORIENTED_EDGE('',*,*,#76,.F.);
#57=ORIENTED_EDGE('',*,*,#84,.F.);
#58=ORIENTED_EDGE('',*,*,#69,.F.);
#59=ORIENTED_EDGE('',*,*,#83,.F.);
#60=ORIENTED_EDGE('',*,*,#81,.F.);
#61=ORIENTED_EDGE('',*,*,#79,.T.);
#62=ORIENTED_EDGE('',*,*,#77,.T.);
#63=ORIENTED_EDGE('',*,*,#85,.T.);
#64=EDGE_CURVE('',#86,#86,#108,.T.);
#65=EDGE_CURVE('',#87,#87,#18,.T.);
#66=EDGE_CURVE('',#88,#88,#109,.T.);
#67=EDGE_CURVE('',#89,#89,#19,.T.);
#68=EDGE_CURVE('',#90,#90,#110,.T.);
#69=EDGE_CURVE('',#91,#91,#111,.T.);
#70=EDGE_CURVE('',#92,#92,#112,.T.);
#71=EDGE_CURVE('',#93,#93,#113,.T.);
#72=EDGE_CURVE('',#94,#94,#114,.T.);
#73=EDGE_CURVE('',#95,#95,#115,.T.);
#74=EDGE_CURVE('',#96,#96,#116,.T.);
#75=EDGE_CURVE('',#97,#97,#117,.T.);
#76=EDGE_CURVE('',#98,#98,#118,.T.);
#77=EDGE_CURVE('',#99,#99,#119,.T.);
#78=EDGE_CURVE('',#100,#100,#120,.T.);
#79=EDGE_CURVE('',#101,#101,#121,.T.);
#80=EDGE_CURVE('',#102,#102,#122,.T.);
#81=EDGE_CURVE('',#103,#103,#123,.T.);
#82=EDGE_CURVE('',#104,#104,#124,.T.);
#83=EDGE_CURVE('',#105,#105,#125,.T.);
#84=EDGE_CURVE('',#106,#106,#126,.T.);
#85=EDGE_CURVE('',#107,#107,#127,.T.);
#86=VERTEX_POINT('',#373);
#87=VERTEX_POINT('',#385);
#88=VERTEX_POINT('',#387);
#89=VERTEX_POINT('',#400);
#90=VERTEX_POINT('',#402);
#91=VERTEX_POINT('',#404);
#92=VERTEX_POINT('',#407);
#93=VERTEX_POINT('',#410);
#94=VERTEX_POINT('',#413);
#95=VERTEX_POINT('',#416);
#96=VERTEX_POINT('',#420);
#97=VERTEX_POINT('',#423);
#98=VERTEX_POINT('',#427);
#99=VERTEX_POINT('',#429);
#100=VERTEX_POINT('',#432);
#101=VERTEX_POINT('',#434);
#102=VERTEX_POINT('',#437);
#103=VERTEX_POINT('',#439);
#104=VERTEX_POINT('',#442);
#105=VERTEX_POINT('',#444);
#106=VERTEX_POINT('',#447);
#107=VERTEX_POINT('',#449);
#108=CIRCLE('',#258,0.0115);
#109=CIRCLE('',#259,0.0115);
#110=CIRCLE('',#261,0.009535);
#111=CIRCLE('',#262,0.009535);
#112=CIRCLE('',#264,0.003175);
#113=CIRCLE('',#266,0.00258149695063494);
#114=CIRCLE('',#268,0.00258149695063494);
#115=CIRCLE('',#270,0.003175);
#116=CIRCLE('',#273,0.003175);
#117=CIRCLE('',#275,0.00230164350967369);
#118=CIRCLE('',#278,0.0214292936342272);
#119=CIRCLE('',#279,0.0214292936342272);
#120=CIRCLE('',#281,0.0015);
#121=CIRCLE('',#282,0.0015);
#122=CIRCLE('',#284,0.0015);
#123=CIRCLE('',#285,0.0015);
#124=CIRCLE('',#287,0.0015);
#125=CIRCLE('',#288,0.0015);
#126=CIRCLE('',#290,0.0015);
#127=CIRCLE('',#291,0.0015);
#128=EDGE_LOOP('',(#20));
#129=EDGE_LOOP('',(#21));
#130=EDGE_LOOP('',(#22));
#131=EDGE_LOOP('',(#23));
#132=EDGE_LOOP('',(#24));
#133=EDGE_LOOP('',(#25));
#134=EDGE_LOOP('',(#26));
#135=EDGE_LOOP('',(#27));
#136=EDGE_LOOP('',(#28));
#137=EDGE_LOOP('',(#29));
#138=EDGE_LOOP('',(#30));
#139=EDGE_LOOP('',(#31));
#140=EDGE_LOOP('',(#32));
#141=EDGE_LOOP('',(#33));
#142=EDGE_LOOP('',(#34));
#143=EDGE_LOOP('',(#35));
#144=EDGE_LOOP('',(#36));
#145=EDGE_LOOP('',(#37));
#146=EDGE_LOOP('',(#38));
#147=EDGE_LOOP('',(#39));
#148=EDGE_LOOP('',(#40));
#149=EDGE_LOOP('',(#41));
#150=EDGE_LOOP('',(#42));
#151=EDGE_LOOP('',(#43));
#152=EDGE_LOOP('',(#44));
#153=EDGE_LOOP('',(#45));
#154=EDGE_LOOP('',(#46));
#155=EDGE_LOOP('',(#47));
#156=EDGE_LOOP('',(#48));
#157=EDGE_LOOP('',(#49));
#158=EDGE_LOOP('',(#50));
#159=EDGE_LOOP('',(#51));
#160=EDGE_LOOP('',(#52));
#161=EDGE_LOOP('',(#53));
#162=EDGE_LOOP('',(#54));
#163=EDGE_LOOP('',(#55));
#164=EDGE_LOOP('',(#56));
#165=EDGE_LOOP('',(#57));
#166=EDGE_LOOP('',(#58));
#167=EDGE_LOOP('',(#59));
#168=EDGE_LOOP('',(#60));
#169=EDGE_LOOP('',(#61));
#170=EDGE_LOOP('',(#62));
#171=EDGE_LOOP('',(#63));
#172=FACE_BOUND('',#128,.T.);
#173=FACE_BOUND('',#129,.T.);
#174=FACE_BOUND('',#130,.T.);
#175=FACE_BOUND('',#131,.T.);
#176=FACE_BOUND('',#132,.T.);
#177=FACE_BOUND('',#133,.T.);
#178=FACE_BOUND('',#134,.T.);
#179=FACE_BOUND('',#135,.T.);
#180=FACE_BOUND('',#136,.T.);
#181=FACE_BOUND('',#137,.T.);
#182=FACE_BOUND('',#138,.T.);
#183=FACE_BOUND('',#139,.T.);
#184=FACE_BOUND('',#140,.T.);
#185=FACE_BOUND('',#141,.T.);
#186=FACE_BOUND('',#142,.T.);
#187=FACE_BOUND('',#143,.T.);
#188=FACE_BOUND('',#144,.T.);
#189=FACE_BOUND('',#145,.T.);
#190=FACE_BOUND('',#146,.T.);
#191=FACE_BOUND('',#147,.T.);
#192=FACE_BOUND('',#148,.T.);
#193=FACE_BOUND('',#149,.T.);
#194=FACE_BOUND('',#150,.T.);
#195=FACE_BOUND('',#151,.T.);
#196=FACE_BOUND('',#152,.T.);
#197=FACE_BOUND('',#153,.T.);
#198=FACE_BOUND('',#154,.T.);
#199=FACE_BOUND('',#155,.T.);
#200=FACE_BOUND('',#156,.T.);
#201=FACE_BOUND('',#157,.T.);
#202=FACE_BOUND('',#158,.T.);
#203=FACE_BOUND('',#159,.T.);
#204=FACE_BOUND('',#160,.T.);
#205=FACE_BOUND('',#161,.T.);
#206=FACE_BOUND('',#162,.T.);
#207=FACE_BOUND('',#163,.T.);
#208=FACE_BOUND('',#164,.T.);
#209=FACE_BOUND('',#165,.T.);
#210=FACE_BOUND('',#166,.T.);
#211=FACE_BOUND('',#167,.T.);
#212=FACE_BOUND('',#168,.T.);
#213=FACE_BOUND('',#169,.T.);
#214=FACE_BOUND('',#170,.T.);
#215=FACE_BOUND('',#171,.T.);
#216=CYLINDRICAL_SURFACE('',#257,0.0115);
#217=CYLINDRICAL_SURFACE('',#260,0.009535);
#218=CYLINDRICAL_SURFACE('',#267,0.00258149695063494);
#219=CYLINDRICAL_SURFACE('',#269,0.003175);
#220=CYLINDRICAL_SURFACE('',#272,0.003175);
#221=CYLINDRICAL_SURFACE('',#274,0.00230164350967369);
#222=CYLINDRICAL_SURFACE('',#277,0.0214292936342272);
#223=CYLINDRICAL_SURFACE('',#280,0.0015);
#224=CYLINDRICAL_SURFACE('',#283,0.0015);
#225=CYLINDRICAL_SURFACE('',#286,0.0015);
#226=CYLINDRICAL_SURFACE('',#289,0.0015);
#227=ADVANCED_FACE('',(#172,#173,#174),#216,.T.);
#228=ADVANCED_FACE('',(#175,#176,#177),#217,.F.);
#229=ADVANCED_FACE('',(#178,#179),#12,.F.);
#230=ADVANCED_FACE('',(#180,#181),#13,.T.);
#231=ADVANCED_FACE('',(#182,#183),#218,.F.);
#232=ADVANCED_FACE('',(#184,#185),#219,.T.);
#233=ADVANCED_FACE('',(#186,#187),#14,.T.);
#234=ADVANCED_FACE('',(#188,#189),#220,.T.);
#235=ADVANCED_FACE('',(#190,#191),#221,.F.);
#236=ADVANCED_FACE('',(#192,#193),#15,.T.);
#237=ADVANCED_FACE('',(#194,#195),#222,.T.);
#238=ADVANCED_FACE('',(#196,#197),#223,.F.);
#239=ADVANCED_FACE('',(#198,#199),#224,.F.);
#240=ADVANCED_FACE('',(#200,#201),#225,.F.);
#241=ADVANCED_FACE('',(#202,#203),#226,.F.);
#242=ADVANCED_FACE('',(#204,#205,#206,#207,#208,#209),#16,.F.);
#243=ADVANCED_FACE('',(#210,#211,#212,#213,#214,#215),#17,.T.);
#244=CLOSED_SHELL('',(#227,#228,#229,#230,#231,#232,#233,#234,#235,#236,#237,#238,#239,#240,#241,#242,#243));
#245=STYLED_ITEM('',(#246),#253);
#246=PRESENTATION_STYLE_ASSIGNMENT((#247));
#247=SURFACE_STYLE_USAGE(.BOTH.,#248);
#248=SURFACE_SIDE_STYLE('',(#249));
#249=SURFACE_STYLE_FILL_AREA(#250);
#250=FILL_AREA_STYLE('',(#251));
#251=FILL_AREA_STYLE_COLOUR('',#252);
#252=COLOUR_RGB('',0.615686274509804,0.811764705882353,0.929411764705882);
#253=MANIFOLD_SOLID_BREP('Part 1',#244);
#254=SHAPE_DEFINITION_REPRESENTATION(#458,#255);
#255=SHAPE_REPRESENTATION('Part 1',(#256),#453);
#256=AXIS2_PLACEMENT_3D('',#370,#294,#295);
#257=AXIS2_PLACEMENT_3D('',#371,#296,#297);
#258=AXIS2_PLACEMENT_3D('',#372,#298,#299);
#259=AXIS2_PLACEMENT_3D('',#386,#300,#301);
#260=AXIS2_PLACEMENT_3D('',#388,#302,#303);
#261=AXIS2_PLACEMENT_3D('',#401,#304,#305);
#262=AXIS2_PLACEMENT_3D('',#403,#306,#307);
#263=AXIS2_PLACEMENT_3D('',#405,#308,#309);
#264=AXIS2_PLACEMENT_3D('',#406,#310,#311);
#265=AXIS2_PLACEMENT_3D('',#408,#312,#313);
#266=AXIS2_PLACEMENT_3D('',#409,#314,#315);
#267=AXIS2_PLACEMENT_3D('',#411,#316,#317);
#268=AXIS2_PLACEMENT_3D('',#412,#318,#319);
#269=AXIS2_PLACEMENT_3D('',#414,#320,#321);
#270=AXIS2_PLACEMENT_3D('',#415,#322,#323);
#271=AXIS2_PLACEMENT_3D('',#417,#324,#325);
#272=AXIS2_PLACEMENT_3D('',#418,#326,#327);
#273=AXIS2_PLACEMENT_3D('',#419,#328,#329);
#274=AXIS2_PLACEMENT_3D('',#421,#330,#331);
#275=AXIS2_PLACEMENT_3D('',#422,#332,#333);
#276=AXIS2_PLACEMENT_3D('',#424,#334,#335);
#277=AXIS2_PLACEMENT_3D('',#425,#336,#337);
#278=AXIS2_PLACEMENT_3D('',#426,#338,#339);
#279=AXIS2_PLACEMENT_3D('',#428,#340,#341);
#280=AXIS2_PLACEMENT_3D('',#430,#342,#343);
#281=AXIS2_PLACEMENT_3D('',#431,#344,#345);
#282=AXIS2_PLACEMENT_3D('',#433,#346,#347);
#283=AXIS2_PLACEMENT_3D('',#435,#348,#349);
#284=AXIS2_PLACEMENT_3D('',#436,#350,#351);
#285=AXIS2_PLACEMENT_3D('',#438,#352,#353);
#286=AXIS2_PLACEMENT_3D('',#440,#354,#355);
#287=AXIS2_PLACEMENT_3D('',#441,#356,#357);
#288=AXIS2_PLACEMENT_3D('',#443,#358,#359);
#289=AXIS2_PLACEMENT_3D('',#445,#360,#361);
#290=AXIS2_PLACEMENT_3D('',#446,#362,#363);
#291=AXIS2_PLACEMENT_3D('',#448,#364,#365);
#292=AXIS2_PLACEMENT_3D('',#450,#366,#367);
#293=AXIS2_PLACEMENT_3D('',#451,#368,#369);
#294=DIRECTION('',(0.,0.,1.));
#295=DIRECTION('',(1.,0.,0.));
#296=DIRECTION('',(0.,1.,0.));
#297=DIRECTION('',(0.,0.,1.));
#298=DIRECTION('',(0.,-1.,0.));
#299=DIRECTION('',(0.,0.,-1.));
#300=DIRECTION('',(0.,-1.,0.));
#301=DIRECTION('',(0.,0.,-1.));
#302=DIRECTION('',(0.,1.,0.));
#303=DIRECTION('',(0.,0.,1.));
#304=DIRECTION('',(0.,-1.,0.));
#305=DIRECTION('',(0.,0.,-1.));
#306=DIRECTION('',(0.,-1.,0.));
#307=DIRECTION('',(0.,0.,-1.));
#308=DIRECTION('',(0.,-1.,0.));
#309=DIRECTION('',(1.,0.,0.));
#310=DIRECTION('',(0.,1.,0.));
#311=DIRECTION('',(0.,0.,1.));
#312=DIRECTION('',(0.,-1.,0.));
#313=DIRECTION('',(0.,0.,-1.));
#314=DIRECTION('',(0.,-1.,0.));
#315=DIRECTION('',(0.,0.,-1.));
#316=DIRECTION('',(0.,-1.,0.));
#317=DIRECTION('',(0.,0.,-1.));
#318=DIRECTION('',(0.,1.,0.));
#319=DIRECTION('',(0.,0.,1.));
#320=DIRECTION('',(0.,-1.,0.));
#321=DIRECTION('',(0.,0.,-1.));
#322=DIRECTION('',(0.,1.,0.));
#323=DIRECTION('',(0.,0.,1.));
#324=DIRECTION('',(0.,1.,0.));
#325=DIRECTION('',(-1.,0.,0.));
#326=DIRECTION('',(0.,0.,1.));
#327=DIRECTION('',(1.,0.,0.));
#328=DIRECTION('',(0.,0.,1.));
#329=DIRECTION('',(1.,0.,0.));
#330=DIRECTION('',(0.,0.,1.));
#331=DIRECTION('',(1.,0.,0.));
#332=DIRECTION('',(0.,0.,1.));
#333=DIRECTION('',(1.,0.,0.));
#334=DIRECTION('',(0.,0.,1.));
#335=DIRECTION('',(1.,0.,0.));
#336=DIRECTION('',(0.,-1.,0.));
#337=DIRECTION('',(0.,0.,-1.));
#338=DIRECTION('',(0.,-1.,0.));
#339=DIRECTION('',(0.,0.,-1.));
#340=DIRECTION('',(0.,-1.,0.));
#341=DIRECTION('',(0.,0.,-1.));
#342=DIRECTION('',(0.,-1.,0.));
#343=DIRECTION('',(0.,0.,-1.));
#344=DIRECTION('',(0.,1.,0.));
#345=DIRECTION('',(0.,0.,-1.));
#346=DIRECTION('',(0.,1.,0.));
#347=DIRECTION('',(0.,0.,-1.));
#348=DIRECTION('',(0.,-1.,0.));
#349=DIRECTION('',(0.,0.,-1.));
#350=DIRECTION('',(0.,-1.,0.));
#351=DIRECTION('',(0.,0.,-1.));
#352=DIRECTION('',(0.,-1.,0.));
#353=DIRECTION('',(0.,0.,-1.));
#354=DIRECTION('',(0.,-1.,0.));
#355=DIRECTION('',(0.,0.,-1.));
#356=DIRECTION('',(0.,-1.,0.));
#357=DIRECTION('',(0.,0.,-1.));
#358=DIRECTION('',(0.,-1.,0.));
#359=DIRECTION('',(0.,0.,-1.));
#360=DIRECTION('',(0.,-1.,0.));
#361=DIRECTION('',(0.,0.,-1.));
#362=DIRECTION('',(0.,1.,0.));
#363=DIRECTION('',(0.,0.,-1.));
#364=DIRECTION('',(0.,1.,0.));
#365=DIRECTION('',(0.,0.,-1.));
#366=DIRECTION('',(0.,-1.,0.));
#367=DIRECTION('',(1.,0.,0.));
#368=DIRECTION('',(0.,-1.,0.));
#369=DIRECTION('',(1.,0.,0.));
#370=CARTESIAN_POINT('',(0.,0.,0.));
#371=CARTESIAN_POINT('',(0.,-0.06,7.04171909509728E-19));
#372=CARTESIAN_POINT('',(0.,0.,7.04171909509728E-19));
#373=CARTESIAN_POINT('',(0.,0.,-0.0115));
#374=CARTESIAN_POINT('',(0.00249012459775479,-0.0319699276491579,0.0112804948334605));
#375=CARTESIAN_POINT('',(-3.57811703552717E-07,-0.0330035298411224,0.0116096939248203));
#376=CARTESIAN_POINT('',(-0.00248869335094058,-0.0319699645041156,0.0112807294672581));
#377=CARTESIAN_POINT('',(-0.00351839982452011,-0.0294878602480808,0.0109391250045666));
#378=CARTESIAN_POINT('',(-0.00248770330424083,-0.0269950229737446,0.0112809253001806));
#379=CARTESIAN_POINT('',(-1.7179647514685E-06,-0.02596622203993,0.0116094282113129));
#380=CARTESIAN_POINT('',(0.00248644505672676,-0.0269941021191709,0.0112813613755924));
#381=CARTESIAN_POINT('',(0.00351835718361862,-0.0294830367903038,0.0109390744692487));
#382=CARTESIAN_POINT('',(0.00249012459775479,-0.0319699276491579,0.0112804948334605));
#383=CARTESIAN_POINT('',(-3.57811703552717E-07,-0.0330035298411224,0.0116096939248203));
#384=CARTESIAN_POINT('',(-0.00248869335094058,-0.0319699645041156,0.0112807294672581));
#385=CARTESIAN_POINT('',(6.50433675054902E-19,-0.0326590019196272,0.0115));
#386=CARTESIAN_POINT('',(0.,-0.0593,7.04171909509728E-19));
#387=CARTESIAN_POINT('',(0.,-0.0593,-0.0115));
#388=CARTESIAN_POINT('',(0.,-0.06,5.83850361493501E-19));
#389=CARTESIAN_POINT('',(0.00180538488082456,-0.0312860037560455,0.00939581454756981));
#390=CARTESIAN_POINT('',(-3.46852996932717E-07,-0.0320353907642387,0.00960454227848266));
#391=CARTESIAN_POINT('',(-0.00180399746883683,-0.0312863057628052,0.00939601633849955));
#392=CARTESIAN_POINT('',(-0.00255055023708791,-0.0294866031926588,0.00918152647241968));
#393=CARTESIAN_POINT('',(-0.00180365994757216,-0.0276799178135537,0.00939609020652872));
#394=CARTESIAN_POINT('',(-1.04591898311267E-06,-0.0269338803594021,0.0096043596003396));
#395=CARTESIAN_POINT('',(0.00180203312483676,-0.0276787124309427,0.009396471097043));
#396=CARTESIAN_POINT('',(0.00255061022203391,-0.0294828909616864,0.0091814816646248));
#397=CARTESIAN_POINT('',(0.00180538488082456,-0.0312860037560455,0.00939581454756981));
#398=CARTESIAN_POINT('',(-3.46852996932717E-07,-0.0320353907642387,0.00960454227848266));
#399=CARTESIAN_POINT('',(-0.00180399746883683,-0.0312863057628052,0.00939601633849955));
#400=CARTESIAN_POINT('',(1.67851042268029E-18,-0.0317856454293009,0.009535));
#401=CARTESIAN_POINT('',(0.,-0.003,5.83850361493501E-19));
#402=CARTESIAN_POINT('',(0.,-0.003,-0.009535));
#403=CARTESIAN_POINT('',(0.,-0.063,5.83850361493501E-19));
#404=CARTESIAN_POINT('',(0.,-0.063,-0.009535));
#405=CARTESIAN_POINT('',(0.,0.,0.));
#406=CARTESIAN_POINT('',(0.,0.,1.94412679364643E-19));
#407=CARTESIAN_POINT('',(0.,0.,0.003175));
#408=CARTESIAN_POINT('',(0.,-0.003,5.83850361493501E-19));
#409=CARTESIAN_POINT('',(0.,-0.003,1.58071098880187E-19));
#410=CARTESIAN_POINT('',(0.,-0.003,-0.00258149695063494));
#411=CARTESIAN_POINT('',(0.,0.0201,1.58071098880187E-19));
#412=CARTESIAN_POINT('',(0.,0.0201,1.58071098880187E-19));
#413=CARTESIAN_POINT('',(0.,0.0201,0.00258149695063494));
#414=CARTESIAN_POINT('',(0.,0.0201,1.94412679364643E-19));
#415=CARTESIAN_POINT('',(0.,0.0201,1.94412679364643E-19));
#416=CARTESIAN_POINT('',(0.,0.0201,0.003175));
#417=CARTESIAN_POINT('',(0.,0.0201,0.));
#418=CARTESIAN_POINT('',(9.72063396823267E-20,-0.0294840019196272,0.0101));
#419=CARTESIAN_POINT('',(9.72063396823267E-20,-0.0294840019196272,0.025));
#420=CARTESIAN_POINT('',(0.003175,-0.0294840019196272,0.025));
#421=CARTESIAN_POINT('',(7.04675089225116E-20,-0.0294840019196272,0.0101));
#422=CARTESIAN_POINT('',(7.04675089225116E-20,-0.0294840019196272,0.025));
#423=CARTESIAN_POINT('',(0.00230164350967369,-0.0294840019196272,0.025));
#424=CARTESIAN_POINT('',(0.0183835000306368,-0.023184004239738,0.025));
#425=CARTESIAN_POINT('',(0.,-0.0593,1.89601615435076E-18));
#426=CARTESIAN_POINT('',(0.,-0.0593,1.89601615435076E-18));
#427=CARTESIAN_POINT('',(0.,-0.0593,-0.0214292936342272));
#428=CARTESIAN_POINT('',(0.,-0.063,1.89601615435076E-18));
#429=CARTESIAN_POINT('',(0.,-0.063,-0.0214292936342272));
#430=CARTESIAN_POINT('',(-0.018,-0.0593,9.18485099360515E-20));
#431=CARTESIAN_POINT('',(-0.018,-0.0593,9.18485099360515E-20));
#432=CARTESIAN_POINT('',(-0.018,-0.0593,-0.0015));
#433=CARTESIAN_POINT('',(-0.018,-0.063,9.18485099360515E-20));
#434=CARTESIAN_POINT('',(-0.018,-0.063,-0.0015));
#435=CARTESIAN_POINT('',(0.018,-0.0593,9.18485099360515E-20));
#436=CARTESIAN_POINT('',(0.018,-0.0593,9.18485099360515E-20));
#437=CARTESIAN_POINT('',(0.018,-0.0593,-0.0015));
#438=CARTESIAN_POINT('',(0.018,-0.063,9.18485099360515E-20));
#439=CARTESIAN_POINT('',(0.018,-0.063,-0.0015));
#440=CARTESIAN_POINT('',(0.,-0.0593,0.018));
#441=CARTESIAN_POINT('',(0.,-0.0593,0.018));
#442=CARTESIAN_POINT('',(0.,-0.0593,0.0165));
#443=CARTESIAN_POINT('',(0.,-0.063,0.018));
#444=CARTESIAN_POINT('',(0.,-0.063,0.0165));
#445=CARTESIAN_POINT('',(0.,-0.0593,-0.018));
#446=CARTESIAN_POINT('',(0.,-0.0593,-0.018));
#447=CARTESIAN_POINT('',(0.,-0.0593,-0.0195));
#448=CARTESIAN_POINT('',(0.,-0.063,-0.018));
#449=CARTESIAN_POINT('',(0.,-0.063,-0.0195));
#450=CARTESIAN_POINT('',(0.,-0.0593,0.));
#451=CARTESIAN_POINT('',(0.,-0.063,0.));
#452=MECHANICAL_DESIGN_GEOMETRIC_PRESENTATION_REPRESENTATION('',(#245),#453);
#453=(
GEOMETRIC_REPRESENTATION_CONTEXT(3)
GLOBAL_UNCERTAINTY_ASSIGNED_CONTEXT((#454))
GLOBAL_UNIT_ASSIGNED_CONTEXT((#457,#456,#455))
REPRESENTATION_CONTEXT('Part 1','TOP_LEVEL_ASSEMBLY_PART')
);
#454=UNCERTAINTY_MEASURE_WITH_UNIT(LENGTH_MEASURE(2.E-05),#457,'DISTANCE_ACCURACY_VALUE','Maximum Tolerance applied to model');
#455=(
NAMED_UNIT(*)
SI_UNIT($,.STERADIAN.)
SOLID_ANGLE_UNIT()
);
#456=(
NAMED_UNIT(*)
PLANE_ANGLE_UNIT()
SI_UNIT($,.RADIAN.)
);
#457=(
LENGTH_UNIT()
NAMED_UNIT(*)
SI_UNIT($,.METRE.)
);
#458=PRODUCT_DEFINITION_SHAPE('','',#459);
#459=PRODUCT_DEFINITION('','',#461,#460);
#460=PRODUCT_DEFINITION_CONTEXT('',#467,'design');
#461=PRODUCT_DEFINITION_FORMATION_WITH_SPECIFIED_SOURCE('','',#463,.NOT_KNOWN.);
#462=PRODUCT_RELATED_PRODUCT_CATEGORY('','',(#463));
#463=PRODUCT('Part 1','Part 1','Part 1',(#465));
#464=PRODUCT_CATEGORY('','');
#465=PRODUCT_CONTEXT('',#467,'mechanical');
#466=APPLICATION_PROTOCOL_DEFINITION('international standard','ap242_managed_model_based_3d_engineering',2020,#467);
#467=APPLICATION_CONTEXT('managed model based 3d engineering');
ENDSEC;
END-ISO-10303-21;
