ISO-10303-21;
HEADER;
/*Generated by software containing ST-Developer
 * from STEP Tools, Inc. (www.steptools.com) 
 */
/*OPTION: using custom renumber hook */
/*description */
/*implementation_level */
FILE_DESCRIPTION(('STEP AP242 Edition 2','STEP AP242 Edition 2''CAx-IF Rec.Pracs.---Representation and Presentation of Product Manufa
cturing Information (PMI)---4.0---2014-10-13','STEP AP242 Edition 2''CAx-IF Rec.Pracs.---Representation and Presentation of Product Manufa
cturing Information (PMI)---4.0---2014-10-13''CAx-IF Rec.Pracs.---3D Tessellated Geometry---0.4---2014-09-14','STEP AP242 Edition 2''CAx-IF Rec.Pracs.---Representation and Presentation of Product Manufa
cturing Information (PMI)---4.0---2014-10-13''CAx-IF Rec.Pracs.---3D Tessellated Geometry---0.4---2014-09-14''2;1','STEP AP242 Edition 2''CAx-IF Rec.Pracs.---Representation and Presentation of Product Manufa
cturing Information (PMI)---4.0---2014-10-13''CAx-IF Rec.Pracs.---3D Tessellated Geometry---0.4---2014-09-14''2;1''CAx-IF Rec.Pracs.---User Defined Attributes---1.5---2016-08-15'),'2;1');
/*name */
/*time_stamp */
/*author */
/*organization */
/*preprocessor_version */
/*originating_system */
/*authorisation */
FILE_NAME('/vol/tmp/translate-6596636661662437601/Part Studio 2 - Part 3.step','2026-03-25T16:23:58',(''),(''),'ST-DEVELOPER v20','ONSHAPE BY PTC INC, 1.212','  ');
FILE_SCHEMA(('AP242_MANAGED_MODEL_BASED_3D_ENGINEERING_MIM_LF { 1 0 10303 442 3 1 4 }'));
ENDSEC;
DATA;
#10=SHAPE_REPRESENTATION_RELATIONSHIP('','',#246,#11);
#11=ADVANCED_BREP_SHAPE_REPRESENTATION('',(#244),#774);
#12=CONICAL_SURFACE('',#278,0.00434917490929365,0.484324667388611);
#13=CONICAL_SURFACE('',#280,0.0063846509733196,0.484324667388611);
#14=CONICAL_SURFACE('',#282,0.00545342936664422,1.08647165940629);
#15=B_SPLINE_SURFACE_WITH_KNOTS('',3,3,((#393,#394,#395,#396,#397,#398,
#399,#400,#401,#402,#403,#404,#405,#406,#407,#408,#409,#410,#411),(#412,
#413,#414,#415,#416,#417,#418,#419,#420,#421,#422,#423,#424,#425,#426,#427,
#428,#429,#430),(#431,#432,#433,#434,#435,#436,#437,#438,#439,#440,#441,
#442,#443,#444,#445,#446,#447,#448,#449),(#450,#451,#452,#453,#454,#455,
#456,#457,#458,#459,#460,#461,#462,#463,#464,#465,#466,#467,#468),(#469,
#470,#471,#472,#473,#474,#475,#476,#477,#478,#479,#480,#481,#482,#483,#484,
#485,#486,#487),(#488,#489,#490,#491,#492,#493,#494,#495,#496,#497,#498,
#499,#500,#501,#502,#503,#504,#505,#506),(#507,#508,#509,#510,#511,#512,
#513,#514,#515,#516,#517,#518,#519,#520,#521,#522,#523,#524,#525),(#526,
#527,#528,#529,#530,#531,#532,#533,#534,#535,#536,#537,#538,#539,#540,#541,
#542,#543,#544),(#545,#546,#547,#548,#549,#550,#551,#552,#553,#554,#555,
#556,#557,#558,#559,#560,#561,#562,#563)),.UNSPECIFIED.,.F.,.T.,.F.,(4,1,1,1,1,1,4),(1,1,1,1,1,1,1,1,1,1,1,1,1,1,1,1,1,1,1,1,1,1,1),(0.,0.25,0.375,0.5,0.625,0.75,1.),(-1.17809724509617,-0.785398163397448,-0.392699081698725,0.,0.392699081698724,0.785398163397448,1.17809724509617,1.5707963267949,1.96349540849362,2.35619449019234,2.74889357189107,3.14159265358979,3.53429173528852,3.92699081698724,4.31968989868597,4.71238898038469,5.10508806208341,5.49778714378214,5.89048622548086,6.28318530717959,6.67588438887831,7.06858347057703,7.46128255227576),.UNSPECIFIED.);
#16=B_SPLINE_SURFACE_WITH_KNOTS('',3,3,((#572,#573,#574,#575,#576,#577,
#578,#579,#580,#581,#582,#583,#584,#585,#586,#587,#588,#589,#590),(#591,
#592,#593,#594,#595,#596,#597,#598,#599,#600,#601,#602,#603,#604,#605,#606,
#607,#608,#609),(#610,#611,#612,#613,#614,#615,#616,#617,#618,#619,#620,
#621,#622,#623,#624,#625,#626,#627,#628),(#629,#630,#631,#632,#633,#634,
#635,#636,#637,#638,#639,#640,#641,#642,#643,#644,#645,#646,#647),(#648,
#649,#650,#651,#652,#653,#654,#655,#656,#657,#658,#659,#660,#661,#662,#663,
#664,#665,#666)),.UNSPECIFIED.,.F.,.T.,.F.,(4,1,4),(1,1,1,1,1,1,1,1,1,1,1,1,1,1,1,1,1,1,1,1,1,1,1),(0.,0.241298237726501,0.482596475453001),(-1.17809724509617,-0.785398163397448,-0.392699081698725,0.,0.392699081698724,0.785398163397448,1.17809724509617,1.5707963267949,1.96349540849362,2.35619449019234,2.74889357189107,3.14159265358979,3.53429173528852,3.92699081698724,4.31968989868597,4.71238898038469,5.10508806208341,5.49778714378214,5.89048622548086,6.28318530717959,6.67588438887831,7.06858347057703,7.46128255227576),.UNSPECIFIED.);
#17=B_SPLINE_SURFACE_WITH_KNOTS('',3,3,((#669,#670,#671,#672,#673,#674,
#675,#676,#677,#678,#679,#680,#681,#682,#683,#684,#685,#686,#687),(#688,
#689,#690,#691,#692,#693,#694,#695,#696,#697,#698,#699,#700,#701,#702,#703,
#704,#705,#706),(#707,#708,#709,#710,#711,#712,#713,#714,#715,#716,#717,
#718,#719,#720,#721,#722,#723,#724,#725),(#726,#727,#728,#729,#730,#731,
#732,#733,#734,#735,#736,#737,#738,#739,#740,#741,#742,#743,#744),(#745,
#746,#747,#748,#749,#750,#751,#752,#753,#754,#755,#756,#757,#758,#759,#760,
#761,#762,#763)),.UNSPECIFIED.,.F.,.T.,.F.,(4,1,4),(1,1,1,1,1,1,1,1,1,1,1,1,1,1,1,1,1,1,1,1,1,1,1),(0.482596475453001,0.7412982377265,1.),(-1.17809724509617,-0.785398163397448,-0.392699081698725,0.,0.392699081698724,0.785398163397448,1.17809724509617,1.5707963267949,1.96349540849362,2.35619449019234,2.74889357189107,3.14159265358979,3.53429173528852,3.92699081698724,4.31968989868597,4.71238898038469,5.10508806208341,5.49778714378214,5.89048622548086,6.28318530717959,6.67588438887831,7.06858347057703,7.46128255227576),.UNSPECIFIED.);
#18=CYLINDRICAL_SURFACE('',#251,0.0214292936342272);
#19=CYLINDRICAL_SURFACE('',#254,0.0015);
#20=CYLINDRICAL_SURFACE('',#257,0.0015);
#21=CYLINDRICAL_SURFACE('',#260,0.0015);
#22=CYLINDRICAL_SURFACE('',#263,0.009535);
#23=CYLINDRICAL_SURFACE('',#265,0.0015);
#24=CYLINDRICAL_SURFACE('',#273,0.012535);
#25=CYLINDRICAL_SURFACE('',#274,0.0148252863238402);
#26=ORIENTED_EDGE('',*,*,#68,.F.);
#27=ORIENTED_EDGE('',*,*,#69,.F.);
#28=ORIENTED_EDGE('',*,*,#70,.F.);
#29=ORIENTED_EDGE('',*,*,#71,.T.);
#30=ORIENTED_EDGE('',*,*,#72,.F.);
#31=ORIENTED_EDGE('',*,*,#73,.T.);
#32=ORIENTED_EDGE('',*,*,#74,.T.);
#33=ORIENTED_EDGE('',*,*,#75,.F.);
#34=ORIENTED_EDGE('',*,*,#76,.T.);
#35=ORIENTED_EDGE('',*,*,#77,.F.);
#36=ORIENTED_EDGE('',*,*,#68,.T.);
#37=ORIENTED_EDGE('',*,*,#78,.F.);
#38=ORIENTED_EDGE('',*,*,#79,.F.);
#39=ORIENTED_EDGE('',*,*,#80,.T.);
#40=ORIENTED_EDGE('',*,*,#81,.T.);
#41=ORIENTED_EDGE('',*,*,#76,.F.);
#42=ORIENTED_EDGE('',*,*,#74,.F.);
#43=ORIENTED_EDGE('',*,*,#72,.T.);
#44=ORIENTED_EDGE('',*,*,#70,.T.);
#45=ORIENTED_EDGE('',*,*,#79,.T.);
#46=ORIENTED_EDGE('',*,*,#78,.T.);
#47=ORIENTED_EDGE('',*,*,#77,.T.);
#48=ORIENTED_EDGE('',*,*,#75,.T.);
#49=ORIENTED_EDGE('',*,*,#73,.F.);
#50=ORIENTED_EDGE('',*,*,#71,.F.);
#51=ORIENTED_EDGE('',*,*,#80,.F.);
#52=ORIENTED_EDGE('',*,*,#82,.F.);
#53=ORIENTED_EDGE('',*,*,#83,.T.);
#54=ORIENTED_EDGE('',*,*,#69,.T.);
#55=ORIENTED_EDGE('',*,*,#83,.F.);
#56=ORIENTED_EDGE('',*,*,#81,.F.);
#57=ORIENTED_EDGE('',*,*,#84,.T.);
#58=ORIENTED_EDGE('',*,*,#85,.T.);
#59=ORIENTED_EDGE('',*,*,#84,.F.);
#60=ORIENTED_EDGE('',*,*,#86,.T.);
#61=ORIENTED_EDGE('',*,*,#85,.F.);
#62=ORIENTED_EDGE('',*,*,#87,.F.);
#63=ORIENTED_EDGE('',*,*,#82,.T.);
#64=ORIENTED_EDGE('',*,*,#88,.T.);
#65=ORIENTED_EDGE('',*,*,#86,.F.);
#66=ORIENTED_EDGE('',*,*,#87,.T.);
#67=ORIENTED_EDGE('',*,*,#88,.F.);
#68=EDGE_CURVE('',#89,#89,#110,.T.);
#69=EDGE_CURVE('',#90,#90,#111,.F.);
#70=EDGE_CURVE('',#91,#91,#112,.T.);
#71=EDGE_CURVE('',#92,#92,#113,.T.);
#72=EDGE_CURVE('',#93,#93,#114,.T.);
#73=EDGE_CURVE('',#94,#94,#115,.T.);
#74=EDGE_CURVE('',#95,#95,#116,.T.);
#75=EDGE_CURVE('',#96,#96,#117,.T.);
#76=EDGE_CURVE('',#97,#97,#118,.T.);
#77=EDGE_CURVE('',#98,#98,#119,.T.);
#78=EDGE_CURVE('',#99,#99,#120,.T.);
#79=EDGE_CURVE('',#100,#100,#121,.T.);
#80=EDGE_CURVE('',#101,#101,#122,.T.);
#81=EDGE_CURVE('',#102,#102,#123,.F.);
#82=EDGE_CURVE('',#103,#103,#124,.T.);
#83=EDGE_CURVE('',#104,#104,#125,.T.);
#84=EDGE_CURVE('',#105,#105,#126,.T.);
#85=EDGE_CURVE('',#106,#106,#127,.T.);
#86=EDGE_CURVE('',#107,#107,#128,.T.);
#87=EDGE_CURVE('',#108,#108,#129,.F.);
#88=EDGE_CURVE('',#109,#109,#130,.F.);
#89=VERTEX_POINT('',#358);
#90=VERTEX_POINT('',#360);
#91=VERTEX_POINT('',#363);
#92=VERTEX_POINT('',#365);
#93=VERTEX_POINT('',#368);
#94=VERTEX_POINT('',#370);
#95=VERTEX_POINT('',#373);
#96=VERTEX_POINT('',#375);
#97=VERTEX_POINT('',#378);
#98=VERTEX_POINT('',#380);
#99=VERTEX_POINT('',#383);
#100=VERTEX_POINT('',#386);
#101=VERTEX_POINT('',#388);
#102=VERTEX_POINT('',#391);
#103=VERTEX_POINT('',#565);
#104=VERTEX_POINT('',#567);
#105=VERTEX_POINT('',#571);
#106=VERTEX_POINT('',#668);
#107=VERTEX_POINT('',#765);
#108=VERTEX_POINT('',#768);
#109=VERTEX_POINT('',#771);
#110=CIRCLE('',#249,0.009535);
#111=CIRCLE('',#250,0.012535);
#112=CIRCLE('',#252,0.0214292936342272);
#113=CIRCLE('',#253,0.0214292936342272);
#114=CIRCLE('',#255,0.0015);
#115=CIRCLE('',#256,0.0015);
#116=CIRCLE('',#258,0.0015);
#117=CIRCLE('',#259,0.0015);
#118=CIRCLE('',#261,0.0015);
#119=CIRCLE('',#262,0.0015);
#120=CIRCLE('',#264,0.009535);
#121=CIRCLE('',#266,0.0015);
#122=CIRCLE('',#267,0.0015);
#123=CIRCLE('',#269,0.0148252863238402);
#124=CIRCLE('',#271,0.00434917490929365);
#125=CIRCLE('',#272,0.012535);
#126=CIRCLE('',#275,0.0148252863238402);
#127=CIRCLE('',#276,0.0125349999910549);
#128=CIRCLE('',#277,0.0063846509733196);
#129=CIRCLE('',#279,0.00341795330261827);
#130=CIRCLE('',#281,0.00545342936664421);
#131=EDGE_LOOP('',(#26));
#132=EDGE_LOOP('',(#27));
#133=EDGE_LOOP('',(#28));
#134=EDGE_LOOP('',(#29));
#135=EDGE_LOOP('',(#30));
#136=EDGE_LOOP('',(#31));
#137=EDGE_LOOP('',(#32));
#138=EDGE_LOOP('',(#33));
#139=EDGE_LOOP('',(#34));
#140=EDGE_LOOP('',(#35));
#141=EDGE_LOOP('',(#36));
#142=EDGE_LOOP('',(#37));
#143=EDGE_LOOP('',(#38));
#144=EDGE_LOOP('',(#39));
#145=EDGE_LOOP('',(#40));
#146=EDGE_LOOP('',(#41));
#147=EDGE_LOOP('',(#42));
#148=EDGE_LOOP('',(#43));
#149=EDGE_LOOP('',(#44));
#150=EDGE_LOOP('',(#45));
#151=EDGE_LOOP('',(#46));
#152=EDGE_LOOP('',(#47));
#153=EDGE_LOOP('',(#48));
#154=EDGE_LOOP('',(#49));
#155=EDGE_LOOP('',(#50));
#156=EDGE_LOOP('',(#51));
#157=EDGE_LOOP('',(#52));
#158=EDGE_LOOP('',(#53));
#159=EDGE_LOOP('',(#54));
#160=EDGE_LOOP('',(#55));
#161=EDGE_LOOP('',(#56));
#162=EDGE_LOOP('',(#57));
#163=EDGE_LOOP('',(#58));
#164=EDGE_LOOP('',(#59));
#165=EDGE_LOOP('',(#60));
#166=EDGE_LOOP('',(#61));
#167=EDGE_LOOP('',(#62));
#168=EDGE_LOOP('',(#63));
#169=EDGE_LOOP('',(#64));
#170=EDGE_LOOP('',(#65));
#171=EDGE_LOOP('',(#66));
#172=EDGE_LOOP('',(#67));
#173=FACE_BOUND('',#131,.T.);
#174=FACE_BOUND('',#132,.T.);
#175=FACE_BOUND('',#133,.T.);
#176=FACE_BOUND('',#134,.T.);
#177=FACE_BOUND('',#135,.T.);
#178=FACE_BOUND('',#136,.T.);
#179=FACE_BOUND('',#137,.T.);
#180=FACE_BOUND('',#138,.T.);
#181=FACE_BOUND('',#139,.T.);
#182=FACE_BOUND('',#140,.T.);
#183=FACE_BOUND('',#141,.T.);
#184=FACE_BOUND('',#142,.T.);
#185=FACE_BOUND('',#143,.T.);
#186=FACE_BOUND('',#144,.T.);
#187=FACE_BOUND('',#145,.T.);
#188=FACE_BOUND('',#146,.T.);
#189=FACE_BOUND('',#147,.T.);
#190=FACE_BOUND('',#148,.T.);
#191=FACE_BOUND('',#149,.T.);
#192=FACE_BOUND('',#150,.T.);
#193=FACE_BOUND('',#151,.T.);
#194=FACE_BOUND('',#152,.T.);
#195=FACE_BOUND('',#153,.T.);
#196=FACE_BOUND('',#154,.T.);
#197=FACE_BOUND('',#155,.T.);
#198=FACE_BOUND('',#156,.T.);
#199=FACE_BOUND('',#157,.T.);
#200=FACE_BOUND('',#158,.T.);
#201=FACE_BOUND('',#159,.T.);
#202=FACE_BOUND('',#160,.T.);
#203=FACE_BOUND('',#161,.T.);
#204=FACE_BOUND('',#162,.T.);
#205=FACE_BOUND('',#163,.T.);
#206=FACE_BOUND('',#164,.T.);
#207=FACE_BOUND('',#165,.T.);
#208=FACE_BOUND('',#166,.T.);
#209=FACE_BOUND('',#167,.T.);
#210=FACE_BOUND('',#168,.T.);
#211=FACE_BOUND('',#169,.T.);
#212=FACE_BOUND('',#170,.T.);
#213=FACE_BOUND('',#171,.T.);
#214=FACE_BOUND('',#172,.T.);
#215=PLANE('',#248);
#216=PLANE('',#268);
#217=PLANE('',#270);
#218=ADVANCED_FACE('',(#173,#174),#215,.T.);
#219=ADVANCED_FACE('',(#175,#176),#18,.T.);
#220=ADVANCED_FACE('',(#177,#178),#19,.F.);
#221=ADVANCED_FACE('',(#179,#180),#20,.F.);
#222=ADVANCED_FACE('',(#181,#182),#21,.F.);
#223=ADVANCED_FACE('',(#183,#184),#22,.F.);
#224=ADVANCED_FACE('',(#185,#186),#23,.F.);
#225=ADVANCED_FACE('',(#187,#188,#189,#190,#191,#192),#216,.T.);
#226=ADVANCED_FACE('',(#193,#194,#195,#196,#197,#198),#217,.F.);
#227=ADVANCED_FACE('',(#199,#200),#15,.F.);
#228=ADVANCED_FACE('',(#201,#202),#24,.F.);
#229=ADVANCED_FACE('',(#203,#204),#25,.T.);
#230=ADVANCED_FACE('',(#205,#206),#16,.T.);
#231=ADVANCED_FACE('',(#207,#208),#17,.T.);
#232=ADVANCED_FACE('',(#209,#210),#12,.F.);
#233=ADVANCED_FACE('',(#211,#212),#13,.T.);
#234=ADVANCED_FACE('',(#213,#214),#14,.F.);
#235=CLOSED_SHELL('',(#218,#219,#220,#221,#222,#223,#224,#225,#226,#227,#228,#229,#230,#231,#232,#233,#234));
#236=STYLED_ITEM('',(#237),#244);
#237=PRESENTATION_STYLE_ASSIGNMENT((#238));
#238=SURFACE_STYLE_USAGE(.BOTH.,#239);
#239=SURFACE_SIDE_STYLE('',(#240));
#240=SURFACE_STYLE_FILL_AREA(#241);
#241=FILL_AREA_STYLE('',(#242));
#242=FILL_AREA_STYLE_COLOUR('',#243);
#243=COLOUR_RGB('',0.647058823529412,0.647058823529412,0.647058823529412);
#244=MANIFOLD_SOLID_BREP('Part 3',#235);
#245=SHAPE_DEFINITION_REPRESENTATION(#779,#246);
#246=SHAPE_REPRESENTATION('Part 3',(#247),#774);
#247=AXIS2_PLACEMENT_3D('',#355,#283,#284);
#248=AXIS2_PLACEMENT_3D('',#356,#285,#286);
#249=AXIS2_PLACEMENT_3D('',#357,#287,#288);
#250=AXIS2_PLACEMENT_3D('',#359,#289,#290);
#251=AXIS2_PLACEMENT_3D('',#361,#291,#292);
#252=AXIS2_PLACEMENT_3D('',#362,#293,#294);
#253=AXIS2_PLACEMENT_3D('',#364,#295,#296);
#254=AXIS2_PLACEMENT_3D('',#366,#297,#298);
#255=AXIS2_PLACEMENT_3D('',#367,#299,#300);
#256=AXIS2_PLACEMENT_3D('',#369,#301,#302);
#257=AXIS2_PLACEMENT_3D('',#371,#303,#304);
#258=AXIS2_PLACEMENT_3D('',#372,#305,#306);
#259=AXIS2_PLACEMENT_3D('',#374,#307,#308);
#260=AXIS2_PLACEMENT_3D('',#376,#309,#310);
#261=AXIS2_PLACEMENT_3D('',#377,#311,#312);
#262=AXIS2_PLACEMENT_3D('',#379,#313,#314);
#263=AXIS2_PLACEMENT_3D('',#381,#315,#316);
#264=AXIS2_PLACEMENT_3D('',#382,#317,#318);
#265=AXIS2_PLACEMENT_3D('',#384,#319,#320);
#266=AXIS2_PLACEMENT_3D('',#385,#321,#322);
#267=AXIS2_PLACEMENT_3D('',#387,#323,#324);
#268=AXIS2_PLACEMENT_3D('',#389,#325,#326);
#269=AXIS2_PLACEMENT_3D('',#390,#327,#328);
#270=AXIS2_PLACEMENT_3D('',#392,#329,#330);
#271=AXIS2_PLACEMENT_3D('',#564,#331,#332);
#272=AXIS2_PLACEMENT_3D('',#566,#333,#334);
#273=AXIS2_PLACEMENT_3D('',#568,#335,#336);
#274=AXIS2_PLACEMENT_3D('',#569,#337,#338);
#275=AXIS2_PLACEMENT_3D('',#570,#339,#340);
#276=AXIS2_PLACEMENT_3D('',#667,#341,#342);
#277=AXIS2_PLACEMENT_3D('',#764,#343,#344);
#278=AXIS2_PLACEMENT_3D('',#766,#345,#346);
#279=AXIS2_PLACEMENT_3D('',#767,#347,#348);
#280=AXIS2_PLACEMENT_3D('',#769,#349,#350);
#281=AXIS2_PLACEMENT_3D('',#770,#351,#352);
#282=AXIS2_PLACEMENT_3D('',#772,#353,#354);
#283=DIRECTION('',(0.,0.,1.));
#284=DIRECTION('',(1.,0.,0.));
#285=DIRECTION('',(0.,-1.,0.));
#286=DIRECTION('',(1.,0.,0.));
#287=DIRECTION('',(0.,-1.,0.));
#288=DIRECTION('',(0.,0.,-1.));
#289=DIRECTION('',(0.,-1.,0.));
#290=DIRECTION('',(0.,0.,-1.));
#291=DIRECTION('',(0.,1.,0.));
#292=DIRECTION('',(0.,0.,1.));
#293=DIRECTION('',(0.,-1.,0.));
#294=DIRECTION('',(0.,0.,-1.));
#295=DIRECTION('',(0.,-1.,0.));
#296=DIRECTION('',(0.,0.,-1.));
#297=DIRECTION('',(0.,1.,0.));
#298=DIRECTION('',(0.,0.,1.));
#299=DIRECTION('',(0.,1.,0.));
#300=DIRECTION('',(0.,0.,-1.));
#301=DIRECTION('',(0.,1.,0.));
#302=DIRECTION('',(0.,0.,-1.));
#303=DIRECTION('',(0.,1.,0.));
#304=DIRECTION('',(0.,0.,1.));
#305=DIRECTION('',(0.,-1.,0.));
#306=DIRECTION('',(0.,0.,-1.));
#307=DIRECTION('',(0.,-1.,0.));
#308=DIRECTION('',(0.,0.,-1.));
#309=DIRECTION('',(0.,1.,0.));
#310=DIRECTION('',(0.,0.,1.));
#311=DIRECTION('',(0.,-1.,0.));
#312=DIRECTION('',(0.,0.,-1.));
#313=DIRECTION('',(0.,-1.,0.));
#314=DIRECTION('',(0.,0.,-1.));
#315=DIRECTION('',(0.,1.,0.));
#316=DIRECTION('',(0.,0.,1.));
#317=DIRECTION('',(0.,-1.,0.));
#318=DIRECTION('',(0.,0.,-1.));
#319=DIRECTION('',(0.,1.,0.));
#320=DIRECTION('',(0.,0.,1.));
#321=DIRECTION('',(0.,1.,0.));
#322=DIRECTION('',(0.,0.,-1.));
#323=DIRECTION('',(0.,1.,0.));
#324=DIRECTION('',(0.,0.,-1.));
#325=DIRECTION('',(0.,-1.,0.));
#326=DIRECTION('',(1.,0.,0.));
#327=DIRECTION('',(0.,-1.,0.));
#328=DIRECTION('',(0.,0.,-1.));
#329=DIRECTION('',(0.,-1.,0.));
#330=DIRECTION('',(1.,0.,0.));
#331=DIRECTION('',(0.,1.,0.));
#332=DIRECTION('',(0.,0.,1.));
#333=DIRECTION('',(0.,1.,0.));
#334=DIRECTION('',(0.,0.,1.));
#335=DIRECTION('',(0.,1.,0.));
#336=DIRECTION('',(0.,0.,1.));
#337=DIRECTION('',(0.,1.,0.));
#338=DIRECTION('',(0.,0.,1.));
#339=DIRECTION('',(0.,1.,0.));
#340=DIRECTION('',(0.,0.,1.));
#341=DIRECTION('',(0.,1.,0.));
#342=DIRECTION('',(0.,0.,1.));
#343=DIRECTION('',(0.,1.,0.));
#344=DIRECTION('',(0.,0.,1.));
#345=DIRECTION('',(0.,1.,0.));
#346=DIRECTION('',(0.,0.,1.));
#347=DIRECTION('',(0.,-1.,0.));
#348=DIRECTION('',(0.,0.,-1.));
#349=DIRECTION('',(0.,1.,0.));
#350=DIRECTION('',(0.,0.,1.));
#351=DIRECTION('',(0.,-1.,0.));
#352=DIRECTION('',(0.,0.,-1.));
#353=DIRECTION('',(0.,-1.,0.));
#354=DIRECTION('',(0.,0.,-1.));
#355=CARTESIAN_POINT('',(0.,0.,0.));
#356=CARTESIAN_POINT('',(0.0496,-0.0666,0.));
#357=CARTESIAN_POINT('',(0.0496,-0.0666,5.83850361493501E-19));
#358=CARTESIAN_POINT('',(0.0496,-0.0666,-0.009535));
#359=CARTESIAN_POINT('',(0.0496,-0.0666,0.));
#360=CARTESIAN_POINT('',(0.0496,-0.0666,-0.012535));
#361=CARTESIAN_POINT('',(0.0496,-0.0666,1.89601615435076E-18));
#362=CARTESIAN_POINT('',(0.0496,-0.0666,1.89601615435076E-18));
#363=CARTESIAN_POINT('',(0.0496,-0.0666,-0.0214292936342272));
#364=CARTESIAN_POINT('',(0.0496,-0.063,1.89601615435076E-18));
#365=CARTESIAN_POINT('',(0.0496,-0.063,-0.0214292936342272));
#366=CARTESIAN_POINT('',(0.0316,-0.0666,9.18485099360515E-20));
#367=CARTESIAN_POINT('',(0.0316,-0.0666,9.18485099360515E-20));
#368=CARTESIAN_POINT('',(0.0316,-0.0666,-0.0015));
#369=CARTESIAN_POINT('',(0.0316,-0.063,9.18485099360515E-20));
#370=CARTESIAN_POINT('',(0.0316,-0.063,-0.0015));
#371=CARTESIAN_POINT('',(0.0676,-0.0666,9.18485099360515E-20));
#372=CARTESIAN_POINT('',(0.0676,-0.0666,9.18485099360515E-20));
#373=CARTESIAN_POINT('',(0.0676,-0.0666,-0.0015));
#374=CARTESIAN_POINT('',(0.0676,-0.063,9.18485099360515E-20));
#375=CARTESIAN_POINT('',(0.0676,-0.063,-0.0015));
#376=CARTESIAN_POINT('',(0.0496,-0.0666,0.018));
#377=CARTESIAN_POINT('',(0.0496,-0.0666,0.018));
#378=CARTESIAN_POINT('',(0.0496,-0.0666,0.0165));
#379=CARTESIAN_POINT('',(0.0496,-0.063,0.018));
#380=CARTESIAN_POINT('',(0.0496,-0.063,0.0165));
#381=CARTESIAN_POINT('',(0.0496,-0.0666,5.83850361493501E-19));
#382=CARTESIAN_POINT('',(0.0496,-0.063,5.83850361493501E-19));
#383=CARTESIAN_POINT('',(0.0496,-0.063,-0.009535));
#384=CARTESIAN_POINT('',(0.0496,-0.0666,-0.018));
#385=CARTESIAN_POINT('',(0.0496,-0.0666,-0.018));
#386=CARTESIAN_POINT('',(0.0496,-0.0666,-0.0195));
#387=CARTESIAN_POINT('',(0.0496,-0.063,-0.018));
#388=CARTESIAN_POINT('',(0.0496,-0.063,-0.0195));
#389=CARTESIAN_POINT('',(0.0496,-0.0666,0.));
#390=CARTESIAN_POINT('',(0.0496,-0.0666,0.));
#391=CARTESIAN_POINT('',(0.0496,-0.0666,-0.0148252863238402));
#392=CARTESIAN_POINT('',(0.0496,-0.063,0.));
#393=CARTESIAN_POINT('',(0.0446781794140031,-0.0666664093732834,0.011882326010281));
#394=CARTESIAN_POINT('',(0.0496,-0.0666664093732834,0.0128613369948595));
#395=CARTESIAN_POINT('',(0.054521820585997,-0.0666664093732834,0.0118823260102809));
#396=CARTESIAN_POINT('',(0.0586943386041906,-0.0666664093732834,0.00909433860419059));
#397=CARTESIAN_POINT('',(0.0614823260102809,-0.0666664093732834,0.00492182058599695));
#398=CARTESIAN_POINT('',(0.0624613369948595,-0.0666664093732834,2.05659599593344E-18));
#399=CARTESIAN_POINT('',(0.0614823260102809,-0.0666664093732834,-0.00492182058599695));
#400=CARTESIAN_POINT('',(0.0586943386041906,-0.0666664093732834,-0.00909433860419059));
#401=CARTESIAN_POINT('',(0.054521820585997,-0.0666664093732834,-0.0118823260102809));
#402=CARTESIAN_POINT('',(0.0496,-0.0666664093732834,-0.0128613369948595));
#403=CARTESIAN_POINT('',(0.044678179414003,-0.0666664093732834,-0.0118823260102809));
#404=CARTESIAN_POINT('',(0.0405056613958094,-0.0666664093732834,-0.00909433860419059));
#405=CARTESIAN_POINT('',(0.0377176739897191,-0.0666664093732834,-0.00492182058599695));
#406=CARTESIAN_POINT('',(0.0367386630051405,-0.0666664093732834,-5.63107503334659E-18));
#407=CARTESIAN_POINT('',(0.0377176739897191,-0.0666664093732834,0.00492182058599696));
#408=CARTESIAN_POINT('',(0.0405056613958094,-0.0666664093732834,0.00909433860419059));
#409=CARTESIAN_POINT('',(0.0446781794140031,-0.0666664093732834,0.011882326010281));
#410=CARTESIAN_POINT('',(0.0496,-0.0666664093732834,0.0128613369948595));
#411=CARTESIAN_POINT('',(0.054521820585997,-0.0666664093732834,0.0118823260102809));
#412=CARTESIAN_POINT('',(0.0447790340755004,-0.069451785064063,0.0116388413186655));
#413=CARTESIAN_POINT('',(0.0495999999999999,-0.0694517850640629,0.0125977910637644));
#414=CARTESIAN_POINT('',(0.0544209659244995,-0.0694517850640629,0.0116388413186655));
#415=CARTESIAN_POINT('',(0.058507983489159,-0.0694517850640629,0.00890798348915907));
#416=CARTESIAN_POINT('',(0.0612388413186655,-0.0694517850640629,0.00482096592449961));
#417=CARTESIAN_POINT('',(0.0621977910637643,-0.0694517850640629,1.30815768373954E-17));
#418=CARTESIAN_POINT('',(0.0612388413186655,-0.0694517850640629,-0.00482096592449958));
#419=CARTESIAN_POINT('',(0.0585079834891591,-0.0694517850640629,-0.00890798348915905));
#420=CARTESIAN_POINT('',(0.0544209659244995,-0.0694517850640629,-0.0116388413186655));
#421=CARTESIAN_POINT('',(0.0496,-0.0694517850640629,-0.0125977910637644));
#422=CARTESIAN_POINT('',(0.0447790340755004,-0.0694517850640629,-0.0116388413186655));
#423=CARTESIAN_POINT('',(0.0406920165108409,-0.0694517850640629,-0.00890798348915906));
#424=CARTESIAN_POINT('',(0.0379611586813345,-0.0694517850640629,-0.00482096592449962));
#425=CARTESIAN_POINT('',(0.0370022089362357,-0.0694517850640629,-1.21295118046816E-17));
#426=CARTESIAN_POINT('',(0.0379611586813345,-0.069451785064063,0.00482096592449959));
#427=CARTESIAN_POINT('',(0.0406920165108409,-0.0694517850640629,0.00890798348915907));
#428=CARTESIAN_POINT('',(0.0447790340755004,-0.069451785064063,0.0116388413186655));
#429=CARTESIAN_POINT('',(0.0495999999999999,-0.0694517850640629,0.0125977910637644));
#430=CARTESIAN_POINT('',(0.0544209659244995,-0.0694517850640629,0.0116388413186655));
#431=CARTESIAN_POINT('',(0.0449301945635423,-0.0736300820890073,0.0112739076183399));
#432=CARTESIAN_POINT('',(0.0496,-0.0736300820890073,0.0122027896729081));
#433=CARTESIAN_POINT('',(0.0542698054364578,-0.0736300820890073,0.0112739076183399));
#434=CARTESIAN_POINT('',(0.0582286753271065,-0.0736300820890073,0.0086286753271065));
#435=CARTESIAN_POINT('',(0.0608739076183399,-0.0736300820890073,0.00466980543645775));
#436=CARTESIAN_POINT('',(0.0618027896729081,-0.0736300820890073,1.22650370762423E-17));
#437=CARTESIAN_POINT('',(0.0608739076183399,-0.0736300820890073,-0.00466980543645774));
#438=CARTESIAN_POINT('',(0.0582286753271065,-0.0736300820890073,-0.00862867532710649));
#439=CARTESIAN_POINT('',(0.0542698054364578,-0.0736300820890073,-0.0112739076183399));
#440=CARTESIAN_POINT('',(0.0496,-0.0736300820890073,-0.0122027896729081));
#441=CARTESIAN_POINT('',(0.0449301945635423,-0.0736300820890073,-0.0112739076183399));
#442=CARTESIAN_POINT('',(0.0409713246728936,-0.0736300820890073,-0.00862867532710651));
#443=CARTESIAN_POINT('',(0.0383260923816601,-0.0736300820890073,-0.00466980543645775));
#444=CARTESIAN_POINT('',(0.0373972103270919,-0.0736300820890073,-1.76521666207796E-17));
#445=CARTESIAN_POINT('',(0.0383260923816601,-0.0736300820890073,0.00466980543645774));
#446=CARTESIAN_POINT('',(0.0409713246728935,-0.0736300820890073,0.00862867532710649));
#447=CARTESIAN_POINT('',(0.0449301945635423,-0.0736300820890073,0.0112739076183399));
#448=CARTESIAN_POINT('',(0.0496,-0.0736300820890073,0.0122027896729081));
#449=CARTESIAN_POINT('',(0.0542698054364578,-0.0736300820890073,0.0112739076183399));
#450=CARTESIAN_POINT('',(0.0452534149464495,-0.0789673315211986,0.0104935845862899));
#451=CARTESIAN_POINT('',(0.0496,-0.0789673315211986,0.0113581741093087));
#452=CARTESIAN_POINT('',(0.0539465850535505,-0.0789673315211986,0.0104935845862899));
#453=CARTESIAN_POINT('',(0.0576314419345897,-0.0789673315211986,0.00803144193458965));
#454=CARTESIAN_POINT('',(0.0600935845862899,-0.0789673315211986,0.00434658505355055));
#455=CARTESIAN_POINT('',(0.0609581741093087,-0.0789673315211986,-7.86046575051991E-19));
#456=CARTESIAN_POINT('',(0.0600935845862899,-0.0789673315211986,-0.00434658505355055));
#457=CARTESIAN_POINT('',(0.0576314419345897,-0.0789673315211986,-0.00803144193458965));
#458=CARTESIAN_POINT('',(0.0539465850535505,-0.0789673315211986,-0.0104935845862899));
#459=CARTESIAN_POINT('',(0.0496,-0.0789673315211986,-0.0113581741093087));
#460=CARTESIAN_POINT('',(0.0452534149464495,-0.0789673315211986,-0.0104935845862899));
#461=CARTESIAN_POINT('',(0.0415685580654103,-0.0789673315211986,-0.00803144193458965));
#462=CARTESIAN_POINT('',(0.0391064154137101,-0.0789673315211986,-0.00434658505355055));
#463=CARTESIAN_POINT('',(0.0382418258906913,-0.0789673315211986,1.30104260698261E-18));
#464=CARTESIAN_POINT('',(0.0391064154137101,-0.0789673315211986,0.00434658505355055));
#465=CARTESIAN_POINT('',(0.0415685580654104,-0.0789673315211986,0.00803144193458966));
#466=CARTESIAN_POINT('',(0.0452534149464495,-0.0789673315211986,0.0104935845862899));
#467=CARTESIAN_POINT('',(0.0496,-0.0789673315211986,0.0113581741093087));
#468=CARTESIAN_POINT('',(0.0539465850535505,-0.0789673315211986,0.0104935845862899));
#469=CARTESIAN_POINT('',(0.0455856877344204,-0.082797593765454,0.00969140711516305));
#470=CARTESIAN_POINT('',(0.0496,-0.082797593765454,0.0104899034713107));
#471=CARTESIAN_POINT('',(0.0536143122655797,-0.082797593765454,0.00969140711516304));
#472=CARTESIAN_POINT('',(0.0570174818785561,-0.082797593765454,0.00741748187855609));
#473=CARTESIAN_POINT('',(0.0592914071151631,-0.082797593765454,0.00401431226557965));
#474=CARTESIAN_POINT('',(0.0600899034713107,-0.082797593765454,4.60108296948536E-18));
#475=CARTESIAN_POINT('',(0.0592914071151631,-0.082797593765454,-0.00401431226557964));
#476=CARTESIAN_POINT('',(0.0570174818785561,-0.082797593765454,-0.00741748187855609));
#477=CARTESIAN_POINT('',(0.0536143122655796,-0.082797593765454,-0.00969140711516304));
#478=CARTESIAN_POINT('',(0.0496,-0.082797593765454,-0.0104899034713107));
#479=CARTESIAN_POINT('',(0.0455856877344204,-0.082797593765454,-0.00969140711516305));
#480=CARTESIAN_POINT('',(0.0421825181214439,-0.082797593765454,-0.00741748187855609));
#481=CARTESIAN_POINT('',(0.039908592884837,-0.082797593765454,-0.00401431226557965));
#482=CARTESIAN_POINT('',(0.0391100965286893,-0.082797593765454,-5.12963152857204E-18));
#483=CARTESIAN_POINT('',(0.039908592884837,-0.082797593765454,0.00401431226557964));
#484=CARTESIAN_POINT('',(0.0421825181214439,-0.082797593765454,0.0074174818785561));
#485=CARTESIAN_POINT('',(0.0455856877344204,-0.082797593765454,0.00969140711516305));
#486=CARTESIAN_POINT('',(0.0496,-0.082797593765454,0.0104899034713107));
#487=CARTESIAN_POINT('',(0.0536143122655797,-0.082797593765454,0.00969140711516304));
#488=CARTESIAN_POINT('',(0.0460436432266472,-0.0863863376123988,0.00858580475486586));
#489=CARTESIAN_POINT('',(0.0496,-0.0863863376123988,0.00929320809990013));
#490=CARTESIAN_POINT('',(0.0531563567733528,-0.0863863376123988,0.00858580475486584));
#491=CARTESIAN_POINT('',(0.0561712904664172,-0.0863863376123988,0.00657129046641713));
#492=CARTESIAN_POINT('',(0.0581858047548659,-0.0863863376123988,0.00355635677335283));
#493=CARTESIAN_POINT('',(0.0588932080999001,-0.0863863376123988,-7.37257477290143E-18));
#494=CARTESIAN_POINT('',(0.0581858047548659,-0.0863863376123988,-0.00355635677335285));
#495=CARTESIAN_POINT('',(0.0561712904664171,-0.0863863376123988,-0.00657129046641714));
#496=CARTESIAN_POINT('',(0.0531563567733528,-0.0863863376123988,-0.00858580475486585));
#497=CARTESIAN_POINT('',(0.0496,-0.0863863376123988,-0.00929320809990013));
#498=CARTESIAN_POINT('',(0.0460436432266472,-0.0863863376123988,-0.00858580475486584));
#499=CARTESIAN_POINT('',(0.0430287095335829,-0.0863863376123988,-0.00657129046641714));
#500=CARTESIAN_POINT('',(0.0410141952451342,-0.0863863376123988,-0.00355635677335283));
#501=CARTESIAN_POINT('',(0.0403067919000999,-0.0863863376123988,7.64362531602281E-18));
#502=CARTESIAN_POINT('',(0.0410141952451342,-0.0863863376123988,0.00355635677335285));
#503=CARTESIAN_POINT('',(0.0430287095335829,-0.0863863376123988,0.00657129046641715));
#504=CARTESIAN_POINT('',(0.0460436432266472,-0.0863863376123988,0.00858580475486586));
#505=CARTESIAN_POINT('',(0.0496,-0.0863863376123988,0.00929320809990013));
#506=CARTESIAN_POINT('',(0.0531563567733528,-0.0863863376123988,0.00858580475486584));
#507=CARTESIAN_POINT('',(0.0467910695409782,-0.0909084109446351,0.00678135800993337));
#508=CARTESIAN_POINT('',(0.0496,-0.090908410944635,0.00734008901734223));
#509=CARTESIAN_POINT('',(0.0524089304590218,-0.090908410944635,0.00678135800993337));
#510=CARTESIAN_POINT('',(0.0547902267186756,-0.090908410944635,0.00519022671867559));
#511=CARTESIAN_POINT('',(0.0563813580099334,-0.090908410944635,0.00280893045902182));
#512=CARTESIAN_POINT('',(0.0569400890173422,-0.0909084109446351,-3.45928255658656E-18));
#513=CARTESIAN_POINT('',(0.0563813580099334,-0.090908410944635,-0.00280893045902182));
#514=CARTESIAN_POINT('',(0.0547902267186756,-0.090908410944635,-0.0051902267186756));
#515=CARTESIAN_POINT('',(0.0524089304590218,-0.090908410944635,-0.00678135800993337));
#516=CARTESIAN_POINT('',(0.0496,-0.090908410944635,-0.00734008901734223));
#517=CARTESIAN_POINT('',(0.0467910695409781,-0.090908410944635,-0.00678135800993337));
#518=CARTESIAN_POINT('',(0.0444097732813244,-0.090908410944635,-0.00519022671867559));
#519=CARTESIAN_POINT('',(0.0428186419900666,-0.0909084109446351,-0.00280893045902182));
#520=CARTESIAN_POINT('',(0.0422599109826578,-0.090908410944635,-1.35525271560688E-19));
#521=CARTESIAN_POINT('',(0.0428186419900667,-0.0909084109446351,0.00280893045902183));
#522=CARTESIAN_POINT('',(0.0444097732813244,-0.090908410944635,0.0051902267186756));
#523=CARTESIAN_POINT('',(0.0467910695409782,-0.0909084109446351,0.00678135800993337));
#524=CARTESIAN_POINT('',(0.0496,-0.090908410944635,0.00734008901734223));
#525=CARTESIAN_POINT('',(0.0524089304590218,-0.090908410944635,0.00678135800993337));
#526=CARTESIAN_POINT('',(0.0474517276620579,-0.0941076309160311,0.00518638821393073));
#527=CARTESIAN_POINT('',(0.0495999999999999,-0.0941076309160311,0.00561370615044702));
#528=CARTESIAN_POINT('',(0.0517482723379421,-0.0941076309160311,0.00518638821393073));
#529=CARTESIAN_POINT('',(0.0535694896865697,-0.0941076309160311,0.00396948968656973));
#530=CARTESIAN_POINT('',(0.0547863882139307,-0.0941076309160311,0.00214827233794209));
#531=CARTESIAN_POINT('',(0.055213706150447,-0.0941076309160311,1.59038906176467E-17));
#532=CARTESIAN_POINT('',(0.0547863882139307,-0.0941076309160311,-0.00214827233794206));
#533=CARTESIAN_POINT('',(0.0535694896865697,-0.0941076309160311,-0.00396948968656971));
#534=CARTESIAN_POINT('',(0.0517482723379421,-0.0941076309160311,-0.00518638821393072));
#535=CARTESIAN_POINT('',(0.0496,-0.0941076309160311,-0.00561370615044702));
#536=CARTESIAN_POINT('',(0.047451727662058,-0.0941076309160311,-0.00518638821393074));
#537=CARTESIAN_POINT('',(0.0456305103134303,-0.0941076309160311,-0.00396948968656973));
#538=CARTESIAN_POINT('',(0.0444136117860693,-0.0941076309160311,-0.0021482723379421));
#539=CARTESIAN_POINT('',(0.043986293849553,-0.0941076309160311,-1.40438062654763E-17));
#540=CARTESIAN_POINT('',(0.0444136117860693,-0.0941076309160311,0.00214827233794206));
#541=CARTESIAN_POINT('',(0.0456305103134303,-0.0941076309160311,0.00396948968656971));
#542=CARTESIAN_POINT('',(0.0474517276620579,-0.0941076309160311,0.00518638821393073));
#543=CARTESIAN_POINT('',(0.0495999999999999,-0.0941076309160311,0.00561370615044702));
#544=CARTESIAN_POINT('',(0.0517482723379421,-0.0941076309160311,0.00518638821393073));
#545=CARTESIAN_POINT('',(0.0478923128360062,-0.0962401628494264,0.00412272151160441));
#546=CARTESIAN_POINT('',(0.0496,-0.0962401628494263,0.00446240160813827));
#547=CARTESIAN_POINT('',(0.0513076871639938,-0.0962401628494263,0.0041227215116044));
#548=CARTESIAN_POINT('',(0.0527553944374923,-0.0962401628494263,0.00315539443749233));
#549=CARTESIAN_POINT('',(0.0537227215116044,-0.0962401628494263,0.00170768716399385));
#550=CARTESIAN_POINT('',(0.0540624016081383,-0.0962401628494263,1.02660393207221E-18));
#551=CARTESIAN_POINT('',(0.0537227215116044,-0.0962401628494263,-0.00170768716399385));
#552=CARTESIAN_POINT('',(0.0527553944374923,-0.0962401628494263,-0.00315539443749233));
#553=CARTESIAN_POINT('',(0.0513076871639938,-0.0962401628494263,-0.0041227215116044));
#554=CARTESIAN_POINT('',(0.0496,-0.0962401628494263,-0.00446240160813827));
#555=CARTESIAN_POINT('',(0.0478923128360062,-0.0962401628494263,-0.0041227215116044));
#556=CARTESIAN_POINT('',(0.0464446055625077,-0.0962401628494263,-0.00315539443749233));
#557=CARTESIAN_POINT('',(0.0454772784883956,-0.0962401628494263,-0.00170768716399385));
#558=CARTESIAN_POINT('',(0.0451375983918617,-0.0962401628494263,-1.12485975395371E-18));
#559=CARTESIAN_POINT('',(0.0454772784883956,-0.0962401628494264,0.00170768716399385));
#560=CARTESIAN_POINT('',(0.0464446055625077,-0.0962401628494263,0.00315539443749233));
#561=CARTESIAN_POINT('',(0.0478923128360062,-0.0962401628494264,0.00412272151160441));
#562=CARTESIAN_POINT('',(0.0496,-0.0962401628494263,0.00446240160813827));
#563=CARTESIAN_POINT('',(0.0513076871639938,-0.0962401628494263,0.0041227215116044));
#564=CARTESIAN_POINT('',(0.0496,-0.0962401628494263,0.));
#565=CARTESIAN_POINT('',(0.0496,-0.0962401628494263,0.00434917490929365));
#566=CARTESIAN_POINT('',(0.0496,-0.0666664093732834,0.));
#567=CARTESIAN_POINT('',(0.0496,-0.0666664093732834,0.012535));
#568=CARTESIAN_POINT('',(0.0496,-0.0841706953942776,0.));
#569=CARTESIAN_POINT('',(0.0496,-0.0841706953942776,0.));
#570=CARTESIAN_POINT('',(0.0496,-0.0668775693951402,0.));
#571=CARTESIAN_POINT('',(0.0496,-0.0668775693951402,0.0148252863238402));
#572=CARTESIAN_POINT('',(0.0437789071063442,-0.0668775693951402,0.0140533614116976));
#573=CARTESIAN_POINT('',(0.0496,-0.0668775693951402,0.0152112487799115));
#574=CARTESIAN_POINT('',(0.0554210928936558,-0.0668775693951402,0.0140533614116975));
#575=CARTESIAN_POINT('',(0.060355977162591,-0.0668775693951402,0.010755977162591));
#576=CARTESIAN_POINT('',(0.0636533614116976,-0.0668775693951402,0.00582109289365583));
#577=CARTESIAN_POINT('',(0.0648112487799115,-0.0668775693951402,8.53809210832335E-19));
#578=CARTESIAN_POINT('',(0.0636533614116975,-0.0668775693951402,-0.00582109289365582));
#579=CARTESIAN_POINT('',(0.060355977162591,-0.0668775693951402,-0.010755977162591));
#580=CARTESIAN_POINT('',(0.0554210928936558,-0.0668775693951402,-0.0140533614116975));
#581=CARTESIAN_POINT('',(0.0496,-0.0668775693951402,-0.0152112487799115));
#582=CARTESIAN_POINT('',(0.0437789071063442,-0.0668775693951402,-0.0140533614116975));
#583=CARTESIAN_POINT('',(0.038844022837409,-0.0668775693951402,-0.010755977162591));
#584=CARTESIAN_POINT('',(0.0355466385883025,-0.0668775693951402,-0.00582109289365583));
#585=CARTESIAN_POINT('',(0.0343887512200885,-0.0668775693951402,-4.65529307810963E-18));
#586=CARTESIAN_POINT('',(0.0355466385883025,-0.0668775693951402,0.00582109289365583));
#587=CARTESIAN_POINT('',(0.038844022837409,-0.0668775693951402,0.010755977162591));
#588=CARTESIAN_POINT('',(0.0437789071063442,-0.0668775693951402,0.0140533614116976));
#589=CARTESIAN_POINT('',(0.0496,-0.0668775693951402,0.0152112487799115));
#590=CARTESIAN_POINT('',(0.0554210928936558,-0.0668775693951402,0.0140533614116975));
#591=CARTESIAN_POINT('',(0.0438763053098295,-0.0695662246942962,0.0138182213478926));
#592=CARTESIAN_POINT('',(0.0496,-0.0695662246942962,0.0149567350088728));
#593=CARTESIAN_POINT('',(0.0553236946901705,-0.0695662246942962,0.0138182213478926));
#594=CARTESIAN_POINT('',(0.0601760087491842,-0.0695662246942962,0.0105760087491842));
#595=CARTESIAN_POINT('',(0.0634182213478926,-0.0695662246942962,0.00572369469017055));
#596=CARTESIAN_POINT('',(0.0645567350088729,-0.0695662246942962,1.66018457661843E-18));
#597=CARTESIAN_POINT('',(0.0634182213478926,-0.0695662246942962,-0.00572369469017055));
#598=CARTESIAN_POINT('',(0.0601760087491842,-0.0695662246942962,-0.0105760087491842));
#599=CARTESIAN_POINT('',(0.0553236946901705,-0.0695662246942962,-0.0138182213478926));
#600=CARTESIAN_POINT('',(0.0496,-0.0695662246942962,-0.0149567350088728));
#601=CARTESIAN_POINT('',(0.0438763053098294,-0.0695662246942962,-0.0138182213478926));
#602=CARTESIAN_POINT('',(0.0390239912508158,-0.0695662246942962,-0.0105760087491842));
#603=CARTESIAN_POINT('',(0.0357817786521073,-0.0695662246942962,-0.00572369469017056));
#604=CARTESIAN_POINT('',(0.0346432649911272,-0.0695662246942962,-3.09675245516172E-18));
#605=CARTESIAN_POINT('',(0.0357817786521074,-0.0695662246942962,0.00572369469017055));
#606=CARTESIAN_POINT('',(0.0390239912508158,-0.0695662246942962,0.0105760087491842));
#607=CARTESIAN_POINT('',(0.0438763053098295,-0.0695662246942962,0.0138182213478926));
#608=CARTESIAN_POINT('',(0.0496,-0.0695662246942962,0.0149567350088728));
#609=CARTESIAN_POINT('',(0.0553236946901705,-0.0695662246942962,0.0138182213478926));
#610=CARTESIAN_POINT('',(0.044072354713496,-0.0749973078096555,0.0133449162186659));
#611=CARTESIAN_POINT('',(0.0496,-0.0749973078096554,0.0144444332286394));
#612=CARTESIAN_POINT('',(0.0551276452865041,-0.0749973078096554,0.0133449162186659));
#613=CARTESIAN_POINT('',(0.0598137566863672,-0.0749973078096554,0.0102137566863672));
#614=CARTESIAN_POINT('',(0.0629449162186659,-0.0749973078096554,0.0055276452865041));
#615=CARTESIAN_POINT('',(0.0640444332286394,-0.0749973078096554,3.30004036250275E-18));
#616=CARTESIAN_POINT('',(0.0629449162186659,-0.0749973078096554,-0.0055276452865041));
#617=CARTESIAN_POINT('',(0.0598137566863672,-0.0749973078096554,-0.0102137566863672));
#618=CARTESIAN_POINT('',(0.0551276452865041,-0.0749973078096554,-0.0133449162186659));
#619=CARTESIAN_POINT('',(0.0496,-0.0749973078096554,-0.0144444332286394));
#620=CARTESIAN_POINT('',(0.0440723547134959,-0.0749973078096554,-0.0133449162186659));
#621=CARTESIAN_POINT('',(0.0393862433136328,-0.0749973078096554,-0.0102137566863672));
#622=CARTESIAN_POINT('',(0.0362550837813341,-0.0749973078096554,-0.00552764528650409));
#623=CARTESIAN_POINT('',(0.0351555667713606,-0.0749973078096554,-7.29803587354305E-18));
#624=CARTESIAN_POINT('',(0.0362550837813342,-0.0749973078096554,0.0055276452865041));
#625=CARTESIAN_POINT('',(0.0393862433136328,-0.0749973078096554,0.0102137566863672));
#626=CARTESIAN_POINT('',(0.044072354713496,-0.0749973078096555,0.0133449162186659));
#627=CARTESIAN_POINT('',(0.0496,-0.0749973078096554,0.0144444332286394));
#628=CARTESIAN_POINT('',(0.0551276452865041,-0.0749973078096554,0.0133449162186659));
#629=CARTESIAN_POINT('',(0.0444228342495199,-0.0802730373569474,0.0124987837694626));
#630=CARTESIAN_POINT('',(0.0496,-0.0802730373569474,0.0135285860652075));
#631=CARTESIAN_POINT('',(0.0547771657504801,-0.0802730373569474,0.0124987837694626));
#632=CARTESIAN_POINT('',(0.059166154946574,-0.0802730373569474,0.00956615494657405));
#633=CARTESIAN_POINT('',(0.0620987837694626,-0.0802730373569474,0.00517716575048013));
#634=CARTESIAN_POINT('',(0.0631285860652075,-0.0802730373569474,9.24959978401696E-19));
#635=CARTESIAN_POINT('',(0.0620987837694626,-0.0802730373569474,-0.00517716575048012));
#636=CARTESIAN_POINT('',(0.059166154946574,-0.0802730373569474,-0.00956615494657406));
#637=CARTESIAN_POINT('',(0.0547771657504801,-0.0802730373569474,-0.0124987837694626));
#638=CARTESIAN_POINT('',(0.0496,-0.0802730373569474,-0.0135285860652075));
#639=CARTESIAN_POINT('',(0.0444228342495199,-0.0802730373569474,-0.0124987837694626));
#640=CARTESIAN_POINT('',(0.040033845053426,-0.0802730373569474,-0.00956615494657405));
#641=CARTESIAN_POINT('',(0.0371012162305374,-0.0802730373569474,-0.00517716575048013));
#642=CARTESIAN_POINT('',(0.0360714139347925,-0.0802730373569474,-3.06964740084958E-18));
#643=CARTESIAN_POINT('',(0.0371012162305374,-0.0802730373569474,0.00517716575048012));
#644=CARTESIAN_POINT('',(0.040033845053426,-0.0802730373569474,0.00956615494657405));
#645=CARTESIAN_POINT('',(0.0444228342495199,-0.0802730373569474,0.0124987837694626));
#646=CARTESIAN_POINT('',(0.0496,-0.0802730373569474,0.0135285860652075));
#647=CARTESIAN_POINT('',(0.0547771657504801,-0.0802730373569474,0.0124987837694626));
#648=CARTESIAN_POINT('',(0.0446781794175154,-0.0828100421529303,0.0118823260018016));
#649=CARTESIAN_POINT('',(0.0496,-0.0828100421529303,0.0128613369856815));
#650=CARTESIAN_POINT('',(0.0545218205824847,-0.0828100421529303,0.0118823260018016));
#651=CARTESIAN_POINT('',(0.0586943385977008,-0.0828100421529303,0.00909433859770076));
#652=CARTESIAN_POINT('',(0.0614823260018016,-0.0828100421529303,0.00492182058248469));
#653=CARTESIAN_POINT('',(0.0624613369856815,-0.0828100421529303,2.59869708217619E-18));
#654=CARTESIAN_POINT('',(0.0614823260018016,-0.0828100421529303,-0.00492182058248469));
#655=CARTESIAN_POINT('',(0.0586943385977008,-0.0828100421529303,-0.00909433859770076));
#656=CARTESIAN_POINT('',(0.0545218205824847,-0.0828100421529303,-0.0118823260018016));
#657=CARTESIAN_POINT('',(0.0496,-0.0828100421529303,-0.0128613369856815));
#658=CARTESIAN_POINT('',(0.0446781794175153,-0.0828100421529303,-0.0118823260018016));
#659=CARTESIAN_POINT('',(0.0405056614022992,-0.0828100421529303,-0.00909433859770076));
#660=CARTESIAN_POINT('',(0.0377176739981984,-0.0828100421529303,-0.00492182058248469));
#661=CARTESIAN_POINT('',(0.0367386630143185,-0.0828100421529303,-4.13352078260099E-18));
#662=CARTESIAN_POINT('',(0.0377176739981984,-0.0828100421529303,0.00492182058248469));
#663=CARTESIAN_POINT('',(0.0405056614022992,-0.0828100421529303,0.00909433859770077));
#664=CARTESIAN_POINT('',(0.0446781794175154,-0.0828100421529303,0.0118823260018016));
#665=CARTESIAN_POINT('',(0.0496,-0.0828100421529303,0.0128613369856815));
#666=CARTESIAN_POINT('',(0.0545218205824847,-0.0828100421529303,0.0118823260018016));
#667=CARTESIAN_POINT('',(0.0496,-0.0828100421529303,0.));
#668=CARTESIAN_POINT('',(0.0496,-0.0828100421529303,0.0125349999910549));
#669=CARTESIAN_POINT('',(0.0446781794175154,-0.0828100421529303,0.0118823260018016));
#670=CARTESIAN_POINT('',(0.0496,-0.0828100421529303,0.0128613369856815));
#671=CARTESIAN_POINT('',(0.0545218205824847,-0.0828100421529303,0.0118823260018016));
#672=CARTESIAN_POINT('',(0.0586943385977008,-0.0828100421529303,0.00909433859770076));
#673=CARTESIAN_POINT('',(0.0614823260018016,-0.0828100421529303,0.00492182058248469));
#674=CARTESIAN_POINT('',(0.0624613369856815,-0.0828100421529303,2.59869708217619E-18));
#675=CARTESIAN_POINT('',(0.0614823260018016,-0.0828100421529303,-0.00492182058248469));
#676=CARTESIAN_POINT('',(0.0586943385977008,-0.0828100421529303,-0.00909433859770076));
#677=CARTESIAN_POINT('',(0.0545218205824847,-0.0828100421529303,-0.0118823260018016));
#678=CARTESIAN_POINT('',(0.0496,-0.0828100421529303,-0.0128613369856815));
#679=CARTESIAN_POINT('',(0.0446781794175153,-0.0828100421529303,-0.0118823260018016));
#680=CARTESIAN_POINT('',(0.0405056614022992,-0.0828100421529303,-0.00909433859770076));
#681=CARTESIAN_POINT('',(0.0377176739981984,-0.0828100421529303,-0.00492182058248469));
#682=CARTESIAN_POINT('',(0.0367386630143185,-0.0828100421529303,-4.13352078260099E-18));
#683=CARTESIAN_POINT('',(0.0377176739981984,-0.0828100421529303,0.00492182058248469));
#684=CARTESIAN_POINT('',(0.0405056614022992,-0.0828100421529303,0.00909433859770077));
#685=CARTESIAN_POINT('',(0.0446781794175154,-0.0828100421529303,0.0118823260018016));
#686=CARTESIAN_POINT('',(0.0496,-0.0828100421529303,0.0128613369856815));
#687=CARTESIAN_POINT('',(0.0545218205824847,-0.0828100421529303,0.0118823260018016));
#688=CARTESIAN_POINT('',(0.0449517999294754,-0.0855496243242204,0.0112217476508843));
#689=CARTESIAN_POINT('',(0.0496,-0.0855496243242203,0.0121463321309666));
#690=CARTESIAN_POINT('',(0.0542482000705247,-0.0855496243242203,0.0112217476508843));
#691=CARTESIAN_POINT('',(0.0581887538163506,-0.0855496243242203,0.00858875381635057));
#692=CARTESIAN_POINT('',(0.0608217476508843,-0.0855496243242203,0.00464820007052469));
#693=CARTESIAN_POINT('',(0.0617463321309667,-0.0855496243242203,4.59769483769634E-18));
#694=CARTESIAN_POINT('',(0.0608217476508843,-0.0855496243242204,-0.00464820007052469));
#695=CARTESIAN_POINT('',(0.0581887538163506,-0.0855496243242204,-0.00858875381635057));
#696=CARTESIAN_POINT('',(0.0542482000705247,-0.0855496243242203,-0.0112217476508843));
#697=CARTESIAN_POINT('',(0.0496,-0.0855496243242204,-0.0121463321309666));
#698=CARTESIAN_POINT('',(0.0449517999294753,-0.0855496243242204,-0.0112217476508843));
#699=CARTESIAN_POINT('',(0.0410112461836494,-0.0855496243242204,-0.00858875381635056));
#700=CARTESIAN_POINT('',(0.0383782523491157,-0.0855496243242203,-0.0046482000705247));
#701=CARTESIAN_POINT('',(0.0374536678690334,-0.0855496243242204,-6.83047368665868E-18));
#702=CARTESIAN_POINT('',(0.0383782523491157,-0.0855496243242204,0.00464820007052469));
#703=CARTESIAN_POINT('',(0.0410112461836494,-0.0855496243242203,0.00858875381635057));
#704=CARTESIAN_POINT('',(0.0449517999294754,-0.0855496243242204,0.0112217476508843));
#705=CARTESIAN_POINT('',(0.0496,-0.0855496243242203,0.0121463321309666));
#706=CARTESIAN_POINT('',(0.0542482000705247,-0.0855496243242203,0.0112217476508843));
#707=CARTESIAN_POINT('',(0.0457064409783973,-0.0906083471229293,0.00939988299585364));
#708=CARTESIAN_POINT('',(0.0496,-0.0906083471229292,0.0101743600383731));
#709=CARTESIAN_POINT('',(0.0534935590216029,-0.0906083471229292,0.00939988299585362));
#710=CARTESIAN_POINT('',(0.056794358977367,-0.0906083471229292,0.00719435897736701));
#711=CARTESIAN_POINT('',(0.0589998829958537,-0.0906083471229292,0.0038935590216028));
#712=CARTESIAN_POINT('',(0.0597743600383731,-0.0906083471229292,-5.76998843669629E-18));
#713=CARTESIAN_POINT('',(0.0589998829958537,-0.0906083471229292,-0.00389355902160281));
#714=CARTESIAN_POINT('',(0.0567943589773671,-0.0906083471229292,-0.00719435897736702));
#715=CARTESIAN_POINT('',(0.0534935590216028,-0.0906083471229292,-0.00939988299585363));
#716=CARTESIAN_POINT('',(0.0496,-0.0906083471229292,-0.0101743600383731));
#717=CARTESIAN_POINT('',(0.0457064409783972,-0.0906083471229292,-0.00939988299585361));
#718=CARTESIAN_POINT('',(0.042405641022633,-0.0906083471229292,-0.00719435897736702));
#719=CARTESIAN_POINT('',(0.0402001170041464,-0.0906083471229292,-0.0038935590216028));
#720=CARTESIAN_POINT('',(0.039425639961627,-0.0906083471229292,7.43356114510374E-18));
#721=CARTESIAN_POINT('',(0.0402001170041464,-0.0906083471229293,0.00389355902160282));
#722=CARTESIAN_POINT('',(0.042405641022633,-0.0906083471229292,0.00719435897736703));
#723=CARTESIAN_POINT('',(0.0457064409783973,-0.0906083471229293,0.00939988299585364));
#724=CARTESIAN_POINT('',(0.0496,-0.0906083471229292,0.0101743600383731));
#725=CARTESIAN_POINT('',(0.0534935590216029,-0.0906083471229292,0.00939988299585362));
#726=CARTESIAN_POINT('',(0.0466374081898781,-0.095103737441996,0.00715232932777183));
#727=CARTESIAN_POINT('',(0.0496,-0.095103737441996,0.00774162547830276));
#728=CARTESIAN_POINT('',(0.0525625918101219,-0.095103737441996,0.00715232932777183));
#729=CARTESIAN_POINT('',(0.0550741558731144,-0.095103737441996,0.00547415587311445));
#730=CARTESIAN_POINT('',(0.0567523293277718,-0.095103737441996,0.00296259181012195));
#731=CARTESIAN_POINT('',(0.0573416254783028,-0.095103737441996,1.43656787854329E-17));
#732=CARTESIAN_POINT('',(0.0567523293277718,-0.095103737441996,-0.00296259181012192));
#733=CARTESIAN_POINT('',(0.0550741558731144,-0.095103737441996,-0.00547415587311442));
#734=CARTESIAN_POINT('',(0.0525625918101219,-0.095103737441996,-0.00715232932777183));
#735=CARTESIAN_POINT('',(0.0496,-0.095103737441996,-0.00774162547830276));
#736=CARTESIAN_POINT('',(0.0466374081898781,-0.095103737441996,-0.00715232932777184));
#737=CARTESIAN_POINT('',(0.0441258441268856,-0.095103737441996,-0.00547415587311444));
#738=CARTESIAN_POINT('',(0.0424476706722282,-0.095103737441996,-0.00296259181012195));
#739=CARTESIAN_POINT('',(0.0418583745216972,-0.095103737441996,-1.73811160776582E-17));
#740=CARTESIAN_POINT('',(0.0424476706722282,-0.095103737441996,0.00296259181012192));
#741=CARTESIAN_POINT('',(0.0441258441268855,-0.095103737441996,0.00547415587311443));
#742=CARTESIAN_POINT('',(0.0466374081898781,-0.095103737441996,0.00715232932777183));
#743=CARTESIAN_POINT('',(0.0496,-0.095103737441996,0.00774162547830276));
#744=CARTESIAN_POINT('',(0.0525625918101219,-0.095103737441996,0.00715232932777183));
#745=CARTESIAN_POINT('',(0.0470930908181181,-0.0973110676971031,0.00605221414653698));
#746=CARTESIAN_POINT('',(0.0496,-0.097311067697103,0.00655086938671091));
#747=CARTESIAN_POINT('',(0.0521069091818819,-0.097311067697103,0.00605221414653698));
#748=CARTESIAN_POINT('',(0.0542321641660106,-0.097311067697103,0.00463216416601065));
#749=CARTESIAN_POINT('',(0.055652214146537,-0.097311067697103,0.00250690918188192));
#750=CARTESIAN_POINT('',(0.0561508693867109,-0.097311067697103,8.41950749570775E-19));
#751=CARTESIAN_POINT('',(0.055652214146537,-0.097311067697103,-0.00250690918188192));
#752=CARTESIAN_POINT('',(0.0542321641660106,-0.097311067697103,-0.00463216416601065));
#753=CARTESIAN_POINT('',(0.0521069091818819,-0.097311067697103,-0.00605221414653698));
#754=CARTESIAN_POINT('',(0.0496,-0.097311067697103,-0.00655086938671091));
#755=CARTESIAN_POINT('',(0.0470930908181181,-0.097311067697103,-0.00605221414653698));
#756=CARTESIAN_POINT('',(0.0449678358339894,-0.097311067697103,-0.00463216416601065));
#757=CARTESIAN_POINT('',(0.043547785853463,-0.097311067697103,-0.00250690918188192));
#758=CARTESIAN_POINT('',(0.0430491306132891,-0.097311067697103,-2.07014852308951E-18));
#759=CARTESIAN_POINT('',(0.043547785853463,-0.097311067697103,0.00250690918188192));
#760=CARTESIAN_POINT('',(0.0449678358339894,-0.097311067697103,0.00463216416601065));
#761=CARTESIAN_POINT('',(0.0470930908181181,-0.0973110676971031,0.00605221414653698));
#762=CARTESIAN_POINT('',(0.0496,-0.097311067697103,0.00655086938671091));
#763=CARTESIAN_POINT('',(0.0521069091818819,-0.097311067697103,0.00605221414653698));
#764=CARTESIAN_POINT('',(0.0496,-0.097311067697103,0.));
#765=CARTESIAN_POINT('',(0.0496,-0.097311067697103,0.0063846509733196));
#766=CARTESIAN_POINT('',(0.0496,-0.0962401628494263,0.));
#767=CARTESIAN_POINT('',(0.0496,-0.0980101420355358,0.));
#768=CARTESIAN_POINT('',(0.0496,-0.0980101420355358,-0.00341795330261827));
#769=CARTESIAN_POINT('',(0.0496,-0.097311067697103,0.));
#770=CARTESIAN_POINT('',(0.0496,-0.0990810468832125,0.));
#771=CARTESIAN_POINT('',(0.0496,-0.0990810468832125,-0.00545342936664421));
#772=CARTESIAN_POINT('',(0.0496,-0.0990810468832125,0.));
#773=MECHANICAL_DESIGN_GEOMETRIC_PRESENTATION_REPRESENTATION('',(#236),#774);
#774=(
GEOMETRIC_REPRESENTATION_CONTEXT(3)
GLOBAL_UNCERTAINTY_ASSIGNED_CONTEXT((#775))
GLOBAL_UNIT_ASSIGNED_CONTEXT((#778,#777,#776))
REPRESENTATION_CONTEXT('Part 3','TOP_LEVEL_ASSEMBLY_PART')
);
#775=UNCERTAINTY_MEASURE_WITH_UNIT(LENGTH_MEASURE(2.E-05),#778,'DISTANCE_ACCURACY_VALUE','Maximum Tolerance applied to model');
#776=(
NAMED_UNIT(*)
SI_UNIT($,.STERADIAN.)
SOLID_ANGLE_UNIT()
);
#777=(
NAMED_UNIT(*)
PLANE_ANGLE_UNIT()
SI_UNIT($,.RADIAN.)
);
#778=(
LENGTH_UNIT()
NAMED_UNIT(*)
SI_UNIT($,.METRE.)
);
#779=PRODUCT_DEFINITION_SHAPE('','',#780);
#780=PRODUCT_DEFINITION('','',#782,#781);
#781=PRODUCT_DEFINITION_CONTEXT('',#788,'design');
#782=PRODUCT_DEFINITION_FORMATION_WITH_SPECIFIED_SOURCE('','',#784,.NOT_KNOWN.);
#783=PRODUCT_RELATED_PRODUCT_CATEGORY('','',(#784));
#784=PRODUCT('Part 3','Part 3','Part 3',(#786));
#785=PRODUCT_CATEGORY('','');
#786=PRODUCT_CONTEXT('',#788,'mechanical');
#787=APPLICATION_PROTOCOL_DEFINITION('international standard','ap242_managed_model_based_3d_engineering',2020,#788);
#788=APPLICATION_CONTEXT('managed model based 3d engineering');
ENDSEC;
END-ISO-10303-21;
